<mxfile host="www.draw.io" modified="2019-10-18T05:19:42.979Z" agent="Mozilla/5.0 (Windows NT 10.0; Win64; x64) AppleWebKit/537.36 (KHTML, like Gecko) Chrome/77.0.3865.90 Safari/537.36" etag="lMhWpMyYBCKPvJB3YGDU" version="12.1.2" type="github" pages="2">
  <diagram id="nWQm3IzE-_vyJnNRGoL4" name="第 1 页">
    <mxGraphModel dx="1173" dy="652" grid="1" gridSize="10" guides="1" tooltips="1" connect="1" arrows="1" fold="1" page="1" pageScale="1" pageWidth="827" pageHeight="1169" math="0" shadow="0">
      <root>
        <mxCell id="0"/>
        <mxCell id="1" parent="0"/>
        <mxCell id="WZl6F928Qv028v0fQNhU-43" value="" style="shape=image;verticalLabelPosition=bottom;labelBackgroundColor=#ffffff;verticalAlign=top;aspect=fixed;imageAspect=0;image=data:image/png,iVBORw0KGgoAAAANSUhEUgAABN4AAAJrCAYAAAA/Jl7aAAAgAElEQVR4Aex9CXgU15Xu35JYJAFmEQYM2kAtJFl4iwl2y7aQIcaCICuJQ0w8Y+TBI5G8mUieDG+IISQhOCEhE0uZzNhSzBg8jnGI8yLDIBkMFtiWvOCw2CAJWqANbBaJXRuL+n3nVlV3VXW11N3q1tI69X1SVd177rn3/reru+qvs5hsNpsNvDECjAAjwAgwAl0g0F5Xh8sffYSWQ4fE/uKePV1IcxUjwAgwAowAI9C/EBg9ezZG3HUXwu+8E6Puuw9hCQn9a4A8GkaAEWAEGIGARcDExFvAri1PjBFgBBgBnyDQsG4d6n/2M3S2t/tEHythBBgBRoARYAT6GoGoFSsQ/ZOfIGj48L4eCvfPCDACjAAjEOAIMPEW4AvM02MEGAFGwFsErp0+jarFi6FYt5lGjADCw0F7U2goEBzsrWpuxwgwAowAI8AI9B4CNhtsLS2wtbYCbW2wXbwo+iart8TNm4UlXO8NhntiBBgBRoARGGwIMPE22Fac58sIMAKMgJsIHEpLk0i34GAE3XYbTGPHutmSxRgBRoARYAQYgf6LABFwtoYG2Do6MHTiRMysqkLI6NH9d8A8MkaAERjUCJw+fRrNzc1oaWnBjRs3/IZFUFAQRo4cKf6mTJkCOufNNwgw8eYbHFkLI8AIMAIBhQC5l9b+6EfCqi04Ph4YOjSg5seTYQQYAUaAERjkCNhs6DxxArarVzExKwvTX3llkAPC02cEGIH+iMCRI0dw6dKlXh9aaGgoZsyYgZCQkF7vOxA7ZAozEFeV58QIMAKMQA8QaK2uFjHdSEXQlClMuvUAS27KCDACjAAj0E8RMJkQFBkJBAXh9MaNOP/22/10oDwsRoARGKwInDx5sk9IN8K7ra0NDQ0NgxV6n8+biTefQ8oKGQFGgBEY2AhQTDdKpGC65RaY2PVmYC8mj54RYAQYAUbANQJDh8I0YYKov7Bjh2s5rmEEGAFGoA8QuHDhQh/06ujy/PnzjhM+6hECTLz1CD5uzAgwAoxA4CHQcuiQNKnw8MCbHM+IEWAEGAFGgBFQIWAKCxNnlz/6SFXKh4wAI8AI9D0CFNOtL7dr1671ZfcB1TcTbwG1nDwZRoARYAR6joDy8GFi4q3nYLIGRoARYAQYgX6NgMjSDeDqwYP9epw8OEaAERh8CHR2dg6+SQfojJl4C9CF5WkxAowAI+AtAsrDh/Iw4q0ebscIMAKMACPACPR7BIKDAZNJhFjo92PlATICjAAjwAgMSASYeBuQy8aDZgQYAUagFxAwmXqhE+6CEWAEGAFGgBHoYwRstj4eAHfPCDACjAAjEMgIMPEWyKvLc2MEGAFGgBFgBBgBRoARYAQYAUaAEQhgBGpQn2LCXpM7fymor3EBRU0B9gkdOTjnQmTQFJfmSHjmlLqYsgPzSlmktSAFe01qfEtRSXimFKBVaJHPTYyvC1ADujgkoGfHk2MEGAFGgBFgBBgBRoARYAQYAUaAEWAEAhaBOESX2xDd5fyIKDKjrsK1UOv2LRJBZEnCYE2vReTZvjwVSEXzsbeIMLMgxroKLeb5KlKSysoRZiXmLV0DrEZPRR72mfJU9UWoNBVhfIkNSdpmKhk+DDQE2OIt0FaU58MIMAKMACPACDACjAAjwAgwAowAI8AIdIHAuRythZydcBJEkbbObk3n0gKsi44GUFVYbjmSsmnA2Uiy2ZBqzQflPR5fUo7oOHki2SVIpTqbVDY+3RV7lo0kqxUzbVbEWEhlCWZarUgtER0MIFR4qL5AgC3efIEi62AEGAFGgBFgBBgBRoARYAQYAUaAEWAE+gABxcIqLN+KmbkKQ9T1QMYX2pBaSDIOazhP2netfeDWhicRS1aEc6WFCD8mWQG2Fpfqjdo0E1Twp8I6cw6QL1WfW29G5eFsjKfTovnYJ6znNE35ZJAgwMTbIFloniYjwAgwAowAI8AIMAKMACPACDACjAAjoEagtWCJ3QW1Nc+MvWqvSJXgYHCNJCvASpkcOzff5HArJdIsKV9ywbW7n8rgWPIxs7wcM0FuqkCMtRDjt6egjsg7oavIoUeFJx8OLgSYeBtc682zZQQYAUaAEWAEAhcBUyIi8pch7KU8NFQZZCnstj4DiflTce6lAjQZtZeRiyh4C1ExQFtdHVp2v4SGrVXOmJoykFi8FKEgubJudTorAJCYgah5U9G6o+vxUFtlTJKeOjRk5qGpB5kawzPyMG5OLMJjYhAaXYemxS4wNRw4FzICjAAjwAj0BQJdEWeG4ynNscc0c2XtprbmMtQRQIVOVoAgUi1XuJsCpagkUpJcTQuBStN8nBOkm1QvJVCQwCCX1dTcAAKGp9JjBJh46zGErIARYAQYAUaAEfAPAloyxYd91G3A/tytQmF3fbSVrUDVDiDCbPZoAG3WbWgh8ioxD4nLYj1q2/JSHprNCwVp1WVD6zY7QUZE0fQ1WdLNcWo+Wu/WEU80jnVZGEfRp1OLEb46E1VbteRcRP4ajEsFxqVmoXXvRhzNK0CLnrwyJSIsJhph0UBYdDSw24VpQMJUhEZHi/GERaeh5aWCLqdiVBk+bymisqKBrCwA9WhYnGlMKIrG0pgkPXVG6jwrm5qGqFQlVHc0wmn5DfjFbpUK3NO6X8tuFLVtcF6vbppwNSPACDACgw4BV+SZIRCUuXO+w/fRY9LOUOnALnQmGR2JEcaXlHgwOYf7rmEjQd65ig1n2IILBzgCTLwN8AXk4TMCjAAjwAgEMgJqMsWH89TwMm70YV6GhDWpHg2gefU2VBFRY47FuFTP2mJ3ArB0DaIU3sdFz60brWgSnQCYmia/kSbhVCQU5+JAppY4C7Xri8a4NQeQiMWoUqzVEvMQpRpmWIyLTmFGuF1PPVqsxnLh81TjqS9Dc7WxXFelobH2jgBFhykRUcWbERVdj9a9ZWjoxjrPUH9iYvcZ63aUoTVLJjIBjJuzEOFWF5NVddKirIeqTCEgVUUeH7Z53IIbMAKMACPACDghIMg2IMlWCBQXQRB18esFAeeKtHMmo5y0BkyBw1JNJs7UFm81BdjX7UwrUGc2oaXEKv3OqizipKalkqVct3pYINAQYOIt0FaU58MIMAKMACPACAxCBFoKVqAhjQgpefLRWZieuwP782Uzrap87F8M3LPZQSaFzjEjfFu1sGqLWOYoF9ZlK7SkXXheAaanERsnWbFJvUQjal0xIjR4S26eUJNmdUDowq4t+OwWgoouUwbGq4jA1rIdkvVd4jxEiDlGIyw1C+N3kxuq0siNPRF361Q4udFEiKSuwd2q8Rg3684qz7gVlzICjAAjwAj0JgJFqMzJRGqhTQr6Xyr1zRZvhINMjGXnQ3r/Vom6FIr1lo+ZqypB7qRhSWQC3sWLKEs+YtKBc2sBiAyxLizje3PJua8+R4CJtz5fAh4AI8AIMAKMACPgBgL1G1G9Yge8s/wxY9y67i3ImlcvRoNVLVuPph3VgBlora93Y5AGIltzccCaaK8InbcOCeQ+uXc1Duyeg7vJkk43t5ZqIGLqXjQbeKiGxqQKN0+7QuXAVoWGzNUIP7AG4+SysKx1iNqhcs8k8m11LB5YE4Pm1Ssc1m4ZBUhQkUrNq1VtFP2IkVxL7efygexO6igmc8KFGtIMqVka/Q5Zx5HdQlApWjjHPg8iAsU6UJ05VmXZ59riTlHT3/bSZ8yNUZmXSZ8NN0RZhBFgBBgBRsA9BFqPHRaCEnmkbcMWb0BrwVqRCGF85gLgMBFmSYhZlY2W4kockd1yw+Mpa6yWeBNJGVCCVJviPlojgcsWb9oP2SA+Y+JtEC8+T50RYAQYAUZgYCHQVk2WU57FWqMZtm3T3iC6nnU1WqrNDqsxxb2xKhf7pZBwrpt2UaNxP5znEGxxHKKtWrI8U4qa8nPRpJyo9hEFB5GgWLWpysWhbSuqVs/BA8Ittl6Qaw3VC5F40EHGKU3GrdmMB9YoZ9o9uaEqda0bFzus5rRirs80pJlrMZc1ZJW2VMUEKutASRTmqMpRB5gXIsIMaF1jYxC2cKHOEs+KNrLuo07r6sVbe6f+BYlYj9YuOVZyTXYlo/FhdlIvFVRLsf9c1NqLPf+Y25vyASPACDACgw2BsAWLEJZXgdYt29GaqyQD0KNQg3NbKgBYcOsCIo/c21oqqc1g2BR8sjE+3Ypz8wVUQHohYopNqCQIZGs2PRoiKYO+kM7Z4s0IlUFZxsTboFx2njQjwAgwAozAgEQgYR6ilAQCbk+gHg3WFW5LQ00a1Z1wTi7gvia7JLlpRinWazEyaxazFIlLZZHoNETlKwK1aDBKamDX1s3BtpdQPbUWUDKBmnzD4LTkP4YPCjKQaLeo24tqfQIHGpocg80+yvq9aDbko2Iwzp68wC4tHSQo7qTSqd3NVCR2UMumIsow9l40otboWcW9qN6WhxayDMx9DA1qNZTtNXeZlMihvgxHdbHx1KLIKJCIzbqN3sWX0yjjE0aAEWAEGAGfIBCXi9vzt2BfniMZgCu9YfmbEN0d76ZLvAAQGeVKY6CUxyG63IZoxd2U3EoXLZCSJBWWYHzRfGCVK1LTBQZs8eYCmMFXzMTb4FtznjEjwAgwAowAI+ASAbVFVfPubUBioscZTRXlStyy0NhUkS1UKRf76GiVK2W0hoQ6B0iWWZoGbp7YqtCkxHVTmtQbWHjpXUSNZMhaUNFBe8pUqpzX1wK5+UiU+ULKxNpAWVw1pFk9GlbI5Uo7ZU8Elp1424tz25QKQJOYwVGs062u6MExkW7565CgjCU6C3fnn8AHctZbjWZTBhJloo/iyyWkZoFcR+0JKjTCxiehS/OROMe4TlMa4zK7hUaMTxgBRoARYAQkBByJATxEJL0QqZRsQb0ZlanrA/o4HUn6jObQl+nP9YAoJJ6+vLt2enk+DxQEmHgLlJXkeTACjAAjwAgEPgLVO9Cw+oRmnmFzliJKIU3q96Jhw24nN0JyUVXinmkaO52oY5PJZNBCzzOaKmqd4pYpFb7eJ2YId0u92rZt29BC7qePGfjJKpZbohERZEZx3bQa1YQYWaEhdrODUNwNoArQJGkQLqIJiHrLkcygefXdqNpq07qM7t2NJuUm35QhWZ5puxZn6v4p7lvr3jo7MaiNfaetk1TV2mU1qomozFuBBpEpVa5JXYN78qxOLrYR+VqXXXLD9YR0I+1h0S5i9GkGxSeMACPACDACjAAjEBoairY2zSvAXgUlKCioV/sL5M6YeAvk1eW5MQKMACPACAQYAtVo2qpNYRk+lYg3ZZq1aBZkk00pkPamRPeIt6kqiy41GaTV5vUZETUNsZulRAN7V+OD3XI8tvqNOLACmK7KOOrIIqrtLswgvlv4vKVSwgaNKLnYbkOLFi6NhKcnofZMpXKyg2U6DUaZSKGKmQc5GYLOZbS11hGDLzx3qfFa0RqmqSZPLqEql1xt7Ls6NOTlOcg83TCdTo0SU6QtQ8SOPDSRFR9tugQUlBzDnjHWSSEXMAKMACPACDACjEBPERg5cmSfEm/UP2++QYCJN9/gyFoYAUaAEWAEGIFeQCABUQXrEKH2wotWkTHRWZhenKYdRx0RNDu0ZS7OQtPSVBkzHUJGGU3D1P3C86ynEtnUlc+hiyyijmG5cZSAiLxlGK+Ej1O30LgyRiNiWT7C1fX241qce6kATdVqa8A6tFbbBRwHZF23GIhaRmRoHRoKSMggxlwClZH7azTC1BlL9eSaQ7OTm6k97ptaxpPjxDwkrktzuM46tY1B1LpiRMnl+vVGzFLc85YSpE8WEp+1Am1cQAMrTaeu3Choc3CTbkizCCPACDACjAAjMPARiIqKwsWLF3Ht2rVenwxZu8Vo7pV6fQgB1SETbwG1nDwZRoARYAQYgYBHIIaySrqepRNB4lrUqaZtwwo0LZXdIlPXIDFjG6q2Gmc0FRZWiqUdWT8ZxQRz6sGsy77pJOBlQZ2UiVMft41cG9NSMa4LvJQOw1JTDUlHIAYtLxVAk3SCsn4uXKiZS+jUhYjIIG1WNOdlojkhQSKgTEoPqn3VVjQ8tlWb4ICqFy5zZJRViSuHbfXkqklne2VST6nxbh9qgJddU1d1JNRdvaKIXFl1VppKFe8ZAUaAEWAEGAFGwDUCQ4cOxR133IG6ujo0NRnlenfdtic1ZOlGpFt4uOOV5Pm338a106cxMSurJ6oHbVsm3gbt0vPEGQFGgBFgBBgBPQLVaFixERGyy+e4pbkI3yZbMCVmIBzkuqlzY9WrSExEeHW11urJLjMV4TIJ1nZCZTJGWU3nGab+lFrWb0T1Bm1sO1FhlXS05Odif77kDvmAYZZP+wB8cxCdigRdP2FZa5AgtEvZQ5uqZB9XdUIGRCOcjN1cuL+GT1WbMuqGWpWPqsfyEZ6Ygah5cN+NVKemt07DM/IQNcfI1FA3gtqXUJVfBU/ldVr4lBFgBBgBRoARCEgEiHyLj48Xf305QSLdjj79NOp/9jNE/+QnTMB5uBiDnnijD1Djr36FzvZ2mF980UP4WJwRYAQYAUaAEehNBKrR8NhdGkup8Ly3cHeWzGZRrLTMHQiVs1RSTDURh8vdGG80leodaKrPkiyvotMwLqFAxEmLWLYGCalrhItkw+pMpwQOUkw2KXC+lEDAGZewrCzZqkxO3JBQi1aQpVk0xilzcG4G1J1A01aDBAlGspqyajRvWO00VmAqxq/JcsRSc5GUQlFFySmMPEaV+i735liNJd24OQsBF3NpOUHkI61lPVrrdZaN5Bq6zEFkJRZo3XRDNZxdDKLy8zFePzCZ5NIXkwVd9eKXjJMvOAt3UaIiXKemaTLVum4kZ6XwVN61Qq5hBBgBRoARYAQYAT8h0F5XZyfgIv/t3wQBFzR8uJ96Cxy1g5Z4Uwi3L156SZBubDIZOB9qngkjwAgwAoMagYR59iynYVmbcQ8WY3+BB4jYqtBcVi9n1pQttKozMF5xK0UdWrcB0PI+IJdMxQVWYymn7rpeiWsmZ9isysf+xScQtWwOImL8k+2yZetWtKjHQMeUKEBdFp2KqKUxaN6wwnWWTmstmveqGwHqTKKt9XvRJoz2tNlDI+bYgZMapy5FVOI2NBhZDlolIhIbN6ApbY09vppoaI7FuFSdLu1wVGfRCEul+HH6TSa59MV07tJK0UiYyxiBwEXg8kcfiWcDmuGo++6D8kDpq/KGdevs+qNWrLDr76vyk/n5uHHxoljQKXl5CBk9WhxzeWDgcOQb37Cv7+1//at9fftDeeLmzRg6caL4vFUtXizcGOmEy08LTPobDmPmzRPjUv4RAWf93veEBRwRcLctW2b/PlNkeO9AYNARb3rCzQGF89HFPXvshaNnz7Yf94dyf9wI+OqGgvVIjL+vcOirGzFX/fKNWGDciLlaR7oR422AI1BdgP2rYyG5XNZDcunU0EzdTtBheQWETk3QxjeTs51G6LS07ChDq2LRprKU04qV4WjmDiBBZRlF8c5yt6K14CASZMM9bRsfnyXm4R6dm6joIToa49ZsxgNL640JOHL1zNWORZ1JtG1DHqq26txwddlLpdbRiFq2UMxZq43IrxNoq9+IhgIrxulyZDjJ9rRAZ4nXU3VdttdYFE7F+KVZXcfd81S+y865khHwDAEiAOiBkrZZtbUYLgcX91X5l4WFdv304l/R31flpwoKNONRiDcul+73BjoOVw8etK8vEazK+vaHcvI4UzZ6blKuOy6Xvn/6Gw63uHj5R/zK8WefFV6ERO4ST8GbMwKDhnjrjnA7vXEj6E/9A0s+zMoXQH8u99WNAOuR/HT6Gw59dSPmqt+BfgPC4+/6RpJuxHjrvwiE5hY73EqNhhmdhbsPqIPeEpl0AIlY7Gz1ZdBeShBAxIjWskpttdW8m8zdDLaqfDTszUKCaBqNiHkJaFDinCniTuNTKjzbS+61QPPGDWjY4UbcOVJvSkRE7jok6FxaKWOrJiGFnYDbi4YNL6HBVWKAxETNoEOX5iNxDlnBxaBtQ6ZEwrlKluDK6o2yoj4mjXWcRjvlbHC2uFOLqK3vhKvq3jpn19FaR2pQTTy5eq2Vnlqvb45r0bxtm5xsIhFhRLx1qdhT+S6VcSUjwAgwAowAI8AI+BGBiMxMEfdtxF13+bGXga16UBBvRLodSktDa7UqkPPAXjcePSPACDACjAAj4HME2mLnICFLS7q1gVxXla7k2GzKqW7ftHsvIL8RDUubh/AClWWbTrbnpxQXbg3GxQIfdJNRNTyjANOXGriyKtlYEzOQuG6N1gqL3E/XxADWTOEWGpH3lhNpp55DWLRDfxtVmDKQqLasq9+LZigZVqMRtS4XzZly4gq1IlfHBhZ3alG19R1Qh4a8PNcJGCjmX5rKvLDuhItkGOoe+JgRGBwIkLWGYoWmuJnSzH1VPjk31+76p1gfkX4ulz5fjINvcSB3RcVySnHrpB64XMKZcXAfByMuhQk3CT93/g8K4o2+ZGZWVQmLNsrCoVixdQeQr35gWY+ENOPgHQ58AyLhxjj0Dg50A3Lg/vulzvj/4EOgthatqZTsQNn2oiU2zWGdJLuZKrVO+2270bwmVZKPzkLUwgJUqXMiaFwIta3Dlq6REjpoiw3PQmMdpFGrxorLQJxIJgPSrVUh3ahJFVmabYUg6NY45t+6cYU9Fpsg0wzUuyqKyF/jwA1AM7miIl92AaYcClm4O/8EDuTJlmCuFPmjPGEeIhwQQo2hP7pjnYzAQEKAfgeNNl+VUxw1o43LJVQYB9/iQM9fRhuXS6gwDu7joOZQKAwXZTZVh+My+pxxmQMBk81m0wUkcVQG6hG5lOoJOIqxMP2VVwJ1yjwvRoARYATcRmCvySRkg++80+02LOgfBIQVk2JtJjKWemAhpR6SKRFRxZsdxNbe1XYrMXUfzatXA2skwoiSBTSs2I3xmx0EkpStVLptULeDC31KuV22iznYZSjD5t15aFO71ar0k8uoei7KmDTZXe1zr0fD6hVo2AZEyJleyQ2zeXUXSRRIf/46RMWU4YDKIs1Yv70jtNZvRNOGE1IG1TlLkZCqYrZU83bMU26rqrNr083Rnp3WLuB8oNUrYdjk4hZPO5d6NCyWrPqctXpfoumjfiOqV+yQXV/NGLdORbLKa+upvPcj45aMgDMCNw8dEoWpLq4Z5xZcwggwAozA4EKAOJQzmzYx4eblsg8Kizc9NkSy0Z8RAaeX5XNGgBFgBBgBRqBfIBCdhenF3kfcVzKOdj2XbahabAWU2GyJGQirr8e46Gigfi/OKSHCEjMwXgqL6aTO4W5aj2aVNZoQ9DbGW+ocRGVAIrWmznEQiKhHixXQkDaaEUUjas1mRFHChLIyNCMWLbt3oxVmRGSYNZLqk9bdG0DBKUIXLkQoVVitaNqxAtU7IMijFhkfNdnVtqEADdsSVASforEeDSschGlT3mo0H3CQmcLy7UCaX8gvZQSavSlDzlgrl9aXodnfkTiis5CwWR17UDMi5xNP5Z01cAkjwAgwAowAI8AI+BCBW594QnAoPlQ5qFQNSuJNWWE1Aac2nVTqec8IMAKMACPACPQnBDRJAPw1MIV0I/2UcfSxrWigxAQL5yFq8wF0mx9120s4YM1DS1XPDOrVmVUBiremmP6pJ16H1mqgxUwZwBwWZq176xGmtjijhAlZEvEzzkVWLrVW/TFZ1TVttaFJX6E5T9BY4ilVzat11mSUQGH1HIfLqRCMRjjxgFVKK//tw3OX6lxgHaSg/3plzYwAI8AIMAKMACMwkBFQx7wcyPPoq7EH9VXH/alfIuBifvrT/jQkHgsjwAgwAowAI9B/ELBVoWnbDjTVGw9JEyPMVtUF6VaP5r17Df9a9bopXpxxd/bS1o0vSQkEVLLCLTP3MXyweCOa9TrtLT056DqhhENTNRpWbJSs8uRCGkvVVgMCcmsuPli91yG7d7WxnEO5z45adpQ5+oW7c+t595Q9VvlzR5siS3veGAFGgBFgBBgBRoARGMgIDGqLt4G8cDx2RoARYAQYgUGGgCZOlqdz18XV8rQ5yduq0Ko1LBNaRJKCfDdNterL0JBnbGEl3DYdRmsAWYYtBqKWLUWEk1trHZo2vISGrXK/tq04t3cNQmsXY78yFsoC+lg+whMzMG7eHITH6iYdEyO5keqKnU7LdrvODqoXrsrH/tWxwpqt27hsW3Ox35qHe9bFoiFvm16T/85pjItPIHHzGmB1F5lPezyCOtjJ1LoyHFXWXY6hZ7Smnsn3eICsgBFgBBgBRoARYAQYgV5BYFAmV+gVZLkTRoARYAQGKAKcXKEfLZwpEeF2387qLizJvB8zEVOhcrizNuu2rvtQjUeJc+Z9z7qWdt3+maeuN5+cusIuPDERPcUnPCPDQQxat6GpG9dd9VgAK9q2VaOlq0DxiYkIr+5GxicosRJGoP8jwMkV+v8a8QgZAUaAERjICDDxNpBXj8fOCDACjIAfEPg4NhYU9zIoPh6mUBFa3g+9sEpGgBFgBBgBRqAfIGCz4ebhw0BnJziraT9YDx4CI8AIMAIBiADHeAvAReUpMQKMACPQEwRG3Xef1LytrSdquC0jwAgwAowAI9DvEbC1twvSbcRdd/X7sfIAGQFGgBFgBAYmAky8Dcx141EzAowAI+A3BEbOmiXpbm31Wx+smBFgBBgBRoAR6A8I2OTfOibe+sNq8BgYAUaAEQhMBJh4C8x15VkxAowAI+A1AsrDR+eFC7B1dHithxsyAowAI8AIMAL9GgGKg3junBii/aVTvx4wD44RYAQYAUZgICLAxNtAXDUeMyPACDACfkRg9OzZuPWJJ4Trja2hwY89sWpGgBFgBBgBRqDvELCdPi1eMIUlJGBiVlbfDYR7ZgQYAUaAEQhoBDi5QkAvL0+OEWAEGAHvELhx8SL2JSbi2unTMI0ejaApU4DgYO+UcStGgBFgBBgBRqA/IWCzgW2yWWoAACAASURBVEi3zrNnxaju/vBD2OOb9qdx8lgYAUaAEWAEAgIBtngLiGXkSTACjAAj4FsEQkaPRuLmzaC97eJF3Kyuhu38edg44YJvgWZtjAAjwAgwAr2GAIVPoN+0zqNH7aTbtBdeYNKt11aAO2IEGAFGYHAiwBZvg3PdedaMACPACLiFAFm8HX36aZx/+2235FmIEWAEGAFGgBHolwiYTADFdJM3ci+d/sorTLopgPCeEWAEGAFGwG8IMPHmN2hZMSPACDACgYPA6Y0bcWHHDlw9eBCt1dWBMzGeCSPACDACjMCgQWB4TAwogdAtqam4bdkyBA0fPmjmzhNlBBgBRoAR6DsEmHjrO+y5Z0aAEWAEGAFGgBFgBBgBRoARYAQYAUaAEWAEGIEARoBjvAXw4vLUGAFGgBFgBBgBRoARYAQYAUaAEWAEGAFGgBFgBPoOASbe+g577pkRYAQYAUaAEWAEGAFGgBFgBBgBRoARYAQYAUYggBFg4i2AF5enxggwAowAI8AIMAKMACPACDACjAAjwAgwAowAI9B3CDDx1nfYc8+MACPACDACjAAjwAgwAowAI8AIMAKMACPACDACAYwAE28BvLg8NUaAEWAEGAFGgBFgBBgBRoARYAQYAUaAEWAEGIG+QyCk77rmnhkBRoARYAQYAUaAEWAEGAFGgBFgBBiBwETgwoULqK+vR0NjI1quXsWNm8DNTmmuwUFASLBj3lznO1zCw0dg+vTpmD493gEwHzECfYgAE299CD53zQgwAowAI8AIMAKMwEBEgB8mHavm64dlfmB0YMtHxgjw9efAxZfXH117kyZNQmxsDCIiIhydeHl09WoLXnn1dZw5fRqNJ0/jzNkm3Lx500tt3MwTBG6bNAEdHdcwbVosVizPxdixYzxpzrKMgM8RMNlsNpvPtbJCRoARYAQYAUaAEWAEGIGARIAeJos2bOSHST+trr8eGA8fPgyrtQbt7W1i5NdvAp2y5c3QEBNMJscjAddJi9sdLsOGDcGkSbchKioSU6ZM8dMnQquWrz8tHr48o2tv3LjRGDtmLHL/eVmPyJrz5y/g+z9YjtOnz/pyiKzLCwQmThiP72UvQWrqQ1605iaMgG8QYOLNNziyFkaAEWAEGAFGgBFgBAIeAX6Y7N0l9sUDI63ZuvUFOHv2LK5du44vvjzTu5MI4N5uHT8O48aNwZ0zEpE2O9Xvbm18/fXeh2nEiHD81+/WIyrKc0KVLBLf+NOb+NOb23pvwNyTSwSCg4PxnccXYO6chzF16lSXclzBCPgTAU6u4E90WTcjwAgwAowAI8AIMAIBggA9TP5py5s+s+AYM2Y0vpn5dTyQcl+AIOT7aZxrOo+jx47hxIkTXik/cOAglub8AJ/s24+6+pNMunmFoutGZ881o6q6Bm/8eRv++dnnUFl11LVwD2t8ff31cDgB35wsC9/Y8qZX115VVTWOHjse8BgNlAmSe++e9z7GkcrKgTJkHmcAIsAx3gJwUXlK/QeBlpYW1DecRE3NCVy6dJEDqMpL48t4HMpqKzpHhIdj0sTxGDPmFsTFxWHo0KGKiMs9r5METVdBfsOGD0VY2HBMnRrrNq4uAeeKAYtAe3s7qqurRZDo8xeu2ucxbIj9UBx0XHecc50DC09woVhDkydPhtkch1GjRjmU9OGRLx8m483TkPOPWUiYbkZwcBD+/Jet+NOf/wp62OXNgYDywDhp0kSPLTXIwu2zzz7D5cuOa9WhmY98jcC1a9eQ/7tC/Gz1chEnzNf6fXn9+Xpsgarv4KEjSEyI8/jaO3PmDJPc/exD0dR8Hlev8HdhP1uWQTUcJt4G1XLzZHsLASJydu58B5XVx/DO7g96q1vuR0Zg3NgxuOuORJjjYvHww2m49dZbDbHhdTKExbAwLCwU48aORnxcrMB13rxHMGaMd4Fq6eGkpqYGLa3tqK8/iastLegujg7HHpKWpbu4SyHBQ5CUNB0jR4QJ0mb48OGG6+lN4cmTJ/H++x/gqPUEjllrOUi0NyB60IZiDdFLhHvuSsa3v/24Wy8RPFDvlaivHiYfetCC7+U8jbNnm/CjVT/HtKkx+LsnFwkS7g///T84dqzGq/EFaiNvHxiPHj2Gj/Yd5GDuvfjBuHr1Cvbt+xQZGQt93quvrj+fDyyAFVIyBMpE6ulGcRSbz1/0tBnL+xEBcrPvuO6IY+nHrlg1I2CIABNvhrBwISPgPQL0dnrHjp0oe68Cnx/2n8uB9yMM/JbN5y9g954KfH7kKGy2TixatAgU30G98Tqp0ej+uLW1DfTXePJLgWunLQjfXfzt7hvqJJqamrBr127U1Tdi398+B60Vb75H4N57ZuArdyfDYrEgOjraJx28W/Y+3t75Lr/F9wma3SuhOFz097cDh9H4xTmRla37Vv6V6OnD5PBhw7D4iW8J99K975fjlY2vi++Azz4/ghO1dcICbs3qFfjvTX/EznfK/DuZAaTd2wfGc+fO4ezZ5gE004E/VCJqWlv9Y7XZ0+tPjW5QUBCgz69nMqFTybahFh7Ex3Sv6E0eQrJuprb+2mj9Ro++BbeOj8BXZ94j3PVNJhOe/+W/i/srf/XLensfgZqCHKwXHrJJWF6Yizi3h1CD0lKrkDanpxu0q0FBwXbEx8fDuN51R/TynLyKXG81qCm1Qu4d6emuZWtqSmG1AmZzOrpUiRrU2N/JxXUj62pk2nGZ0+MMcHHVtuflTLz1HEPWwAhoEKipOY6a47VMumlQ6ZsTir3y6ut/xbx5jzplpuJ18n5NCNeN//MnPDpvrhOuXWklS7ddu3bh7XfeE7GGupLlup4h8On+z1FzvF4oIcvEnroqUkDv1zb/BbSGvPU+Am/v2I3vfudbXgX59uVoe/IwOWXybcLKbXp8HDa+uhlb//dtXL/u8Ek+9NkRrPzxWmQt+S7+z7KlSJwej43/sxmXLl325RQGla6rre38cqOXV9xbosadYfbk+lP0p6WmYH76I7h+/RpsOpLNFBSEIUOGoqR0J8r2litNBv1eHSKgL8GIGDcWkZGTQW76t9+eiKjIKYiKnAxBosoDmzXrXibe/LZINSgtWI9iX4SJS8rE8lwjMsx58NbKIhQVUXk2MgvhPlFUuh7z54uGyC6xoTBdp7tmO7bk5aECgCXfivJc1+SYpmVNAZaY5XbZJdhUaDQPK9bPnw/RuyUf1nRXhGENti+ZjzwaRHYJbE6DVHouRY5J1ufpeBUVYq8aF7JRYit0H0+NHu9OmHjzDrcB2IpZb+dF8w/r3dbegZIde5y745I+QaCtrR0HD32Oh9O0KcR5nXq2HPRwsW/f3zBv3ly3FZHVxraSd3Hqi9Nut2FB7xG4eOky9rz/Me666+4eE28UMFxPunXagM4b12EKHgrbTSLkFKtSestvAmCDKWgIbJ3XERwyDDdvdCAYQQiHCZ3eT0u0pMxQ14NMuB5M/QT+Rha7FRXliIr6zoCc7Mx778E/fX8p2ts78ItfvYD9Bz4znMeFi5dQ8B+FqKo+hqee/A7M5qn4/X+9jOqj0ntzw0Zc6BIBHa/iUo4rfIuAzdY/v5co5u03v/F1JCUmgEJtGG3h4eEYPmwIKj76FB0dHUYiXNZLCFCIj+ioSJjjpiIhIR6JCWaMGzcWo0aOdDmC5KQE/HXoUKffa5cNBlmFPuasp9M/tqUIRUQS9XSzJAnirXs1NTh2uHspI4kae0MLkszOEjXbtwjSjWqS490k3QCo2xEU1LKmIAXmPMCSvQirlueiCwM33UCsqJTxtBgNUpYuzXGQblRUkbcEBQvKYcwVqglST6wEa1CQsx6ScaH7xKhuQl2eMvHWJTxdVaoXtSs5N+rsrHdXOumDswCwm212o9dsRrraXpNZbwPA/MN619TUGvTFRX2JwMlTp5y616/TzAvnnWT8VbBvzFh/qe41vUS8nT9/zqP+iLxh0s0jyHosfPTYCVhrapGYmNAjXY0Nzt9rV68FY3rivdixuxz33pOIxlNncOPmTURPmYjLV1sxYthQVB1vxH1fuROl736E+2d/FVMrrfj2iQa0hygknXfDGhkUgo/GDME7kbd4p2CAtZKsaHpKV/b+pIcNG4qMr6fjye8+Lsi2lwpfwdlzTV0OhFzdyMLv+PFaZD+zBGvXrMSmVzcLN2e1hVyXSgKwsqcPjGpIiIBZsTwXD6TM8ih2IJHvH360DwW/LwJZwfJmjMC1G/0zjtSQISEYMmQILl265JJUu3HjBoYMHYKQkGAw72a8vu6Uunu9zkhOwsNpD+J/S3aK7zzSTbFZH//mQqQ+lILIKbdh2LBhIDdSd7a4uKkYO3Z0zzNPT3sKrxY+jqiKFzB7tcrtf+5K7FkxCw1v5OKpl53vC9RjfGTNVjxnoZKP8Yu5z2OnupKOZV36YjovX/cCsOJZRL6Ri5/j/+IPTwCbc76Hwv6UKNZigZie0QQMyypQ4YK0I9dN40330qmmBq4kyfeSSLDSHBNkQzdZZQXyzCbk2TuwIN9ajniF8YIFh4tzkFNsF9AcJC0vVBFcNdi+xTGJ7EzJjM4q66ooAo4R8abRYHxSmpOCtYcr7OQfkWkpW2TZ5EXYJLvVkpx9PpZsWCqKQK3yzCmA1Zh8cxCknlgJWlFZVCRb6blLjBrPzVUpE2+ukHGj3LGobgh3JaJivV3rpA9OPIoVs82u9FGdMNd0sNfMehMovcN6t7YZv0WkEYTYOjHixk3485aMLEHag4LQpotp1t1HJpDrhxg84+vX6Ue1Xd9A+BKfbwYA8eYNHpTdV7/d7ATarknWUUrdtRsAbpoQMsQmDKeo1uie8yZMGH+tBROut4CaeLKRziCTCedGjkLHkO4z33qiu7/Jnr/gnwDPnZ02fNl0CYkJ03DhSptItkEPB2eaLiM4yISgEUMREz0ZjaebceeMBJxuOIOZD6dg9qZfARRfqAdbMEy4+uFHeOeNP/VACzf1FAF3HyZJ78SJt+LJxd9Gyv1fRfFbJXjt9S24Qemn3dysNSfw0zW/wlN/9x08veS7mDo1Bn/+y1v4gi1m3UQQImmNkXDGwkfFw37N8RMeZZEdMSJckAG1dQ3CXdhIN5f5DwFPrj+jUVCsMndiuHXe7PQqrplRn85lsch5pQCLG2VCh8iXJxvxj0+/KseDUrWQiZnydRlYuUsud0UIqZr5+rCnuHc1HnIb/cZjC5A2+wFs+XMx/l/xdowePUp87xFB7uk2aeIEkFv/6dNnPW2qkTen3Y8onMLmTUS6peH5Xc8iRSUR9UQB9jwhFRiScHNXyqQbycxC6lxgp7KGip5dz2N2rUTwNdIaq493peH5FYpgf9xbkL/JmPRxOdqaAqTILpoamdIcmO3MkqZGd1KE+WbJdVRXIU49chdFKYrtqipQUeQgwPS6s9X+reSeqvBulnwsFwybWlcy3Dee0xOR6vNFZEeHghSz5IZKgyKX1fJcxJUCJoGXRL5VlmxCofsmdvrp9eo5E2++gtuHrLcyJAqKXaFQ45YkGFiJKqIu98x6Aw4ys3dYbyOSR1mgCW0d+M6XX6LD1uk38m1kUDD2h4XhnYkTlG55b4CAfp0uXPDMestAJRd1g4AJjnhOimjbdRsaLwyFrfOGINda2k2YOOYm4idfw5H6oejsNKH9OkDP60N0v1iXbwIpEWF4evxQtMIzIoeIt6FBQXix3YZafzLhykT7cE8ZY/2xdXbexKeHqvHgzATU1J3CrRFjEBwcBHIXvNZxHW0dHYiePAFHjtXhzuQ4HK9txPXhQzEscarsitqzUQ2p70+vvns2l0BrTXHcfpj3fcTHx+GPm9/0mqRpaW3Fi0Wv4GpLK5Y+/SRmJCfihYKXcKSy2jPIFMsKYb1RJz344035YV96qCTLCpcWHKL9lP5ncdENCups0GrRuKmx4vT3/7VBhGJQ13V1fNedM5D/788jKXE66Fi9kTUcxbelfc83iZxJKZfXRCFbjBQ3KusICAubSMe5Im5+5kX84YnJgN56RxHw8b6H7xV8PJp+pm7ud7E4EkCkBY+gDrFPzgIiZ+HHz7zv+voDYF9DZTqWZ7Fn17Py2akBd20q03hn1x5xzTz+rQxh4Xuith6f/u0AaJ8w3ZsnP+COGbfj078dVLrwYp+GLPl6qV2yFXtksy5ngk3+7tT3oHzfimuzEVlE2q14ETm1/cxiTT9uT8+tLog0Qz3ZKLEmGdb4utC8vAQlScVYm0eWYcRXlWBVvK6X7WsdFnBGHEaFMRGndjO1LFogxUerOQaHN2wR5pvsjJ7UaUUezCaHvR0gWdwtSMpGtkVx3bUgOzvZPsjDh7dgiUmKIycVWmBJrsT6nBxxmm2B7PJbgaL5ZhzOzvfQxdXeVa8e6B5jerXvAOrMh6y3gkp2CcoLzQ6mNzkecTBjeUkJMhWZrvZmT76s1Uw1s95dwdrTOhNsICOemzaKfuSfjfQH6TNV+aergNI6+l//tffmc8DxE9V7nfq+J1/EsSFKiEg32G7gcmsQYsbfwK+facL+mmE41jgS124Egaybxoyw4cuLJgQHAUOH2EQytmsXL2NK9tO4M+dxr64n6nv0T34JfBYY6+FqhV09fLuS96R8RNhwlJUfwNzUmWhoPI0b12/gK3dOx7sfHMD1pgtoa+vAA7PuQOmOcli+ZkH7Ox/ggz9sRrueRfWkUwCjgkJQOTIImBTuYUsDceWhXvUAD8hWGZHk8qKytlAeKAzUGBVp2hoJeFDWXwJ8uzPkUaNGor7xJEaMHIFz3biWqvVRLLuY6EjhatVp60R9faPIpmytOY6m5vM4c+YcRo4coW7S/TGt74pZAK2vcJmSSCdq+PCarfiDBcJt6ucqbyqt0ljkEDkAYPGqp/CukWWOtkG/P/v8SJUYo7fuopRFkf70W0PjSfxz3oqeJ8RQyJknCvAqiHx7FU/NfVXfnfF5Y6PWcmraU/gxkQi0WRYhZ1qZ393V9C/2jAfaN6X+eQ3j5lyUa1Htevh0LkAWcE/8X+SUOYgZh5sikLJiK7AuA7Pnyt/LdtLczX77sdjlK1ewbfsOnDl7Dr/+5U9x7z134aOPPwWF5uiOeCPX+y9Pn0FDw0kcPXYcKZavijZ33pEM+i6lEAXebOZnFiGF1mg1kEpWai4J6zKsnKv74lR+I1W/pyvnyi87Cl8EVO6i6jWOWrEVSnRscfzQx/BHeo/+/jvqTJIdQ/HaPIlksmQjf1UmNBzasbWYLzITOFY6Lo7M0NbKLpzZWLQAkL4UzZCyeNagYK1itpaNkvJCJ9dQh+GOOj6c1s1U6VFNxill7uzjcguRSYkjaCjZq7B8ucRdUKQsYemmUdI1P1FRlIe1SQuQbhz0TaOpL0+YePMV+v5gvVXmnIoPdZyHaW+Z9fbVAvtGjw0mkKMp2bv5i3gT+n15Z6X8iKpvlFzBYZd1JSCXq36Qu5H0SbU7BNG49b/wSV9uKZmb4ZaYWkh52+vyQd5d7GWlLvWoO+3m2JdxbDqumxA74Tpe+9ezKP4wHD9/dSxGjb6JISE2/PzJ84ideAPr/3ILrrSZYD01FCEhNgwdPRrHNm3Cns3/gRYvLN6GBQWhOWwMMGRYNzP1rrrbNfNObZ+0cnWz2t5xHd/OSMPHnx5G1G234tqNmyjZ9RHG3BKOqMhJmBo1CWXvfYrH5qXg9V0f4ZujR2D0V5LRauQ77MHMwoOCEXr9CnDDBxkvj7+K1yoex3OWx5E191XJpUl58K94weHipBqf85t/VaWRdYa2OuDPDh78HMdP1OGnP/6/CA0d7tZ8b7llFLL+fjFmzrwbIcHS7ekXX57Gr37zOwwfPgxXrlzBhldeA5E77m9peJ7iFFEDhZBR1haPgyyqZq+mMAPSA/2PhYVVjJNblb2/yMfxh12P209dxi5SSfjq0NU16K5+cv199JE5dvHTZ84Kd1MquNrSgjf/stVe5+kBxeQjN9QHUu7D3393EX7/4sueqtDKkwsauZrtsqBB91yvFVTOHEQ5IFtCifuM9/HwqscRpRwTwVO4ErVG8aYUVQG+DwkJ6TJeGIUL8MbFsXvYHNdi+Tp1vK9aFK59EymFj2vWZufqDOyU72sc9ysxiCJruQodudp9570u4en1euRItXD7TkgwY0hICPZ9egDfzPy64bjbOzpQ+vYuIVNZeRQXL10SchTbjci6qbHRmHDreND3pzdbbBQR1ZPx3C564UAEXJmzxaFdscPaUE2kwem7khpMxuLCrUiRrYtpjSHiwMkx4OSXYMLtVFz/0gsPe1f97cC8AKtKVDTYMYeVGblFlmjMzMwwY3u3M0iOT0e6LkBa8XylWRIWpOsziFJgNoVEU+QAJeYaLEmI366Qc3IWz9L1DvfN7Eykl+YgZa30Ajp5VTkK01UJHSyLsECJXKVuZ+9KTcZZYMlOhmS3dhiH7e6rWms2Cv0koeboJzvpGJaY56NCtobLLS9BpWktkL8ISZWVUsIDe5/KQRIyl8ejeMl8FCWXuMjKehjHSkuVBgDU1nld1ama+PCQiTcfgulrVQ4GORsidmFXARWNOqcgi8x6GyHj1zJ3SB6/DsAnynXxHGT3nEfWvIg9FvnNsb0fx4+uUuT6oVSnV2ng570RQdSv10mxwDHAhd787tHEvZDxl2VdYy8JKGSQgeo+LWrtMOGh5DaEDe/Ehp0jBekWEmzDuBGdmBnfgeSp7ei4acPyovGICAfOtwPXLl9G7Pe+hfuefBSdIoumZ1Mgfnr7Cy+iwSBjouYG0pVal2+BXTUIrPKgoCBMi5qAt8s+wYQxI3HqdBPCR4QhZWYyrLUncfnyVZR//DkmjR+D9/9WiXvNUUh86F7c/i9Levzigdau/p0y4Hcveg2q0bXgdH2p3JnEtVWndPcgnt9VoIl5o9TQg8rmNxxngXTk7sPk9Rs30NHeIawu3DXAvu22ibBYvoqd75QJa4+IcWOx9B/+TmTyIwzp80ZZUT2JE0eWG5FvvInyJx5HCiwSodb4McobgRS8iZ/bg4NLD/RRUTEAnK04lM9Kd9+v/W2tr6sMXiZOmICspxYbDvHqVc+It88PV2J76TtYkP41UHD4t3e+C4oX98adM0Dx417/0198kHxBWQe6b3B1rcnToe9iQd7cj3LZosY8dyV+vKtAIl2hJkxn4bldLyJWZXljCEo/LHT3+nM1dLp+KKPwom9/A+fOSeE1Ro0aJcQvX5ZeYowePRo73ilDR4cvXIaVkTju/RwkmlIH4PireGpdpAja/9yulYARMap+uah8L/fSS9ye4q6aqcvD1rY24fb9lXvuwsRJE3DsWI2wHKUXEvotOCgI73/woVjL25MS8I3MBbjrzmRQYgXawsPDkJyc6DXxpiY9G954XUqK8PL3MLsLPl26Z3KRREEzAel63hP1AmZvisTfkRtrRYVz4gXV97D5GY2CfnQSh3QzRSJTNpUraXI8zBrvMynxgSLp9r60WAr2Tw2E95s7LR2ebOQOaoaSsUBq64j7DkiGPcX20FaCNFMZ/jj6JCs5nQspqVPLWhwJEYBS5BQRkSZZGi+XEyVoRm9va0FSPFTuqiRlRlJ2MiqdSDci2xxZU2tqSpG5irwBXXn6VSBvvp251HRPhKXrOp2oj06ZePMRkPAD621nq4mNpgCDS1QBBt0YtxJk0a6HWe9eYb2NSB43lqt/iuiIhdoG+gJ1EG3Sw0j/HHp3o9Kv03X1E0p3jf1dTzehGrca5W1+Fzc1du+p3iMEPI1j093NK+UDOX8lCKcvBCN8uA23jb2JZQsuY/L467jSGoSUpHY8/egl/O6tW2CzBWFIWBjOlFfg6KnP0O6FxVuIyYSWL5oNV1PceBrWOGLNNDTYWRjD4MNKcycyxx3rUaWxD/b++mjbOjtx/uIVQXk2nrmA+NjbEDpsGOpPnkHkrWPRcKYZ167fwJfNlzDzjuk41PglrK+9hY9f/COu9tDibVRQMKrJ1XRimNcIWY0eJJwsLHTq5yrn72OlfI0q34PqjGtUZkxxKO093/szwLfno+m+Bbk6ebIFBwWjvb1dxCY6JLt/P5aRjjGjR+PiRcmiw1OdtMZPUWBwEQS8AivnPi+GROuT8oSajKFiJZC4J6Pu37KdqkS4RIzl/XCl4YA9jct26tSXIvPs+IgIQbz90/eXCmsdcm0bOjQcv/7lT3Dw4GG8+detXgV5d7z4kO43hDub/YWUi9/BuSsRhZNopJhUkW/iF+VTnDMyyrMX+pekoVCdrdEQGe8K++uLPUqs8If/fg2HPjuC73w7E+PHj8NvXvhPMcmnn3oCTU3nkf+7Qnzy6QGv3RSNEHtkjSMwv/Pvob7FLDy3Jg079Wuz63VsfnIWFkfS+r+OWLJe1DcdwOeU+IKs3Mhq1DxtKvbs/QDVR62Y9dWvOM2KMtM++4PvCUvg8eMjRP3ly1fw5ZenMeHWW4U7/h0zksRLDKfGbhXI7vWNb+Lndd/F8880IvIJ2XLYqL0gQDMw26jOqUwh1AFMS0Nj4ymUiwQOToJaK7uKF3ziIu7b39Euns2L5kOTB4ESA2xynmN3JaWODAjA4WOogd7izUCDnayzYBGZq+kM7eJyy2GNL8D6YkjJEewGYbJbaRxZ8gHHiishWf7oCDZVlw4jIfLkl2O+qeq7PLRW2om5BWbo6EFVhlGNEguSMoHi9ZVIylyO+OL5UsZTSio5ABIsMPGmWcyenPia9S62ZxuR2GgHn+7ZKJn1duDVFbPdVZ1DAx+5h4A625F7Lfwr5Q5BZP5agX8HodIe48Y3r+PBQ9UQ9KZ+K55TFzm98e09QsCXcWyGD7Vh39FhyJp7Gen3tqL00zCcuRiM/9w2CpPH3sCUiBvYdTAUH1UPR0t7EIYNsaGz4wZCJ07ALXfEIcwLIicEJoRc3ge0dagRlY8VstNBNBsIqYqkm0l6oP8xfi2CREuEzGR7jDB10R26kwAAIABJREFUnaqh3w/VD9/edmZ0s9ppA8YMG4JL5zvw8EMzUVN3EjXHGzF6ZDiuXGnF2KFDcHlICB6adSf+tPVdjB03GkNGj0J47G0IMnmWDEM/bnI1He4DV1Pj60yKKaSxLHW6zvQj4vOeIkAPnvRASYkZLl26BMqaGxYWhhs3PM1ZrB+J6kFPrjIkXfXN+tm50TXoyRDJqu3goc89adKt7PbSnXg47QHETZMsbZQGdE5/j86bg6f+4fseW7/Ri49akRBB0Qg8skR68FcscOja/bsGR0KMRx6S4vg1YJawRK0t+xANhaoA/BVvYnPk/UD5SSwWLxDd8mF1DMCDI/2LPQ+a+l2UrqcvTp8RiU9e2fQ6du3eK/ocM/oW/EPWk6Ku59ecdhqaF1mK5Zr6xa5CqtrL6Pd3q5SEAdL38fMxbyJSuJlK1lFSiHVtP/3pzJvrleK6EQl+99134N097+PwkWpD4o3mOXbsGBHb7ZN9+0EWqJ99Xinivf1s9b/hoQctMMdNE5ZvLS2tnsOicsf/wwqKc/q86mWwbL1oXyuVemUdVUXOh6p7quNlWPm06jq0Wz5uxasxdG13bWXnrDvASkpzJFJJmZZIUrAF+daus6k6LNoqkLckBVuURI0owvyUwyAjQ+FSWigpVstXWgHExSE9PVfj8lq6Xp3oQBkQEJe7Cdb49Vgy/7BE8jmquj1y9LsF69crDrMV2LK+APHLFRdeC7LzVyEz/hjWzpfHcKwSRUVFsCQtxyrDXuKQu8kKCm3nvFmx3jxftiKkhBfLXdjKeWmh6NyhpsSNxz+NPJ+4RMDHrLcq1ndRcSkK09OxYFWJNqAiVB9CJ19ystKMA0rXyx8uZr1dLp2PK7oieWydNnReuwYKGu2vGG+dQcGwDfM8BbkhDIo5P1U20htkQymnwv7mjmNEEOnXqf5472U1jZnuBJlTgfpGVU/gOAkHQEHoUBsOnBiGtz4cid8+cx4hwUDZoVDUnw3BD/8wDndNvY5T54NQfXKoIN1oyrabNzFs9BiMmBqLG164mgaZTAj5m+rLVoOjHEsGJ1GrS54pxT8BGusoNpR6kzKBRaEAz9dlYKO6au5KKasevotHXlbHt1ELDaxj4jqPnz2PBY+kYNd7nyJ+WiRGJk3DjfYOJCVOw6eHjuKumNvw52178J3H5uD1v+zEiL/PQPLPf9DjKJe+cDUltNXXmUC/O4s3+xLFSJkx6UFQ3ih2jbDA8OC7Umk7UPbePEy6OzcKLn7iRB2+vuAR3DfrK7h+/QauXLmKqmorpkyZ5K4aZznlQd+5RlOicYFz0Ub/Uqm//dZpJkSZm3UZjVMfSsH3sp/Wi4lzeuhf8/x6wzpXhZSc4eln/hlkdUMZjdXb49/IAGVqfDjtwR7FjxM6pz0luaThFMrL6Hs3DakWIMqiDchPcaVExkw8jh8v+Vg0pXXd+5DuhZV6oAPo2BfXX0hwMJ79QQ7q6hvw1la7qQu2bntbrBXV/XD5atzwMjB/d3CaY6YIEY3FeGyk7BKstK5FbSNlPlXOVXtxX6qcK1arKjJHqfLh3he4uzOcs+eaUFffiJlfuVu46R+z1oASKNALCdqamprx8b79+PTTAzh6rAYXLl5EW1u7qIuKnILMjPmIjpZAmzRxAqbGxghSzp2+1TLKGomENHIyGek+FNico7gtRkrkaOMLmK2zTnT1vajoUPfl6uWX/rtWPRZ1+7491hE81u1YopBD2SWwLgfWL5mPw4tKsGkBWap58IK/pgAp81WunRaLcMkV7pFmE7bkW13ENNMhos9OKp878oeq4sEBUDgHnRaYk4RPsL4YNTVWWJGJVSWZgLUUpUTciU0dS41CE5RqOQwzxbyTt4oKOUOpdF5RtAXHlhtTakqTbvcUbstQyD5AqdalnGHjHhcy8dZjCP2kIDkThauAIrroiuYjJ9MmyDf9h8geUjE5Hun6aIzCMlR5qGTW23ml/MN6G5E8St9BQ4dg2K3jYfIj8TYsKNj+I6306/Ve90bL/Mz9bqvq72SR0zoNl25s3J6gHwVd3Yi4dNGgdXpPGVD/JQSMbl7JE+oagoTraGg4sL54DEoPhiEp8jpun3oTn9WH4MurIWg8MEQkWiBC7ppMst0cGorz1mqcQSNaOomKcX8j6SHk2tbU5H6jbiXJsgZSQPDaWIDCRckb3WA04GO8ZhS7RhHy017/8O2rbm7e7ETkxPF4Z+8+xMVOQdP5SxBlk8Zj/8FqkY3ysyPH8dV7ElG6+0Pced+duLLjfVT8sRhtIT27/fCFq6mr64zwMbzWNNdZHQqfzgC9MFYeJjav+xApK+5H+dpXUZvm/nelr9ZjIOkh65o77khGeFgoyP3tXFMzDh46jJK3d+Hxby7E0KHDxF95xccidljklNu6DAjvzty7fhjUxS4Vwf0dWpXfM1c6HJL968jXGY3Jas5oM8pcu3vPe4J4i4+bZtTEg7JY5FCCBGpRsUV2NyvDxjcWIeWJyVgsu4wqJLq4riPfxM83AT+2zBLXcopo60GXPRTVv9jroTqfNk9/dA7uvGMG/mX5SnRcc8Rxo+M/bHgVv13/PB6d9zD+t+Qdn/arKHP94kqRkPa0nlLgfVVm6ZeVzLayRXoAZTelWV+5fAXWmhMidqI5bqo4Pn36LCIjpe+ng58dxm9++3sQeUpx4FIftCAhIV5YCUdFTUF4mCP0AmWWjpsW6xXxJlkES5ZtlEym/I03EUmZgWV3T8lhvxHvlp/C4ieexfNzywyTEGlX1PhMuW7ttfJLjwHzXdsFcWNdP18ilCrmYwmsKDc2wbJPXTmoKc3BkvlFjpQJ5KZankupPmGWM5hW5JmRUlmCTZlKK9U+fhGys1XU2mE5cygcyQ+S7KyXI8GB0FBUjNLCdKcsp3Hxkr78/GTk5TkIQZqjmh9UjcJxWFGEPL0QEZNJySA+UdoqKNSftFlUY0cFivIUCzW5vpudIyMrkF1C/Ek3DdTVpTkwyWNVQnapq3t63LM73572HlDt/cB6py9HvqVIZB5RGOgacdEBlmwKYKiYYUpAUoDB9UvWoih5FWxGnzJmvXWfuN5nvcfdfQceXmMcY0U3uB6ddrxfjtJ874OO96jzLhrbH3R1hF4XTQZllf1GRLG60Lm5STjq3vDOVX69eo8Q8EUcm+HXryHq/Fl0dt4E8WkUiP38fhM+OgSQFVw0MXPEkikmoip+7eLFK5iauRjTnnkcHe2OBwi3PjQmYOiQIQj7zw1AzQnnJtMi5ZftBu69srREzkjr8G7ai7JFm1SZUjjLHn+G5MSDH+BwFe7Fa8DXD98KWJMnRmByTCJqG08hIS5KEG9EoowbewtGhodiyJAQtHVcw7TYySDrwqlJcZg2IhThX55xso5RdLq7DzOFYFgnkQDGRIA7euzXmUpYIVg01k+qetivM3Wh+lgiAt6leJg+3rqLkejj7vymjjImUnD3R76Who6ODtwyapRwRfzf0p2YfNskjBkzGu1tHbhl9CjcP2smyvZ+ICwkyRXVJ9tAe7DzyaQlJXvfKwf9kXUMuapR3Dc1mUaZT+lcXabunjKXutpIH21kBUfbsWPHRZwws1nrhioqPfqnsn5SW+ErOiyLkDOtzGX8p76weHN6saeMtY/3lLDk75/8Dv761v9i/wFnt2Mq+2vxNiHz4UefolleS58Ne+5KPEe3Ko1vYuMuZ60aKziySH7vYzxncWS2dHw/50L6ir0fP971uMtYfs499O+STpsNlZXVgni7684ZeGPL/0NtfYOdeJtxeyLyfrAMt02aCEqqEBYW2uWEiHzzZpPuMSmWXgboiUWcy9lNydpU2awv/xqbUwqw+KE0YJfDZdTJWk1pIPanNGe9feLr39GaGlUoKN1jpXm5FfkwI6/IQjkK3NuKc7CkSEW6IRsl5bmS9ZaIzeYg5SqK1mJ7kpqkkrqIS8/VkE01BYdRJFitZKwqLNSSavYEB8rwirC2YDnSc3WmPuYkZOcvR278euQpoj3cx+UWgvhEsZGFn5lcSS3I31SI3LhSKO7kluxsJEOdJbWHHfdhcybefAm+z1nvOCxYZEEeXSwioKIZ27dIdHDF4UVOI3cw62tRsDwd4pph1tvOxPcH1tsUEoIhBhmKnBazhwUhoV3/GPdQvcvminm6cMGTrX3UliP0Bmv26lpgbhoeoZsql5p8W+EWQdR+3bed9lCbnaQkPZGPI2tNJFIss0AYviZ0S2nZo9ZluPmm0feEgC/i2NweMxHLsx5D+zUt/sozdleh20iG3JtOvv8eyI3bk430hg4dhmuXpKDtTm2dElzoJZQYcFK5NmaUI4ObvZWOPLWXD5ADo5vVjEcfwD99/x/7bAYn394F/OZ3XvevPMQZKVB/b9nr1RZvUd/Fq7tmadyjFq94XBK1WPCwH4g3+zgG+MHYsaPx4AP3oazsfezcvQcjR4TjW99YiEfmzMbw4cNRvLUEBw5+jvDwUKz80Q8x3RyHGzd7GufNAZqIBQZAymCqdxd3yPW3I6Nr0NsxfveJb4n4a5RsgeK+fXXmPVixPFeQcaTznV17sG59gVsB9onEW/mjfxFWN9SWXOCe/+Vv0dB4UvxRPSXFoMQL3m5GJLnQJWJKkXWp9vsYKldT+4sPxZrC20EMoHbTpsUgNjpKuCmqh02B+onYfv+Dj9TFmuM971Xg6wsexdKnn8THn/xNU0cujydPfYHqoyqyQSPRxYnyIpEIHNl9UZFW7h2Vc8O9Eq6h4gVxz5PzJEl9iNfeuB/P9dDqyrC/HhZ6e72SxRu52FOWUiLejlRW48GU+4TF74QJt+Kxha7Ndyg5TUPjKVitx0Vm6D173YwPo5ur/nqzn9vXECh/TyLaFMtvtQpX1mrSb65DUnOf6ygWR4bkXX+7j9qeA7PK+kszBU1yhQoUzTcD+fkaEcOTzEKUZ0KyurJko2STliiLSy9EeQmQQjHVKNabNceACKuRXEAFEXgMxTJ3ABRhbUoR5lcAijWXUey2irwlKFigiyMXl4tCIskc3uli+OmFVuFS6zwXlVcZhcPaRNlVVVscEXs0TrnMWmmvrFyfg4LliimfBYsyl2OB2Yr1SpZUu+TAO2DizYdr5nPWWz22ikpYawDl2pEyh2ip9fTl+bAUEVtcgS3ba5CbGwdmvdUg9s6xWyRP7wzFN73Yg6V+jM1vdKUyFg+nkDn8KTTQs4xMvDlZjpA+cseqLQN0sbO60t6TOiOCSL9O0dPG96QLn7aVbkYUi7Y0PP9KJDa+R8QbQDcjzxEBMLcMEGuzFXseUrmaDjBCYEhYKEZPnYobN72Le0gWVhSE3dONiLeQoGAEDx/uadNu5GXSTcT5ogcCSq6Qi4YnC/CHXZH4RR+4mnYzYK+rr3x2FKcL/4RrNlXqxG600Up5vlrOSoeZgtBcq9yxOde7U6IlS+W3+haIB5eoyMmC5H7qZR0xo1i8NbyOp1ZLDjdGfdEDRiBl3FPm6O3DpNKe9vTwTn81J2px7Ji0hvfNuhe33TZJuJ2SFRb90UbZTENCgntGvCluo/TQuMthPQOV9RQ9KK40sMBRj3sgHruT0Zjis61euRxkzUZB2oko+9rc2Tj1xZfY+OrmLqdNbfL//Xkp0HvjSSFLyTFWr/pX5Hz/hyL4e2xMNOhPWdMuFSqVCskCYHHhStS6+t5UvyCRXb/F76fK1dRh8daIwqdfBeauHLDXpjvXX2KCGRRgf+zYsU6JSYiYuXjxIn7wf/4RP//Fv+P4CXVmbmDSpAnIeeYpkdyEXvQ9nPaQsiJiHxISgsuXL2PdrwtE5lNNZRcn9pccaktv+72l0vBjvKb7vnUQcml4foWUPOMfRTyxNERRKLNGoPblLSh/4lmkPPkUzLtehfbJSNHds707uPesB0fr2roGce0lJJgxauRIHDp0GO3tHQgNdb5XoUQMX54+A8oyfPhIFT7Zd8B+nRHZTS76w68M853lovJd6hiu9kh9PWprxJn+N9dO6BnIDuqi9EJYKUCcK4MeIt+UGymDD3xpjtludKLH0e7OSRWa5A3ZKCkB5gs3SwpPlYP4ci3pp9clncfRMA027cDMBnMxHmcFiooqkJ2pEG+U/NBsQC4adDkAiph489Ui+Zr1PlyMnJy1OFzkeEV3bPsW2d9bTpSg/3mJW4BFljzhI12xZTtqcsk0lVlvXy2xu3qMSB532/Y7OXowoQdRslR7uVbEMhIPk2krsadQfoBpfBPvEoE27UGkiBuhD6Vz2Ro9MiYWgOrhVQTRnQykxaLwuKq8lyevXyfrO4q9s/8H8rX0PV12Yr8ZoQdFBeeHpEDR9DYzSnlgpLd/czOkb4I+IAQ8jWNjdPPa0ngSR/L/A9c6vSPeugSyi0ryWB0aFITW6xQQXOW/qrhVKJ67LnQ0vPEC9O+S9Q8XjpiItSIeWO2arcLVNNVtK0UXnXtY7M7Dt4cqhfjlquM489kXuGLznTWSu+MYYQrG+eBrwDB3W7iWs68bxeF7Q86SKN7sF2DPEwoBrm1v+DZeK+LzM6MYiT7vpBcUXrt2XbiY3jHjdpFMYejQIZg44VaRzY8eNGenPoBQ2Wqb3BdJ3tvNyaJC/eCvKLWvtRRLai8F4ndx/Ruuu5FORXcf77vLaPzoIw8jNjZakG7rf/t7bC/ZCXIFLvyvf8ffP7lIWBRT3EZlo3WiLS4uFllPLba7rL5b9r49McPyf/knLJj/CFav/Fe7BZ0+8YKiz9WerBKVa1GsoT6bt75hF2ugtnhzfB4+dkqao1fZk3P9i72e6PK07YzkJIwaNQpNTU0wcs+msujoKMRERzkRbwnxcUhImI4zZ84Ia7nWVueMmBEREcJC8pNPD7g9ND3hIhp2Q9I4vpc/xt5dZdgpuzJS+R6KNwag/I8S0baSXkQGyEbJFKqqjwkL0hkzEkEuv5REITR0opghuXKTVWn1UavYk+ylS5dF3bixY/BAyn1IlOO+0Wdhx87d+G1B/ws901fL5dPf0QWFsC5Y7vZU4rAdKW76acYZs1lu9eUqEYJobLEgOzkZSVivSd6QXVKI9PQae4grVFAG1CQRW86QV3NrJD4SslhgIbMiByUCi8UCZydbH/XnRzVMvPkR3B6ppk9TEdmuyVs2UOkwd8MCw6tA5ZpasQXba3IRv55ZbwVC3nuAgIhvRfEdXGRfLHses19W63MEP24of18iguro7fdkJ3ceyc1HyUym1uG/Y3cIoiH9KiiLylVRfqCgBwaKExbVuAWzRfp1JfCt1orK8MHQT9D6ArJbbr8dlp/+yE8j7F5t8c9+BXx+RCNoJz41pfqTNDz/BJVJWU+lBzoiaTJcxhoSesVD/la8GiMTPHq1fjjv7uHbnS6NblYnf2c+7uxDV9Mve+hq6ngIVwXvVsCQ3+yLhz8lWyldi3ISE4UUUMT1e8dDo75mEJ2bINyjbDqLyHNnz2H3u+9h7sOpuOsO6db50uXLKN2xC9FRkSKj38x77xamkV9+eVo8YE6bFislV9By5N2C6da1rLfi2JXRa2EQup2ASsDoGlRVe3X46Lw5oh25gb5bJn24yYrmk0/2Cys1igdmtMVNmwr6U7YPKhyuix9UfCyIN8qgShu5nNZ4+JJNvW7qY6W/rvZq+afmKsH4lRZlvbK2+hd7Su+9sSdi7cYN1y9DTCaTILmvXLniNJzW1rYu21ID0k3kkL83Q7IOgKtyf4/HU/09uV4PHPgM33hsAe5Ivh3lFZ/gd78vAr2oIKu248drRTIasvan2KmJidPxzcyv4847bkdk5BQQ+UZbR8c1fPb5EXx+pMrTobO8WwhUYMv6HDgcJN1pdNjxXO+OuKGMyj2TrodiR6IDRTxuwSqUUEw5JXPo9iVyUgaKF1eIdHs8NbmFJR/LhQczxavPxxYRa42S2eTBbNqCfHJpNeQdlB6925uXl4CSoYpx2jPCWuT+lBhvFPON+i9FjklOsrDAERuuVAkE52IIRfNNcEZIES7CfJPrWkXKl3sm3nyFps9Z7yTYM/eSj3cm7Gaj2avkIIsGY49bsAiWPCLsKpC3vhRWuxIDYWa9DUDpeZE7JE/Pe/GzBvEm0pM+FIuelYDiKrDrdWx+chYWK9ZZanX2zGTqQv8dGxFE/XudKDum8gaXCDYlOP8pbN6klKtlHNgNNELg/MGDKJszFx19YPE2LCgI50eMA4a4YTYlCDOVm5oMefk6mZxe7ebDuv4h37F0A+7o8udH8WXhFnTYvI/d5O2kfeFqqn5AdzUO54e8Msx2wyXRuZ2rHgZWuScPkzdvSJ+L4GDtrSYFEP+f1/6Esj0fCPcp8pihbH7kMhUUFISY6EiQSxttFE+KyIA77rgdJpig6BxYqPXdaF1lNH79jb/g7Z3vioFlfP1RPJz2IDIWpuNPW/4qrN/uv38m2tra8ZM167q0OCSLGooF9vDsB/FB+ccijhsd01b08qsiflxl1dG+AyDAenbn+jOyctPD0NLSIpKbzEhO1FRNmjQRV69e1ZTxCeAO7r7EibKXXr58BbNm3Yuqo8fwt/2H8NHHn4oYmJQAhRLT3PfVe3H3XTNwixw3mhKi0Hfoe+9X4NO/HUBVtVV8r17vgoT15ZgHo64KTRKE3kGgpkAh0Zz7S46X2bG4dKSriDJNUI7SHGHpZjfsUSdvIJVxuSgvqbRn9gQqUEleoyp9zj17VxIXl+7CTVWrr3J7DnIqD6sItFLkpKwF0ZhqKzhtq/55pr0b6p9jHACj8gfrHY8Fm6xYAMl3mrKZkucDZftQUgDXlBarPoQyTCp3U+Epway3/fPTW6y3EcljH8QAP+juYXKnJuaRRMYV9tM569epeflz/XSkxgSb02DdJHS6W0MnvT4sMLp5HTdjBuY990OfxP3ydKhkPPP2L36LBnceDN3EVz2GvsRaPQ5XD99qGW+Or1Qex9lDA9/V1Ju5c5vuEWhrbxexhxakfw2TJ08SDcjahjZbZydu3Lxpd4Ujy42QIUOcy4OCEBwUhOTkRDSePGXPmNl97yxBCLjKaKwkPiAZir1GBMz3sp/GNzIWgJJfkLtpwe8L8cm+/V0CSaTa1+amCve2P2/+byFLRAARBa+/8WaXbQO5sn+/2IOweIubFoPo6CmaZRgSEiLqNIV80usIjAgPF+749BLipz/+Nxw+Uo1j1hok356IePM0MR6yaKuvb8BHn3yKw4erRDIFfcy+Xh/4YOtQuEB6MumeE0UOAxtdv9klmkymulrHaXohNuUfli3gyLrMII4bxZgrAZbML0KFu3odPfj+iEg3e+itZMTHUZqGCnIMtG8WhRwRJRZYXISLsDdwdVCh8jZ0JdODcibeegCeuqk/WG+1f3dcbrlIuVtTU4D1Znrv62ojM1ErclW+4apDMOvtCrfeKacg0b2xhfVRVtPemJu/+rj4m9/4S7Wz3jmPOpcNwBJfxLE5cfJLLC/oO3r2+KkvBiDyng3Z1cO3Z1qcpQe6q6nzjPp3iVGMxP48YnKF+p8/bgERb9HRFADU+42IHIo/1t7R4b0SbmmIAFnKrPrJL/C9nKcxPd6M8+cv4u2du/HX4u2G8upCckulzKhE2lFmVNre3rEbRRv0Lp7qVoF/rH+x15szpqD6CsHtqt8xY8bgl7/Ohz7rZVpqCn70b8+iubnZVVOhm/rgzX8IzHk4FZT0RNmSb08A/TWfv4Bd7+4FuaIePXZcrNOFiy4ysyuNea9BoKe/o/GLspEtIiQkIXN5rsayTNOR0UlNKQrWF0vuqUnkCypv5iRkZ2eLEw1/pNSr93ELsEr4kaoKzVoLN1WNfJisIaLicjchv3I94pcXuhy/yJ5qXY4aNYkga6P4arR1G2NNISa7FZQUJwu9KmHRPhlJmUnIFr3JmJO4fR2ApMzlyFWZ+KUXlsN17l+pL5f/ySJw7WFRrRqJS3FPK5h48xQxV/LKh8tVvVO5d6x3XNwCJFnyiOjVbNmZqo+YwUWiEVZOmPVWkDDe+4H1bm6+gPc++PD/s/c2wFGcaZ7nX0YYfUDbfNi7koUKYRtQT8+21a0zw6hPwMDa45mxMOa6pS5vBFyw7PnQeeEUGtsQd8QEdwemTSjgCHnd5yXW3jvLUvfRtsXueeyzzxbXMk23ttUz0zt8jS0KsLgxGOwGJGFEc/G8mW/mm1mZpSpJJVWV/oqAyo/385dZWe/7z+d53uD6xvHo3/6t9dAYxyKzuqhkBKLZszNnVdNsgT0ecWx+d/UqftWT2KoiW3jkcjvvvLMAd9/1DXxpB3GWvl478Sk+f/0/4Gu4wdcnisGduANXTp2YqOoyop47p0/PiHak0gixrPo3/9u/Q1FRYSrZ4tKKu+lU/xvrhDERPwnWLgLaaP4k2Pv/8kLLaLIyTxoIyG9qcXGxsiYV8dsU4cQNVdy5Z8yYgeGb8XHgrl0fUCsOz5o1S60w7M8r+wUFBbgesOhCGrqS1UUG/WYm26Gg56W4kO558X+FWBLLdeXf6AiM7Xf0ATy2JcBCLNmmPPAYtvzYmK/rfA9swY+Tfv/8AB4zRCZdRKLPB7a4MdGsdA9gSzIVBqxECllRNaAL8fU/hh8nl9Bu0hb8uNtc5M6X31fnmK5DfGPdI0n3z82SyhaFt1Ro+dKmRfX+lqzckehPFlD4V/h7R4YV9ffPQxXr+JKoesczCTkyWtU7T1ZJDP7rOxPDjr/aHXySR9NGIEwgkre2ElRa/nZXyOqr/CMBEggiMHv2Xbj33rke4e3yu934/OAHuPL7r4OypPXY3XdMxz/OngYssVZZTGtlGVC4PKu++c3Fk96S0U4mKZyN/dKNZsI4o6AIsmrsWFaGHXvLWcJ4EZg9Z+Tn3f/781+oVS1lBVq1yMJtiaJo/4lLd36+ip3Y+zd/p486n3/7t/8Zb3QcwoMPLLQWUPDlFbdvEfbeefcDJ89U2LiN1F96LFiwAAODo3vphbiMAAAgAElEQVRh8PHRX+KxP12Fu++6S+EVq7b/8H+9R8FzHG62Bx5wF4UZh+JYBAmkRIDCW0q4zMTpUL1Fge6GqfeaNeptUa6TFsZ1JvuTqrcPSKLdUare8+dHEpXKc5NAQOJl+P9mzCjA3Dl34/OLlkvFr2bP8SfhfgICIgQUFRYkSBF/6p/80/s4CYzHkvYjd0y7c8x1LF26FN2/6MWp031OWX33zMT/MbNoUizepuMOXLgzPOiC08gc2fj+k3+GeXOt1eoms0tjmUxOZrtzoe7RTBiLCmegtOSf4ExMVhnn30QQEKGzeOastFT1zcqRxXdxHW7Z92/UipewYyqajRGrt7AFGG58/bVaFEMs20xrNzP/VLS2Gs1377vfrUL5/PkqhqLJL5ntv/vt32Pb//A/4fE//1M1ZvrJT9/CqdOfJJOVaRIQ+OervocJiviToBU8NZUJUHibyleffU8LARkYSWBiiX3Cv8knMGtWMe5fGC+Gfvvb/wz//vVDk9/ALG1Bacm9KCxM7S3wHXm3sXjRQvzdb7nK3URe9sWLjVgio6xYXJf++3/9NK5evYrf/ufjaqXJiwX5uJia9jrK2qduNnHvfWTVf4mKBRGUlXkDoU8GlbFMJiejvblS52gnjPfffz/+2R8uofA2gTeCjP/+ZOXKtNQ4d+5sPLnmT/Gzt/96xPJl9WCYFmsj5nATJBLn3FRTY0sWoXjo246bUUqdfv7Zf43mZ3d4LMWTLeD48VOQf/wbHwILImVY9MBCfPvb3x6fAlkKCYyCAIW3UUBjFhJIRGDOnNnY8C/W4SeH/uOofmwTlc1zqREQq6z/au2f4Z575sZllAnJE2v+HK/++zfizvFAYgLCdfWffA9VDz2UOKHv7Le+9Qc4/9l5fPLpWSXc+E5zd5wJyHX67ne+jYe+/YfjUvLMmcXY/T//j3jnnb/G1au/c8r8etid392ZLyspOqfAcxaL0XK5a1YhRDj95je/6UKd5K2xTCYnuelZWf1YJowLFy5ERaQcix6s8FirZiWILGi0PHP/u//2X0Kelen4kxcg8iLx4epv45c9f5OOKlimQWB+WQkeXV0Lua6j+ZMXJhv/6wb09Z3F//PRx5wTjAbiOOT5zkPfwh89/BBWr1416ms5Ds1gESQACm+8CUggDQSqq7+rJp9Hun+lBrs6jlgaqmKRIQTuvWcuHnt0BRY9+GCopUi0YR1+//tbKrj/8ROeNX9DSuVhIdDw/ccTcg2jNG/ePHynqgq4Dfy7//3/dOLrhaXn8dETmDtnNv7s0RUQC6Xx/JMJyF/8xZ+PZ5EsK8sIcDI5cRdsrBNG+b6uWvUnmPWNu/DSj1+FLITAv/EnIMHw//APFuO7Vd/CP1+9YvwrMEpcsWKF+u0su68kKcs3Iys3kyQg7sLLln4Hf1D54JjEGvn+Pf4Xf4Hf/OY3kOs1NDSkXkZJM+64AzBXv5VFwHQ8Yp5zL9RYuTxwfwX+4JtLUFws8S7HHnbDbRm3SCB1Anm3wxz9Uy+LOUiABAwCV65cwa9+9StcunQFXw9bKxBNzwfuMKxBZFGp39txb3nOhTceXCoWlOH+hRWhopuu7Xe/+x1+8YtfqGXZ5dh41J3L1/Lh/+I7WFgRUSubaYapfl6/fh0X/r9/xM+7j3HwabxIH+sAU66DWJuJdVVBQSHEnVosXvhHAukgIJPJTz/t42Ry2PoRH+/J8nhPGCX212/+5u9wNnYGeXluwH1apVrfjtFapUq+/PxpuPfee/FHf/RHY/ptTPZ7Ki9zz5w5gy8uf4W/P36Sv6Pj/DsaKS9DwYzp+O53v0OxJtmbkulIgARGJEDhbURETEACJEACJEACJEACJEACJEACJEACJEACJEACqROIczU1DeDM7dSLZg4SIIHJJGCuSGVuT2abWHf2EODzP3uuFVtKAiRAAiRAAiRAAiRAAiQwuQQSzbk9wptMtGSZ6KPf/e7ktpi1kwAJjBuBZf/pP+GOO+4IXRpeKjJFFnN73BrBgjKSgPnjoLfl+ss/cQflHwmQAAmki8CFCxfSVTTLJQESmKIESkpKAnvO500gFh4kARIYZwIPPPCAmnPreZVZvCO8yURLRLebN2+a57lNAiSQ5QTkOz19+vRQ8U1/9ym4Z/mFHkPztTgrRcj9wMVAxgCTWUmABEiABEiABEiABEiABKYcAZlD6ZWQ/eKbI7wJFUkoK67wjwRIIHcIyHdaLN7kn/9Pi24U3P1kpta+Fmel1/IC5uuvvwbfDk+te4C9JYGJIBBmjTIRdbMOEiABEiABEiABEkgnAZlDyQq6Ir75hTdnJq6tHCi8pfNSsGwSmHgC8p0WUV2+40F/FNyDqEytY+Y9wvthal179pYESIAESIAESIAESIAESGDsBMw5lb80j/BGV1M/Hu6TQPYTEGsm+W4HCW8U3LP/+o5HD+RHYnh4WN0nIrzduHFjPIplGSRAAiRAAiRAAiRAAiRAAiQwJQjIHEobvPjn3o7wJiTkpEzQ+UcCJJA7BMJEN+mh/s7T1TR3rvdoemKKs3K/yA8G/0iABEiABEiABEiABEiABEiABJIjIHOoMD3NI7xJcX5lLrkqmIoESCBTCYz0ndbiW6a2n+1KPwG/ODvSPZP+FrEGEiABEiABEiABEiABEiABEsgeAonmUHHCW/Z0iy0lARIYLwKJHhLjVQfLyVwC/uvv38/clrNlJEACJEACJEACJEACJEACJDD5BBLNoSi8Tf71YQtIgARIgARIgARIgARIgARIgARIgARIgARykACFtxy8qOwSCZAACZAACZAACZAACZAACZAACZAACZDA5BPIn/wmsAUkQAIkQAIkQAIkQAIkQAIkkHsEFi1alHudmsQenTp1ahJrZ9UkkLkE+KxJz7UZr2cOhbf0XB+WSgIkQAIkQAKBBDgwCsQyLgdHMzji9RgX9HGFjOZaxBXCAykT4P2cMrKUMvC+TglX9ic+sgMXXrof97Svx9gmzUdwZfEmDG9/D/esj3i4DO5YjC876nH3yZ0o9JxJdieGaw2P4Gqvnb5qu7e90odNpzDrvXbMNKq26gXgT59ktXzWJAlqlMn4rBkluAzORlfTDL44bBoJkAAJkAAJkAAJkIBJQCawi3Fh8Q4MmodlO/YaLqpzDbgW85/071vlXHwtPqFMSAPL9xcxLvsyaV6MoHaMS/EshARIYHQE5HmyqQPo3YUr+jnhPGPkGRHyb8eRuPqGX3sJQwCGdz3nfTbFXsO1DknegS8bXsOwJ6d+1oXU49QvolsVZr13EiUnT6LEJxIOvi8V9OLqc97yCzdut8TE3l24Gt9kT0u4QwIkMHYCYxPvx14/SyABEiABEiABi4AMaB/ZhfxXTmJ2rQ+KfU4GpQVB533JuUsCJDAFCURWoLBqF6729mLwoxhm+ixLTCJ6IgyZCK8wLEE8E+H7Md0zifVZlpgFJtwOs2Yxyut9BBcRbw2TsFieJAESSB+ByHrM3v4OLu7qxfCugxhcvxOFkfW45+T6lOvMX78Hs94RgawXVw8ewcydMsiJ4dpzuyyxLdDqrBazT55061KWa0qlA+B/psizpAHX9hjPMpXzCIZUlirM2rMeeK0BF3Zp0zi36KFNi3HB3UV+gGWecZqbJEACoyBA4W0U0JiFBEgg/QSKKysBnMD147fTX1myNVRWoljSnjiB67czqF3Jtn/C0lkuFUPGwHD4tQY1eE3s0rAChfW7cHXTYlz0D/qcCTUw9NJrGK5Nwe3DGKwmFO0McS81VPKm2T/YTa0EpiYBEhglAeP7bZYwvOsRXNjlHvF/90c3EY5gZvtJzHSLtbacZ0cqzwJDdPO/UFDlfYKZo3Y98zeQ+yRAAqMhkL9+Mwp2bcKQWKTtWI1CJZglX5Iz9jGzdGzCBa2f6eO9u3BxsfXAChK9POUEiHSDO2xX00d2YJrx3HBeMNRvRsFHDbj4yWaUnBTRT4/TUnlm6cbykwRIYDQEKLyNhtp45cmrRPm+p62JPPpwduv+5CfzlXWY96A05DQGD/tEABEHbGGguLIOhXa6S53HVcuLK/MmVsyQtuI0Lh236o/Dl1eJ4iUPovBRAPsP4xIFjThEU+JAXiXm7XsB5csjKPJ3ONaFE8+/HHwPVW5F5QsrfXExPsTJJxJ8nyq34jsvrPTWcuYgfr2l03sMQHHdfizeuBxFRlwMnWgg1oWzz2/FpUwSB3XjJuXTGsjhlVe8tcdewxX7DWvB5gSCWSSCmTtPYhoW48tdz+HKJ8BQR/ybWXH70ANUqyJ74AjLYs7rquFtiv+trje/Tut/k6yP+z/1wNV/fKL3e9AabcH5hr3YXVeaQuX96NzWjKPLks2XbHorXbvPg6+mqQ2N1Xbz+juxrfkolu3djZSanELvJi/pRF0P3UOp7xDmj8jSui7n1hnXwSmiFdFjS9HmXCB9IrM+PZNPmQgv7sDQK+JetdGOcWR+d+3vZ/0rKDEmy94y7P6lNBG2BLPBx5KwThNRMDA+lPfZIRNt18r3CK48YlnBfNngt7ibqOsh98oB4Jn472dPaxQtaEpwr4TnRU8roofmY+/uOnifVNZ3prsmvtz+zm1oPrcuvj55hrxZit3mPSvltwBNbY2wHjX2s6gsvtyJIjn2ekbDE1DXqXuE2iMNxrWwWTnP7Qga9j4DHGiG/1lulVpjcLbrieM/Qv1ZcboWs1+px4X3V3ueI6k23Sum6e+/V/QKfDYBcGKxSaW+55kcknxfdiDASu0Iruqx1+pa3Hx/E9DxEq5trEXBR5brK6oeQ0HA+DbV/o01vdyvx5Z6f5vk2KH5e7HuXDNazpv3anBtoc8Kf/LQ51CC75pdhv5eOeMZNZY5h3XOM8dfWfbvW32W50H874G3d/oZImnX4VxzCwIfQc5zR6d3S4k02Nc7KKPz+2D/XrjZ4FwPAOo+OLrMeLYZCSd5k8LbpF6AB1G8fDnm2m24COB6ku0pfnQjlmyQJ2UXThze6uQr3vo2quR47FX0PrEfhU/vxJLlYs38KnoPnwC2vKXOD3TtwMmth12hT1vyJKz/QVvEsxIVLVyF4gpru3DBArUx+OHzOL7PK7DN021ADGd3PIGznYalkIiPb72BcvuhPyACnS9/wibxZG4QqNuP7+xcHi+46d5FlmPJG8sh922QOFYY8Yt1KzF3yX5c996KujQUP7oSRRHfSOOMc9ra8N2bvrNqtyiyILzNQRly/VisT7lMeH9YDFcKAAmFL/uSFO48icKdNiz5NCxa3MGrDFxfwnTT0syZMJiT70TQ9eDXn8aa0H+pB7iONYsuV0+87fgo/uxp3NeDvsAq2psRbQ84I4OcdefQ3BI0kpHfh+B85kDGKrUUdbubcC7ajNZS7wDZW6uka0Odc9AezJoz7dI6PNNwFM1v9qDOnDg7ebJjY3Kvh2ZUjbUNh9B8oBPVcYKGTjPCZ/VS1LS0oNU38Rkh14Sfzl/fjpL1+nurv49yD3+EQaXRd+DaaxtRuD4Cx9LDnmiaQcWl4e6zRPZ0mSNPhIdfe84KYt77CK5UBLjFO1SO4IrEhwJwsQFusHPjeSbnvO2QI/ZE344tdXFHxZgm/KoB4/hf9doGRJqPoaex2ha3/IWXou6ZZdjWHMU5U2xPONm1J2jdLYiaj6lIBJGYPNj9x61J+DpEsa1TXhz0q5cPOmuLpxC5P+z8zsTN3+ZM3k+Vp9sXmcSGvowRweCAm1ZvWc99S8z3HtN7amar8pqPdCWq2r8xcfx1VmfCrQ9kyWftTpQoz9CRX+7pHsV/r/WZFD8d13c7X9BLAuVd0O57AS2CnC2u1b+C2bXyPJLnzR7MjBwJeBkaMKZKsanpSl7d2IY2eX5s60wopvSfiyEy33NXBjap51g3ata1+cR/ua97cBTL8IyvCCXk2OqzfKfa2nSCHrQ2t0M9oTzPnGREqsCmZdhBWxhDA/Y2nUNz8zYgQHyL47Nb+PSgFSHi/CGzmy4rGU/pU/7xpyWqBuWz2nhOnmdR61pYqWJoNgfEGfLs8c6PzP5wOysJXH/3Qwxs2ICiyAYs3vIuzpq9eHyfJcrJsb7TrugGYN7Tb1gCnZl+FNtFFWJeZ6gdlVtRLsKf+juDgcNiQVTn/XE4EwNsEaRow9Mo//QDDOgs9ufgYUMk9J3jbpYTEOuzANFtQAbbPkGtaPlOfG8/8PMAyzQvhQjKn34cZ4PS5dWhXInW3hz+veItLziCsHUuhi+6tDq3AIVBlnn+Qqbo/tCmTXbPLQFL7YhrxOZPcFGtrLUZNx+R1b1eQeE7m9yVuNSE1LfyljlJrdqO2Spmkwhf4voBDJluFSnHXvHFTzGEu4L6Dgw5b4bfwTCqkF9lT+pXWJP84V47NssEXmc1AG20K1TWBd2eN33W5Od8/JvJnlYg6YGHPZAJ7Fc1Gvc2YFtzK3oSvuG1xTZlMdOPczFgPuxBnMNZKjAm1Em3L7Bhk3Jwwq+Hfc2DO+sbaNqJ/ANY63DQtZDLEXXfUGfT9TBc0Yc/sW6woXdsa9n6zZ6V/ILZJX9UxL97YLnOD21qwDUR/+OyayHPt2Kg+TwLFN3sgmp34u76DmXFgo5NuLI6kcAXV/k4H4i3LpAKTHHFEXh892fMvJ/sVunJkL4ve1rFosqeoKn88vzSllYxlDW1YTfEki3+uVba2IRj0TfRU9eIxrY26EdjuGXdOKNJd3Gj4Gk2KRb2MkYnijTordQ++88hhvlOHmvibQ3lY0HWhXY/atb5LR2dIjJyw2NpZrt3WvHdDDfxALfPoM74Xd+tNL24+shiXA3KoI/FjWuMuh0XdTm2GFc2e58TNz+xn4GOWFePu9VLiefU+ElCf8yy4+laIl2vd0yl25CmT3Xf2JZJYVWUldoiV3Uj2rTFvO974c0b/iJx6bEonPeP3e5vXU1DA863u6KNfkZJueo5VbcbbXWWJZWrVVvPRfE0aDPM9nWfqrU2521c9uzZjJXQaPevba94KkRx1Cfol9p8TOFsrB3tDvjtQM1IpQYIfZJF+qIVvZGKSPN5Cm/pBCyCwhsbkrSIWY4lvQEuVU77Yjj7wydw9sQSFC+BV7hasgQ48SAqe3c61nOSrWjDG1ii80c2oEpbkNjnvrfBLvP4bQz2xYDlPgsgnTfuM4YBPXE6c8ZeVawPFz/4VLm+msnnPe32/4sdW3EJS1C+cadP0DBzLEf5Tkeps0/EcPb04VDrJTM3t7OMQF4dKj3fkRi+2PE8jttu0ao3lXWofGEn5urbc/lOVNYdxnHTclJ3OxbDgBbrlq/CvLwA1+XHVznfExH34izfpKy8SsxdqSu0LUYDXFfjRGTdjqn6GfsEw2oQWoGri0UYE4uU1RgSyzQJ6vuRDPIXYRr64lcjFHcKGUTKyluPLMbNV06i4P3F1sRT8bQCA1s/WhHM3FyPq8qaxB93xTsoHelS+OM+6fQFq+sx1NGBwY+OADKBr38FM7EJX77zEa59YgluBeJSu8kSAHW+ifj0W1kFDVDam6NQxm/awkMNWkVsiYa4DZktl8GLabFmngNQWooytKOlNZFroohtZVjqDD7LUFpaimrDEk4GqAfwTLhFhq/aTN2d0OvRg1EJqJ42yoBWiWr2NVaD0iD3v0wlbrYr4PvuTDLtdHrfniDr3KOeCItgZgZKf+41FOzRpcqnIbrJM9BcnKF2I2ZVdTgvG4LbYJUlz6aSnXZZWuAzfpbMGsdz2xJR7EGePEfkXmlrw9I4VzDLKirOxVk/c+xGBX3P5X48Zp9XFnTd7R4hr7252emS+XzTzzUt2gHVaNSzceXy5U6epQBzAg1fu5wKMn3D1+6ReJrdcQRR86DeDrF4c3lH4JHlfHzlGqjHe08rmkU8abNENWlfNHrIfvmjRVvrN0XrJroJmf6prO9X78AF23LVae+Rg853OP+xFdbKoCKqB7qVW7m8FnD6GTGyha1TpyzE0GDHcZOD2iJfuZraVri+54T2HtAurPnbN6JQLPi1+6kR+sN9pvnHVG4LxnurtO4ZNBxtxoHOaqyTwuOslgAYApkkse7pRrS1OTK71SxbXBFtZulu7Wrua3F1G9qWhoRVqKtWoTcCQzH4ipHdnlYrvMczOIBoNIZITQ3Q3Y2YfF93Z9udbnTQ+Z4HfGdL67C7rU65sUej2lLN/xLPEj5rmprk4nme604tHsE/Bv1cl/P6lPuMt3Kp36VzTgkyMfPkE1F/d5t53tg2RVvj8GRsUnibDOpjqHPePr9lmuWC98WOHUaphjBmHHU3I3Hxqq6/exAn3j1tTIYfxNwXDIFMYlkdfBlnTUFECqysQ/mjwBf7AyzSTGu3rh2WUJLntoJbJFC8ZaMjggmNL3Y8ES+oHe/E8ecXekTsuaseBzrj47EBZzAY0/f3ctzzOHDJl2zeKi3sxjB4BnHfBeuqPIhic4Jz5lOPhai+ctc7Ox03b31sKn8O950CcL8PgViV2at3iYBV9Rimi0AnIluFCRkorN2JQh2radMOFLy3Hfkd2qoswZvhjk24eH98vCXvQNdslh70msd823qCvGuTehtdsLkWhajHlx2yYqKkrUdBLay3xr6sE7HrH5QE1ikDUT27VQkMF1B7cCXWJCl7evYcQ7e4gHUfQufa6uAYbf39OF+z1LJAkW0ZDAc2MjcOTtj1CBlABk3GAet6K8Iy4Wi0BsjeiUUPWj0xt4LSZPI1Mhc7sL/XI1ig6BiQ3ueDfiYkOxGOYOae7Rh85BPM3LMCwEcGpFrMfm87Lso5I8i5lcBsr5EldLMWs7ZXYWiXPP+8QdNDs4zxhGW9IPeBN8ZbaeNe9G/bhs5SifMj51Uwtfjvv99dVLUn3gqlxnwgJG1dad+fauKrrVcMK4ewcuKehWOENJHZR8MTgFjjJpz+yyR6d3xHrGeZJap6ztqTbs8x2fE9k+T+2YttaPa//InLmK0HYrj2kl4Zod5eOdl1K7/y2grck2A15dR77RPcAp5vphVu/HNCx3mz23rEGn9JO4JDfwATZ2Vbirp1NWhveRPHRDHz3GPWdz2ZGLRKlGkvs2MOyr27Df0BLpHS555j59GwtlGJR1ZMOaseJ46h39Iq0oCGsna0az92aGGpDaKv9feUIYIYYt0SW3KE71zqF39Cc1gv6GrQ0BBBrD1ENNMtqlkGHIgiKm6o6oWqJbJ7Yg2bVsg6X9ynjgd3DEttLwpx0Bj5L4KGpmU4ekhCkbqif7NzIc0StEhoHpucbQpvaeX+KS51ddmLJwRVZLqrxTDQpa3HgtL2xblfxqUSax+xGjkYIF6YiZ1g9NptTrxDO3FJ0sQFuI/hi1cP4qxfWJN0W55G+QYrLld5BdBrxoxT7qva2i2Gsy8fBqTep4GLz1fh53Yw+nn7f+O4uH6xo8oVXYwFIsymczuHCARYlZ09HNK/4/twtmuDc68gzJoNfbj44QLMtV1J4wS6vDrc4+huH+I6NniEP7f207geg2FltxGVdae9lnhuYm7ZBJRbw6LN1ttfPxU7BlPBK+uBPs97dF9K78S08OR633nvrnqT+8nmcR7oSh0RFDxWhatiiey4Y6xGATossa1+tbI8FnfXyfzzDDhlctnSbb8RdkzNfM0zLBCaatDSss0TlN8qD/Guqk4p/eg81I3Isr14ZtmB8Bht4orU3e6J19SyLVutqpzOj7gxMddDX0N/c/zihm+w2fOmsnaMHNqGbf1iaQh0bjumrAOsu8WY6CScsfvrnax9d3EFtTCBHWMSve9gKLZ+XN1LA3uoXMDsM9oLQCc0z+ljo/xUqyq+04dZpuXcKMsaTTbrnjY6qAUVKUxPUk3Ba5QWWjLpcye3AS1Vdbg3puXmLd8F4+1CrN1r5WYW41H6zBMZvp0ST5+IkHTXRLxcG5ratYIzk1h5+rfFL76g3NN0HCz5XZIVL8w/X5/MU5m+7aweKg21xwESl1EL5MO7nsO1FfGrnAdbtyZ4oWiDcGJKajBxi0vpE/qzA+aiLDrOm7J2kyQSr+7kTmfBBmX1D9uqT6zoVr+vLPcKIvKd974c1TWM66cIt21iQdbtWMFa5VshKmLoQX9dsIuy82yqaUBDxLXCb2wrVdb90ZjvN7C/E4fOWzHc+p1OWC+oqsMWcVHp6lBnv7jSQqA8r9RtLcJcjdhfLU0sdDv1Ze6GGTqjzg3SqxYrCPZOqHNj+coLWelauxUDeG3/NgSLYFb/tTVunVL/JR6c9y/wmeO4mtqWzv2dOGpk0y6vxqGM26Twls5LcrwzOMaUrlPc7Hp32q6oZ3B269aRV/Tc+kP0iqvpoy+4iyv80F7tUSyAlHtrL75nuJXq6sxPEbl+bbrq2YLbEo+7qSUGomIVyt/a6HVv1e58dqEDC1ahcInhDlq33xFJBl59Hl+Ii+nTGzB3OTB3eQVO/FDcTre48d8cizhZ6dVa2XLg1R/i11xowbxsObbttSob+PDdQKsy3elLH3QBy7VqtgBF4kdthBPU6QZ1nEM54BfoTDfTD9/FQMUGnc37efs4vvgwZsSCi2DuzjfwvY0JVlf1ljAl9wpX1+NanwzUjEmaTWL4o3eUG+rs2hiGXhKTMcti7NZLflRieeIumuC6SLyHmZ88olxPC155D9NfEpcLyzqlJESbCx7o+usL38+vWASgF/ET+SrM2ihWfEfCM6f7jO2SATPQrxrANqpBkrg+1Ijrg/3nDFBVsNs2NNoWb5FIBO0HtuFoLGZdNZkQadctndn8VOJNDZp2l6IU61ATDbF6s9viZJXJl8TYsMVB57j99lj29UDMPZdFWxN+PQwrH3sVL+/AWAQJM6iJCKbnVTjVmMTPNBfUMINCy/WvKzWsATLrGnhiLilX9o241bAYF3RYSdXckMms4ZolyYKfDyF5bQz6eRROJUF+p35tXRdeiveMtYjExA/YLVceWSBBJsbqT31/zVVDvS1Ve6laaGI2EZkAACAASURBVNmWVz2t7eHPAP38MK04A6oOjWMp+Q19Lihrxh5Liadh1WzH1PRauCbqZT98DgJOYvkt6T5vvDiR590Bsan1hg/QGUSUsBa9KLUs4vxugTph1n0ewZA2doMeB1idyF/xGPJ39WJYwmUcPIKZ9krK1oIw/o7qZ4DXwtafSvadcUjQSSfGmz6preN2wbK8izmrmurnXVh4DV2CEubsuG/OsTRvWJZWgEcbF0v5SA1qcBQ9/XUey1qd3iPwog4inm3rLFXhK6wFnkSIjiIqIaMb9uIZHIX8/jku6MqN1RLnSs/FULPUFfbjumy/uFK/nUctKy91W9vPRE+8WsmcxeJyXN+TOCCWhCpce1kNzre0or/NiounstrPC22Z5hbXg9Zt/VirFmOwLexqmiBOqjVNezH/UDP080uNYbWrqRq/nsO6vfMB+2WLekZ1O2aJbhV6y3w5pI9NwufE/45PQidzqsrbx61YZ48avTpxwthxNwdiXcqVzj2yAHM9wpp7BrePY7BPhArjGCIoGimAfCxYiCheaK1yKqVJrLkqQ98YePVlXDrxOCp7tUVcF05stU2dbh/HgP2GRfJVfmpYwZlN43b2E1iy0CvmjtSj02L1qVc+jaDYt46Hk/3Eu7gU22DHEfS6m7pupl04u/8EsM/JFbdxfd8anKhwLTJVAnt1VYS5XseVMsUO1O7EPWrA5hfeLFeHglfakR97zVp9sOp+TAdwSyFahGn6xeqR9zEEN8CvpBntn9eVLNVSLHeS/O3bkb9rFwY/imFmhbRN/nqt/RDBL9WaRpXedslQb12jvhJkgNG2G6U9rei2J5vOm0AlEEXRYgtw1WrQ2I2ypr1YJoOcRANPmcgdshZzsIan1WhsOoZoKqtpGoKcDKS8YpGvH9m0O+HXI8gNJMDizWbY33kAR5etw7KjLSpYvce9WA1i28XMUU1Y1KTmfAP2+kLoZMLlsGIW6UmrtMi2kNWLFjjilrEass81aywT4eC88q5Br3Y48kTa5ThCWqdMN8dEbOlJrbBt2LsbpW/alh1G5ebCCuqwOck0twNFYdHf3RhvRrFIuBiADv5jZvBvT3mLNwOIWqGxAc8k0BKM1M6ma2lixHhbuhYN5w84AkjPm+3Asr3OqpDuPeMUIxH24lfZzpDJr9nK1LZdyzYZB3gWRpDnzMlXrPi2ISspp1aXndq2UPPm1QKb96h6HooL/MEKywsg9pEK6xE/ForhlkQGQRWmB78r9Recpn3Xyrqpptlj8abvsbWIt6w3LbPMhsk4x+s9bQrRktIVg9QzyFnFux+d5yVEm7vgglWutpizXlzV1ERwfv4z2F36JqKtPRDhrVUt+tJmCINWnxKPpcxWZ9r2KCzqbUvCZWUxHJ2/Frub3sS2zn5UG4tOjNxL92Wi5WpquSFHD3VibXUdSquXIdJur7xuOnQYz5TGRnfQ4r2+I9c+USkovE0A6eKtb7uriYbWF7K4QuxV9AYEdfcXU1xZievHfeY/H36Ai7Legf5buCrhSozWiqgrlbHK4BnLDfV63wcANmLehoh3kQhbcMODD2IwQPi7/qnk1zNp3QArSP3J/UD5W3ohCFngwWvpd+nlHfhiuXV+7s59mHfYe94ojZs5RGDw02ABOfUunvBYq83duAXFh/fjOh533Uy7PlDWpfNGKPzSlofQu3U/Ftsu1U7yiLUIyLyFtMp0mBgbgzv0ggOWK9iXevW+WlneXlYIBZyAxEY+2bTixLkuHDoeky9Z+ndV8GRZ0GEF8M4uDL1zEFfQYbmdLtqFq7sOYnD96vS3I4kaPPHF7DeLcdlsgU1ZhLRJUGz9JjgCNZjsBxqfkdVKt6EzLDaKrD4o8TzMiVz1WjQcsoIj7/YPsmxBJyYT+IayuCbl6oGJuR7uIFU4xouYXou3/nNlWNdYin7TL8NZZVYmFzJxsO6JdlmVMKuCQxsxlzrex+BOicfoHgt71uTq/TfWflmTWrkXrPX7PPtqlWK7BnmmeOIDxsf7CmuLlGk+RnS6MVu9GpMwXab6lLZmo8WbvKgIAuXpXEg8N3H3j3W71j2+PNauFhb0Sb3vfX6oeJHryqyXLOvOoUUJ8+7s1yOEqOf+Oazzr3qtroHYyGX3X6j4bneroB4Yvn8zCiT0zw5zgaigfvvEOzOJ+RJBLaDQgCvYExJWw3oZMbxdYt2uxz3a6yluRVS7Ajv0h1rsyi+8KcE/KD6l2bjx2ZYVjV3XTaNMEXK6a7CuLYFlvX7+yALIEo5SLYR8FMvM8UvYvWhXpUVm9dwxFn6S00pMxjolqMmLq/ayddg7/xDUU1F9Ly2BCk3xopv6DU3ie2v0OIM2xY3TWCE6cHzhba6IpGXr2lB6TC3ppaxcdwv7aNhiN97xi7c0Y88eXyoLRfVC2V7QxfUTNhLbHhX2b5J1wv4dM3+3vDkmfI/C24QjH+8KbcGuawd+vsUrvBVt2OmuappMtcf34dcPuSZAxbJwgrmaJICBrldx9uX9uHRiCcrfesOyKtq4MF4c7NyC3tOVqtbCp/WCEDGcfX4/Cvf1GquaRjDvBXPf39DlWLLvcfx8S5gBvD8997OVQOHCEN9R3aEHKwzxN4brp/WJ+M/r+w/iiw22uBtZiblL9gOPugs5fPFBWDC5gLL2bcGv91ei+PGnsXjjcs9iDLTK9PLSg0xZ7bOgQ69qutO1bIy9hitqNa0qFK7wj/asslScOBHm7reEe2dfFmL4xFuftWe9+R18LH5xBe1aEZTLPWa5cRW6BySyML4U17Wq7SgQ23mJ9bbLiu2Wv30FCvAOrkqstyOZIbzpwaPThSDLEMfSTAaL1ltdEYhkUmeZ8PcDdXXY3XQO0eYoxL3MtIqSNC3dMljyx1qRN8pNOBe14npYeawBqVo5U4l8Vh3tZUuzftLlME6wMRHXI3i1ML+FiWuxUq3eBBuuZDJpabGsF9XEXvabLTeNyLLsmxoXPFaPq73iA+aK/dYl0s8aa08/o8IvX/IT4fAycu+MmniKi7LEdxOLtqXHVHwj93kgE5z4WF8uCf+9aZ/xCWUJLd5UlhEmbDlj8TYOPJ1nvnsVPFu2KFHqfN2tmFrzPYmMnepGNB2LorlFxLnGkGd5PzoPWNazWas7GF0WSwRnIQWJrdYA3DNCrEVllWuXkb/zJAq1COYpV1vtjmD1audxXdwfwZWKk1AxLc3yjgDT1SIsj+DCJ6+gxHZzNZM4z776V3A3rEWrnLhvZkK1PTErmwYL8P57qBprGw6h2WNZb1vfi9ijHaSV1bmsTBpF6zoRjuwXA03y2GpVCy+gVS/IYnXYfUkm37colGDWKPHhLEFQwi7In7y4apLBTacO3yDpD2G+vLDqlxiGroujcn/1v4S0qsvR//vRjwaslbGk+XLD9gKwAFqu6fGupiYSr6upOiPuvWU1qJGVK9b5x5523tg5SAvQ34837TGNXDVLmytF3TPLsK25FaX+FwFm1RO4TeFtAmCrFUNty7OiVRtRvuBDnDhomqKZjViIezZucIO6+1dTrKzEvEefRvnKAGuyvEoU412c/OG7ZoHu9oMPYu7Chfb+45hXeRiX7EUO3ERAcd1WlJttgMR6O4iT5uIJecCANmqLbEDVW4gT35QFXt1+VNnuqxLr7ezx2yjuiwGGy2tRQFfM9mD5TlTWHXYXXvCc5E7WEvC4hAJFKx9F8f4ToXHeTPdlWb10IJGB3O1OXOzaqWIKiuXlvEeXAM53pgsXk9fdLLzi4t25Bb8+LIuK6PiK1qm4BRyy9oKMveF66XqJfXYloLjBg/YKpfWb7cDnMdxUK4TqxDp+ip4su/vKHUInC/gc/iQ+EHC8e4WRUbumGYf8m46ljI71Bqtd+bBiuQy9/756q+3PN9H77uDRW3N/v7GWqC20QMd4M5L2n4shMt+efanJ2lIlzkVtlzHLjSjRhLcajXvFWi6KbcpdMeCN6Tm/+7HRgBzbTPf1sHB5r8dIFm9xiPWk3HkrLeWJFZI14Y+2e8uPy59RByLIX78TJet3Ar7vdf72PZ5FFtxnlL8DqU2E/blzfd/jqt7c4iyacqhzre1O5HfpconE35vuOf9WQos3Wyhy89hWWTWyxoM1sd7dZkQEdxNm4db48EzYcbGIi8x3BTQVHL0MTY4Q582tX77U1HSjvXkbYFoW2VYxEkxdnn9BBrM9x7oRmR++gIO3tszY0wsbWHHRrGfExcW7kmucz2ItuUzxqRzBTMW0NF5kmklrazFT/lXIIgmbcOHUdiUQ4rUGXFQvOwHpQ8lq67x4IciLxdlBq6/aq87rl59mNROxLVZwSgAzxCt5/jSdi8K67WRVoAOu9b3H+sn63kg7ZbEGWQSqtLoOexu2oVm5hsrq3lYvlCui0aHqZ/YCB5oRVaE7rDi2+rT14kqLOXJU6rGdWp36s+k3U/dsPD5LUddoPXcdFEkW29Pagu4Y0B21xh/aUVRcTdULTP1iptEak1rjy1KIhZ2MKFsOSFiVpXgzegDnZTEQGX/6FX8RAJtabddg/8kkGzqOySi8jSPM0KJkxdATdcq9slyJTCtRdHq/EqH8ecQtda4jRNmrgepEeZUof8G2MtPH5FPiTX1wGsVbXkjCpdXNOPDqaVzS7qlxq5mqgq0VTd89DXEpLXz8cctyZeEq3FMh57vcmFtB4pss9LDTVt1ir+KkxNQCoFxaV67EIGTVSKuzspDCyXcfRPkbtpWSWPC9vBDfeWMD0LUDoatdqhL5X1YSkHh+WryVDkQ2oPzx/bLAbvxfXp2x0IHceparaHxC94i5GENRxdMo1t+rJPK6pfi2bh/Hpf3P4+xK43u4YCGK8/JCBUNfCVN2V97YfqmCEtfj7oC3sQqMXpUQVsw3x2W16jEURICbE0avHrO2A1BWebIK2GrM2r4a+KRPtQOoQL6IcBtX42aHE2l5wlpnVhT/xthrKVHTZA80tNBiZ7bENF2SDHrM2ZYrnKl04lYUZ+mm89qf6u1mKVqjzYiea0KbvB12xD5JI1YScKzt3NymJUz2D1zTfT0sbvaKXi7EgK2R0uj7xBrwusNRa+KiVnjb1om9u0PeMgfUOLmHtHDmbYVl9ZqcVYk350TsJbCum4jqQ+oQgcVaja4GTcr92LBkM919bLFFFnJJKJiF1BN0OBmLN52vp1UsTnYrV7DGpWJ14g92qVMan774c8aZnN50r6nZTa/lmryoiTQ8Iw9pW1iV62+JDWoSLOyUeWwjGhsty+mo3A/rzqG5pdsKJm/6xSqh1HQ18//OmG3J3G15gWdZmNVi9smTE9pQLbo5LxF9LxbcFdftZkk8uFeAC5v04grt8C4+ZZ9/6X6v5V7tRsyq6sDVjk24YI/TZgaJcunu/bFWy405Tj2x3KmbWqNobi1FW6Mbqw2l1ViG5gCXarm/rXGNenGQsO2lEMtPa0EG2800mmgRGduqX8pU3wstGSWsJPNPxn1nzSabYzX3ePCz3+DjJvVeIyWquUKom6wHx7rl2lnPduu4jGf2KktEa3zpzdfoPHek3mZrdVV5yawvi4x/3UGOW9UkbOXdvn37ttR769YtDA4O4tKlSzj/xBOT0JTcr9Ib601imz3hFd/q9uN7WqgSt86AVT3n7fcFe0cXTlTZMdDqtqJyFXD9g08xYOMs2rjTcutUweA/cI7L6cHDh12xQK2Gqhc7GMO10DHpIIsn6DhugLXQwwIULjiDS89vtfpt9FdWWT1+2MijXGeDFJgxtG2KZi176y3MmzcPhYWFmDZtmofCpH/v4+67gO+F7fJsidbSfF8aswx9/8ljzV41eK6nx4C61+wVfT3fJ/OeEyF6y6PAu/vjrUJFANdu1lK2mc9XV7bsyj0yd+5c3Hnnnfj6669x+fJl3LhxYwzN15Ngy41zuvPWVSbAm3HzIDBbxDc9iLTfDDvuFFXbcfdj7+BL402tDHz1INS7qulm3HxkE6zYJqKuhgUdDuuO4WrqBDM3joVlk+OpprfLWrRIVkvlXzoInDqlIkanVDSvR0q4kk4cdC1KSkqc/BcuXHC2k93QzwBJryajKz7CxUdsS1pZZfC9do+Fm6TTeRKv5qefWcFljNg+51mQTP4k63LKTPJ5ZDeS9/OIV2tMCYLu65EK5DUZiVBq5xNdA/MZY5Y6mueNmZ/b8QR4X8czGc8jie7zsHp4TcLIjO14KtdixowZmDNnjjPvzsvLcyqnxZuDIv0b3lUSIyh/4y3AFt+K6/ZjsSG6yWT+1/u8MdukhYMfdOGLD17GxYVedzc5V6y6UIHiVRX2NtzYSpEFKF61yjkuSa/jNK532nX43P5UUeq/GAaUB5e7uIJ3tdQ+JfRBC3x2PK3rPjfAooiOjeW6CLqug4njdblt4VbOETi+DydfXWlYasr3ohflsRi+kAU+FixwrCJ137XLst4P/fS4m9qpYq8mbT1ZtHIDyjdsUKLxpQ8/wIB4hy9chfKV+l62yhzoSxBsLrRxU+jEkR22q4M7eRzEYlxYrBlUYdZGa+36/PWbUbBrE4YfW4HC9esxHVYw4bh4JrKS4eZ6XN3UgauPSDC2etwd8HbWeUusqzI/tehnHktm25kMu4kLXglx/3CTcIsESGAcCMS7iq7HPScTLy8cnyeoIWO0ZgkLYh5UFZKsK6UyAyviQRIgARIgARIggQwhQOFtgi/Epa0/xFnHWsYSGebFYiiyXS5Vc8RqZ2twECqJMyVSWfHWgIYvXIm5Ruw0b4pI3LnCvpdxVie6fRxnn/ghvpD49ngQhfDGfzOt9QYPbrXirWmroNOHcemJ08C+p4GXbWs26BhblnCnV0lF3wfKxVRqKZRg6erPFePsA85HcV0lcDg87peTkBtZS0AE6V74Vv6NROIEN+ngQIggHdb5Sy+/ioHlriXnwIfvulaeYZl8x0U0Lt9gu0z7zsFwofafmtr73oll4UlvdOHwibA3n6wedo8B0ptvJ0p85VpJI5jZfhIzjXyBm+KS4c+fzEQ3mTSBFfIgCZAACZAACZAACeQGgVSsgHKjx+wFCYyNAIW3sfFLPbctcA3s0yt9Il50e2J/yuIAKiuBd59Hr29dBWdF0dirOPH8u47opRteXJmH63qBBQkgjzpUqjhrG/HFjudxXFvE6QzG5zzdhw0rrbRbthhngUtbHsLPPUeMnbw63KO1jFhfXLtUyrxKzN34Bsp3xiBWTkEWgEaJ3MxiAkp8ezd+FV2nS8pV+mWcTXA/OmnNDY8lZwyX3vWZYpppzW2JP/dhDAMbXEtP87S4M37x6kGc3W+4a3sTcI8ESIAESIAESIAESIAESIAESIAEQOFtom8CWXn08adRviCk4shKLN73KU6+fNgVxEKSuocft8Uy90jcVmQDlshCBf4/IyaWdnctUmkimLvxUcw7fAKXrDCA/pwYdFYnjWDuzjfwnVU73JVPK+sw70GgyHZvLVywAIhYIoZaSAEb4cTe0iu3ui7QvroiKKp4EFC2fr5T3M0ZAtePd+L4GiuuX7EIyfafWh1X7wR9Ht+HXz+0L+gMIEL3modcy05fqkTi8KV9a3BJipXvrLIEtTOfoAWmDyN3UyTAt8QpAktzcl6PNANm8RNKgPfzhOJOqjJek6QwMREJkMAYCfBZM0aAac5O4S3NgK1J+4OY++gqzPPFhgquOoKi5TtRtdxyzbLiqfXh4gefAuLSaVunuW6aUsppXO/qCiyucIGORxXDF12yhKTvr+9TYMnjKH96I8pNN1VDkJMc3vqsMpSV0qdbsXin5cqn2v3WKpx4fisGH92IJRu0K6mvzpUvoMpxrfWt3OokXYjiJQsxzy6CcbQcMFNiY0SxbSIpiCVofLjFiWwB6yIBEiABEiABEiABEiABEiABEshSAhTe0njhzLhogdVIAPmDljun19rMTW0tSrAcc5fL6qWHAWMlUDfVCZzVbp6yAuTTxiIKWvuKfYizW0NcWOv2o8oQ3QZe3YGT+09j7lu9qNL5ncq8CyFc79yHX5/+FJUv7MRcSRtZALGYu/SpiHxG5lgMA4igKOJ1rQ0NlL98A6q0KypScBF02skNEiABEiABEiABEiABEiABEiABEiABEphcAhTe0sj/+v7ncXblGyg39CepTqzYzj7/Mi4dd81oZNGEX3cCxXVbUb5xZVxg+YFXX7ZcPk/3YQDLlbilmu6Pj3biNLDAFsGMviUMKt+5Bb0LJbg9cHbH804crUKfdmYVF7AQgrgIPnEa5Z7FFV5G7w9fBnxueSIwVunVW/2B8tUqlBvjFoFA10F8kWRoLqPL3CQBEiABEiABEiABEiABEiABEiABEiCBSSVA4S2d+CW+1MFXMW9jBQY/7MPFd9/1iG1BVYsF2fFOK15VcWUdCh9dhXsq+nBxv608SbD4rgoUS+a+D+KDu98+ji8+7EJxhS69D9c/eNcR0/RR/6e4jf7cFyZr8INX8QWcgoA+6cP+4Jhv0ldtdSeFH5eFGuL/RGDsXbgf5XgZx/e5wqNOeWnLGvzcjg+njhnutToNP0mABEiABEiABEiABEiABEiABEiABEggGwjk3b5tRc6/desWBgcHcenSJZx/4olsaDvbSAIkkASBsrfewrx581BYWIhp06Z5cvB778ExZXfkHpk7dy7uvPNOfP3117h8+TJu3LgxZXmw4yRAAukhUFJS4hR84cIFZ5sbJEACJDAeBMxnjFkenzcmDW6TAAmki8CMGTMwZ84cZ96dl+euHnlHuipluSRAAiRAAiRAAiRAAiRAAiRAAiRAAiRAAiQwlQlQeJvKV599JwESIAESIAESIAESIAESIAESIAESIAESSBsBCm9pQ8uCSYAESIAESIAESIAESIAESIAESIAESIAEpjIBLq4wla8++04CJEACJEACJEACk0AgLBbTJDSFVZIACeQ4AT5vcvwCs3skkCEEJE522B+FtzAyPE4CJEACU5gAB6lT+OKz6yRAAiRAAiRAAiRAAiRAAuNGgK6m44aSBZEACZAACZAACZAACZAACZAACZAACZAACZCAS4DCm8uCWyRAAiRAAiRAAiRAAiRAAiRAAiRAAiRAAiQwbgQovI0bShZEAiRAAiRAAiRAAiRAAiRAAiRAAiRAAiRAAi4BCm8uC26RAAmQAAmQAAmQAAmQAAmQAAmQAAmQAAmQwLgRoPA2bihZEAmQAAmQAAmQAAmQAAmQAAmQAAmQAAmQAAm4BOKEt7y8PPcst0iABLKeAL/TWX8JJ7wDvGcmHDkrJAESIAESIAESIAESIAESyGICieZQ+Wa/JOEdd9yBgn/7b3H58mUMDg7i97//vZmE2yRAAllAQL7HhYWFmDNnjvpOJ3oISHdGOp8FXWYTx0DAf/1l/x/+4R/w5Zdfqt+BW7du4fbt22OogVlJgARIgARIgARIgARIgARIIHcIyJxp2rRpat599913Y968eaGdc4Q3ySST9enTp6uMM2fOVNsU3kLZ8QQJZCwB+S7PmDFDfZflOy37fnFFN15/9ym4ayJT4zNMnJXj8gNy5513qntIaFB4mxr3BHtJAiRAAiRAAiRAAiRAAiSQHAEtvMm8W+ZOMoeSuVTQn0d4k4QFBQWYNWsW8vPzcfPmTWXlQEuHIHQ8RgKZSUAeAPJPi+jyINAPAPO7rNPJOZ2WgntmXtN0tEquuynO6h8K+ZTjxcXFqtqvv/6als/puAAskwRIgARIgARIgARIgARIIKsJyJxKRDeZO8kcSuZSep5tdizvtj0Tlw+xapBJlnzyjwRIILcJaGFleHgYAwMDuHr1qnIrpOCe29ddeqd/DLTgKi9bioqK1A+FWDnL78DQ0JD6lPtDfh9M0Tb3CbGHJEACJEACJEACJEACJEACJBBOQM+pxGhNxDcxYguzfPMIbzLhkkm3/OMfCZBAbhOQB4Mo9CKoiLgiYot89+U5QJElt6+99E5+KLS1o/xAiAgnx+RPXr7ofww3kPv3AntIAiRAAiRAAiRAAiRAAiQwOgIypxJLN/1PC3JmaY7wJpMrmWjduHGDk26TELdJIEcJaLNY+ZQ/eQZokUV/yvFcEOG0oCT9MbdVx6fof5qDXH/9T47J9Tb/TVE87DYJkAAJkAAJkAAJkAAJkAAJJEVA5lHmP38mJ8abTLS08CbWD/wjARLIbQLiSiiqvBZd/AJc732VOQeg6rPjqr9adDI7mAsCo9mfZLb9HDQDfVx/JlMW05AACZAACZAACaSPwGh+k/XvevpaxZJJgARIgAQ0AXlOhz2rlfAmD2X5R+FNI+MnCeQ+AbFuFXdT8UmXP3lI6AGaPAty8U/6JQKj+VCUPl/+67/GP2zejKEzZ3Kx2+wTCZAACZAACZBAFhMoWLAA5Tt24J9u2BA6qTO7x7GNSYPbJEACJDAxBBI9q5WrqRbdBgcH8eWXX+Luu++emJaxFhIggUkjoL/rhYWFyvJNC28S500WWzi1qHrS2pauihed6lGLCOh4ZvrZ98uyMtz8x39MV7UslwRIgARIgARIgATGROCOggIsu3rV8VQIK4xjmzAyPE4CJEAC6ScQ9qy2gjsZ9cvDmn8kQAK5TyDou64Ha+KGmot/0i+xepN+6r6qBWUouuXi5WafSIAESIAESCBnCPx+aGjERbA4tsmZy82OkAAJZCmBsGe1E+NN90se2PwjARLIfQJB33U5Jgsr5OrKxv5VW6Wv4nJr/n3nd78zd7lNAiRAAiRAAiRAApNG4Nff+IZTt4xZdGzeoDhCehzHsY2DjBskQAIkMCEERnpWx1m8TUirWAkJkEDGEtCDtoxt4BgaJkKbFhzlc3h4OE54G0PxzEoCJEACJEACJEACaSMggpq23A+qhGObICo8RgIkQAITSyDoWU3hbWKvAWsjgawgoMWprGhsCo3U/ZJP+SdCnIhv/CMBEiABEiABEiCBTCdgWu7rMY1uM8c2mgQ/NFYOLgAAIABJREFUSYAESGByCQQ9qym8Te41Ye0kQAKTSEAGqbm6guskYmXVJEACJEACJEACaSBgWu6HFc+xTRgZHicBEiCBiSEQ9Kym8DYx7FkLCZAACZAACZAACZAACZAACYyagN/KbdQFMSMJkAAJkEDaCAQ9q+MWV0hU+4ULFxKd5jkSIIEMJFBSUpKBrcqcJgU9GDOndWwJCZAACZAACZAACaRGgGOb1HgxNQmQAAmkmwAt3tJNmOWTAAmQAAmQAAmQAAmQAAmQAAmQAAmQAAlMSQIU3qbkZWenSYAESIAESIAESIAESIAESIAESIAESIAE0k0gJVfTdDeG5ZMACZAACZBANhNgSIZsvnpjazvd+sfGj7lJgARIgARIgARIIFcJUHjL1SvLfpEACYwbAYop44YyKwuioJKVl42NJgESIAESIAESIAESIIGMIEDhLSMuAxtBAiRAAiRAAiSQ6wQo4uf6FQ7vHwX8cDY8QwIkQAKpEuDvaarEmH4sBMbjN5zC21iuAPOSAAmQAAmQAAmQAAmQwDgR4GRynEBmaTHjMbkbS9d5/42FHvMGEZjsezqoTTxGApNBgIsrTAZ11kkCJEACJEACJEACJEACJEACJEACJEACJJDzBCi85fwlZgdJgARIgARIgARIgARIgARIgARIgARIgAQmgwBdTSeD+rjUGcPwkY9w9aV3MGyWt+gxzNy4HoUR6+Dwkddw9f1PzBT29v0oWL0ChbV2QvtoXPr7V2PW+loE3iixI7hy8H237ERp3VTcIgESIAESIAESIAESIAESIAESIAESIIEpQSBQT5kSPc/qTh7BlYZNGOoN6ERvL67dvwKF621Bre8dDHUEJQSGOnbhy6p6zNqzEzO1/haX/hSmr6h1zxtVDh7chKEO40DV/UqkM45wkwRIgARIgARIgARIgARIgARIgARIgASmLAG6mmbdpY/hmim6VVWhYPt23P3Kdsyqrw+2TNN9rKpHQX09Cqqq9BGgtwNXn3vNazXnngXQi8GPYp4j1s4Rr+gWkIKHSIAESIAESIAESIAESIAESIAESIAESGAqE6DFW9Zd/RhuOgZs9bi7fScKdR9qgZk7d2I4SCcDkP/YRszWlnDiJvrIJgxJ3t53MBRb77Nqq0J+VS+Ge4Hhdz7C8Pr1XlHvyPtWXrjpdDP4SQIkQAIkQAIkQAIkQAIkQAIkQAIkQAIkANDiLdvuglifYZ12CrcCRLZ87TaaqG+RWhTU6wS9uBlUziLbMq53F64e0Wmtz8H3bR/T+kXId4RAbxrukQAJkAAJkAAJkAAJkAAJkAAJkAAJkMBUJkDhLduufmQFCh1P0V5cfaQBV44EqGYj9iuGW6cSJ5q++jHHym3ofVN5c91MC1avTlwIz5IACZAACZAACZAACZAACZAACZAACZDAFCVA4S3rLnwEM/dsdwQxicE2tOkRXFjcgCuvHTGs4RJ3bPjIQVx1LNXqUVAbkN4U+Trex6BO4riZhuTT6fhJAiRAAiRAAiRAAiRAAiRAAiRAAiRAAlOYAIW3bLz4kfW4571XUOBYvkknejG0axMuNuxwBTJf34Z3iUC3WP27uMldjrTgFSNOnCdPBDM3a3/UDgzZRm+um+lqN76cJx93SIAESIAESIAESIAESIAESIAESIAESIAEKLxl6z0QqcXs9pO2AGcocL0d+HKH6RaaoINV9Zj13knMDrJ209lqV6PA3lbuprHXcM3W7ApWJ8qoC+AnCZAACZAACZAACZAACZAACZAACZAACUxNAlzVNMuve74S4GoxfGQHHCs2cQvdWRtnjZa//RXMXmGvvBCJGO6qiSBYizAMidjW8T6u3X/Kcmet2o5Z1N0SgeM5EiABEiABEiABEiABEiABEiABEiCBKU6AwluO3AD5yjKtA0OqP/Zqp3Grm0aQH4k7OCKBwtX1+LJDlLdTGHzHCgyX/9iKJIW7EYtnAhKYWgQuvI3LW9swfPs28p/ajzlrShL330ifOCGA5c/i3sZqT7IbrfX4qsuta/jt53D59T6VZsazP8FdOrlRT1y79Lnav3TK1+V4yrBrDj93AQPPbcW1M7W4q6MRM4yW6nYah5zN/KeewrS2Nty4fds5hrwKzNy3B0Uj4HMzTLEtfc3SfZ8Z9SjCcdfFvuZ9xrWThL50+vrH3XtT7LKxuyRAAiRAAiRAAiRAArlHgMJb1l3TI7iy+CVg+2bMWlGLfKWjxTD42ku26CYdWoRpqetr4SQcUa8Xw0p3q0KhtpwLz8UzJEACDoEefFX/oisc5S3HXT9pxLQLb+Orep+gJHnkvE+YQsVTmLNnTbDg3dOKz3/U5dSWaCN/zVbM/HgrrvXdxo2fvo3haqvMGz+zxECp5xtrSqDFM09ZXT/C575qbvzoB/jcThQsmth9XxDFnD0Pe4qDtPvFs5aA1tiBexth1Xv++7gLL+J62T5XmFyzxsmrRJokPeqdTFNiY+Lvs+FffqxEZAfv7T5c2/ocMJIommw6p2BujJ6A+R0MeYb4BdSRKvMJpyq5LoMC/Uj0eJ4ESCCNBPSLHKeKRM8reaGXaHwlhehn2whpk6rXaRQ3pjYB+3cZ8S+iTS56LB7/kjv8RbaTX9+3vjri7lPANgT4zDtXcQoK2Qiaq4Qk5WGLAIW3rLwTrIUUhnYFNz5/+8Y4N9PglMkercWs7VUY2mUvg1r1GArGU9hLthlMRwLZTsA/uCu5z+qRcTz9olIJirZGMSRWd32v43rPGtx139u4LkKWDE632hPzNXtw1/l6S/x6+JeWlV5tLWYcOYIbSkQLmcAnc41ud+GrH9gKXt5yTKPVWjLUkk9j3E8qU1rvs3LM3K8tD7Xw14ebnwHwXVdXmHXTDf3yAopGsvpMvudMqQfapnWoptL3Oi7/4HW9Z33qCak+GmA1q0/pT/MZpScF+pz6pEDvwcEdEiCBiSIQYmEdUL3zslHOnfkYX19Yg3zfb5bONnLa5OvVZfKTBFInYL5ES/AiW9/HJQ+jYEEbrp05i1sXfGMy+7f/zl+6XjBOe+wxJMRDpg3Wy3FY3jqIygtx2N4rTg5uJEmAwluSoDInWQTTq6ow1GuLYGbDqqpQsHkPZteOvyqWv+Ix5O/qVfHd6GZqQuc2CUwQgaBJ82irLlmD4to2fNUFZfU2UG5buy3/vuG62QOgFsOvb8FX9/0EczrWQE24ZUIf0BYtqpgTcdMazpPHfksGcYPVlmseq70f4SvVty34/HUg/k3faDvOfCMSCLi2ifLkr2mMt8LMq8B0W1MOzluNglrgRhcwfD5AoQvOxKPJEChZo76rnqT2d0t/Rz3n9I4MytXfZxh47kVlEauPeD6XP4u7jAP5FOgNGrm6aU72Ql64JBJ8g7BowVcmiP685jmVN0TU8KXTVhwJ7/OgtvBY7hDo+Zn17PLdG8Nvt+JrTy97MGS/bMxfcAbDfX0IfwmURNqk6/U0gjtThYD/Gefpt/EiWh/33b/6cOBnwItscxxu5enDtS0/wDXZ8fyGX8DXH59RXjbF6gWojMcQN8Z38sq5161xuUqXp/7nfykQoPCWAqzMSBrBzPZ2zJTGxGLWQgeyHbJYQv76dpSsT77loekj63HPyaCCajH75MnkK2BKEpjKBHyixoxnn02eht+KKfmcgSlnPBlF/hHL6u2ahHwTMcwTH64aMxqrMafsLC7/9G3c+OxjFStOCnOEMD2YQC2sH21AJuJzYL1Bs9KZk7aH8bWK8RbYJNWGmdGzuOa4mkZVbDcgYOLFH/wQiPGDpvTeZ/HXZsaz2gIurIn2REbcG8oSKnRhBfB4AgJagPAnERFdhGzPX5yF230o2tOBIkmkv9+G66gcvtFqlkCB3qSR9dv6mk+QxaTwort61t81GdiBco8lfdwLop5jVuiPij/GN75fjss/6sLwx7/E8JoAYTmVtBih3gwkxSZNAIG4F2K+cVPI+N4U0FJ5ke2Mw9vK7bA1dn0SX1nG+fo3/LNfYugMkB990o65XI27VEx3zcQcvwd8N3QyfiZNgMJb0qgyMGGI2JaBLWWTSIAEhEDcj2uPbdmVBJ7y+5CPcfwRLFmDb0Q/dhZacH94rbaoH3zbxPzeh8XE/Azyn3oWBR+/iGs/+gEuV1Sot8RBCzok0ZvQJDfPnwk9F88vPOmUPjPJ95kZO9C8DnHCT95yR7A103F7bARm2PESVSlaSBmre3hokyjQh6LJxhNxE0RAxeL8UVfixYBGaTFpIaK7ejbeKhnZ5vvKkJ+Xh2GxAqpHfKxcu9E3jlmm9vl//DDyq+/DjLwjuKFDb+gFp1JJm2S9GcmMjZpwAsNv7/NalYfce46A9nqf/cLbnAMkepFtW7Ld7sNXrUtx79JjVn3LyzDtAnDL7vHQT9swLPHfjHAfptjngDGNBpQ13lZg31YM/bERh9lJzI1EBCi8JaLDcyRAAiQw2QQ+O+8NXh/YHvvH2GeZEphUH7zwNn7X5opcw237MPCwYan08FbMwT5c3vID3HzWcDXVq1OWlyP/zBkMSzynswkWftD1hX0uKMM0fe52l3I/nPFsNaZ9tgDDr7+urHrN1U91Un6OM4FR32clroWUY5n4Oi633uesgBvY0jhxMDAVD6ZIIMzazePq7S9TrN6edA/GDbyNmG3ixlfsJrUWQ6FAbxDJ/s2weyhOOJeujtliUqyk6a6e/XdNhvTACKMB7YIXFwDetbiedp8VDGv6AuBGH3DjWA9QbSpvSaZNqt4MYcRmTC4BPfZevtyKmYxaKE+PF1txw7+o2ihbeqPVWkBNZTd+v9H1Oi4fOY8ZtVbBBd+PYujFNnz1XJmzeJuIffc6a5mZQt8a5Nsv8q5t2aJiQs8o/yVuYI1tLTfKxk6xbBTeptgFZ3dJgASyk4DlkmfHX9Bd0NYst2+rt2H33nfBisOoz4d+XsDAPh3X7SnMPNuGa319uPazHhTZ7qb5JSWA/QMsE/HPfyT+qL4VVxsbrbhv8mMuQdvjJmEhDdADYrWS0sNujDB5k/aXW3FnNZBfvQeWpV1bSCE8nA4CY7vPSlD0/VpckxV2z36GYVS719ZZNUtH/U1H61mmY+2mnw1YYAVGdrDbA2nfKme44D5bnIG3LqP2L9Uqw18dsV3KtZuK4KZAn3M3nXMPSc/0PZA2i0lViRWoW7/UUeEMjJdAgYRdQYTu6oGApuxBdf8uNVZ6V9Zv9urp8hzUrqN5y1GgNLYS3PnHC4C+PuDIMdxorHaFhBTSjljvlL0i7LhLoAdfycJm8vvbuBRDRyzLy2lrtmLmx1s9ApibJ4Ut+0V2vmn1HpD9RusR3JDj92nPl9fxu7cfRvH5rU5IGU820+JNn7jdhxtdfbhxFo5op0/xM5wAhbdwNjxDAiRAAmkg4MZ2yH/qKdfaK6Qm7RJhvZn1BT5Vb3I7rEGiBFDfarlWOA/2C/ZqpQD0m11VjRkI+Mk1KPrsvCWWdP0IXy39Ce7SL3yNoOz3PvszfC6CiiGamU124r4ZByUmxeWgPsa9gbYz3e7DtR9tMUqwNh2LOOeMJR7cUqsrOYqCc5YbQmAi7rMefNUKT2xAfb/yGkweAa/FmgQN7wHERVziu3QstRrmn4yO0NwZS2uBri5cf/tJj8UbBfoRwGXZ6TBrt3RZTIbhobt6GBkeT4pAdSPu/UmjqGz4qv5F3LjtLp7g/EYFjWVud2GopxEz7DFQKmlVuxLUm1S7mSiHCciYTO5FeVHeiBnowZDTW/Ec+EvcrH8Rl59LUcgy7uP8p+wX2fqFSUCsThmrFzj1AvkP/zHy286oha7cly7S1n3A1uAXIHqMETTuN4rmZgABZ34WcI6HSIAESIAExpOAfmskbnY/kUClPfjKNuj6urUel7tuW7UtX2qJaVo4868SGeCmN/zZWUAGlz2NmPaZb3nwiqdQrMU0qfNFO75JdKu1imnJk5hZcUTFgHAnPBcw8NMj7mpHEkPdXFjB2nXi/+hdz6eK4XUfhhyjNdMtUVtTfIyCfXusYO7+lZzswYOnTGOHK2IaMMzNCbrP1OTkyIv4XN+3RhtmfH90gXjj3NkC7nWjGm76CGjhRK/sqAbIauVYSXgW158Dijs61Mqk6pysdOZxNQ1Y1dRwVZEA5LfKfZVSoPcByd5dZ+KlJ27ptphUqMzfBf3CgO7q2XsXTWLLe1rxFRrdl4dxTXEtJeNO2Qdcd9MU0o5Yb1htPD41CGgB+La1qqgzHjd7X4279kVxeWtboPiW8otsKdr0QrF/p80a/dt6/OAc1yuhOge4MVYCFN7GSpD5SYAESGAkAhc+wy2ZwOwPfnsk2e8MMA2/8TPtDvp9SyDT9Zw5r4Kjug9wvSR4BabLIpGu15hvQQf3jZusYqpXIgVKULQ1iiExgRfRpvU+zCn7qRLi8p/Sqx1ZlXtWVtLtMT7VDzf+Evf+RI8sLuCWxE8x0jibKq6Y7eIqhjhi8RbwQx9n8aZ4ckVMh6PemOj7DNUoqIWKy6ebAL946pzgxkQQcIQTGWT/oMuqsqIcN53Kj+Ar57i8ANhjuQM7rqbGqqZOHu/GjVZHSbcsKynQewFl+Z62ZrC6kV6LyXhUdFePZ8IjqRAIHKPkVaDg4RKg52fWaqYBv1POfa/dTR030wqfuz6s2Jave11TE9abSgeYNucI3Gi1LN30AmWf/8B+ya562uX+JotQpsU3f5zcVF9kJ0Hx5s+ew+ddfSpe28wnqzGjpAP3NtovP874w1S4BTrfFfcQt5Ik4M7bkszAZFOHwKJFi6ZOZ7O0p6dOncrSlk+xZgetFJcEAplE34XncOtJLWJVozi6ADdeN36ojXLyn7It2DzBUY0EIrDt6bCsy8zDsu1r43DPMeTnwRqsGmnjTMt9b9HUxN9Ir0Q9FffLjgPnOWfHjJO4cj3HrB9/sX7T3qOOxZsdg+V1owwZOMtAmn8uAd81dE8k3hr1fSYWkAGCsbe2BPeckXDkcozE3ExAwHizrl261ffIylKwtcP6ftnfrcv1570r/xnWbQkqAfKss3p1Ngr0CWllzUlt8TBxFpN0V8+amyMbGuqsLmoIG47IJrFtLWt/1PpeZkoMUu1yp9xNn8QteaEgfyOmbcSMhPVmAzi2MZ0EPOObNXoMbv9W++OtohpzOqzVDUb9IlsvljTC7/n0J/fgLvHIDvoLeREelJTHkicwJuGNwkzyoDMtJQWbTLsibM/UJFCNuzo6EnZ9RuMez3kn8Lnn6Pjv5Fc3Yo7ZNCd2ia+usONmsmTTmPVJflNIksUWnJWWzMK5PTKBzL3PRm47U6RGwLzWMrCvx1c6zstyY7JpfrfMCkzXFPO4sa0mA/acFPeVU6A32GT7pjNBnDCLSQB0V8/22yZz2h/2XFMtHOElkD9vtRZIArrnT4s1jlgSkJqHSGBUBNTz2JNTWwQbL6HN8/KyTV5kawt28/fc95LczBa47QjW8Wdp8RbPJNkjYxLekq2E6UiABEiABEiABEiABCaSgCnCjVBv3EQyPL0jzkiSEgr04aSy8czEWkyC7urZeJOwzSRAAmMmkMLvs1lXMi+yg37PzXzV4lJqFmpujyBQi3VoqFeNWQ63gwhQeAuiwmMkQAIkQAIkQAIkQAIkMKUImJPBCbCYpLv6lLq72FkSIAESmMoEKLxN5avPvpMACZAACZAACZAACZBAHAFThIs76T0QZGHhTeHseSwmnaPcIAESIAESIIHcJnBHbnePvctYAv2d2BaNIhrdhs7+sbayB63RKFp7xlrOeOTPpLaMR39YBgmQAAmQAAmQAAmQAAmQAAmQAAmQwGgJZIfFm4g0ze2IIYKGvbtRVzra7ko+EUZagKY2SPzBkf76O7ehuR3B9fa0ItpyPvjcSAVPxfOKV7fd8xo0tbXBugT96NzWjPZYMJSaEa9VNdY2RNDcsg3zU7k/1H11FMuSzNPTGkWLbr7TVOlHo90POWi35VAn1lbXYUy3qlMHN0iABEiABEiABEiABEiABEiABEiABLKRQOYKb5kg0vR34oCtBrU3R9FuXuGaGtR0WypM3LlIAxrK2tHuF2lqmtCElgDxxig40oC9u3NUsKluRFtbI6AEr3NGp63NSMNe7PaoqpYg502ZWKSLuxYA4svVVVdjXcNRtDS3otQjnunz3s/qxjZI850/dY86e85Gad061LQfgxjyUXhzsHCDBEiABEiABEiABEiABEiABEiABKYcgcwV3iZdpOlBq1jZ1TRh7/xDaG4v81g2iSXcgYa9aCt9M8TqrQ51SmPahuZz69Bmm9f1tJpCkFjfHXKttETIOTTl7sFRdXhkKzgp1hLpjobVUFqK6rrdaDoXRUvrUucahSV3yltmCISR+Si1rSj9Omt31DiSy4JqODCeIQESIAESIAESIAESIAESIAESIIEpTSBzhbdxvCyjEWl6WlvQXdNkizHVaCttRbS1R1k8iauqdU7smRqxt2Ebmg90ojpXLdXG8VpkYlHVjU2oibagdWly7sdlpX47tmo0trXBMYazLfrWJWFFl4k82CYSIAESIAESIAESIAESIAESIAESIIHxITAlhLfRoKpe24BIcwtMoyWg293v9p+LoTkqzqj+mF/xtcfam6GS6lOmG2ukQR/NuU9/jLQWG26koQnLAMRxsQnUpJtEzzEo27QR47L141wsgvm27tbffx4oW0p30nRfH5ZPAiRAAiRAAiRAAiRAAiRAAiRAAllKIGOFt8wQaUYW0TzXPSR2mSeNJ+bY1HI11THSrAUrTNfdfnQeNV1wNbGgGG/63Ph99hzrBmoa0HC+HW/21IUvutHfj/Mow1K/wdv4NYUlkQAJkAAJkAAJkAAJkAAJkAAJkAAJ5BCBjBXeJl2kKa3D7jZZBFVWLjVidYVcfMud1c4j0cXUaqh6mU7bOk4trhBSwJQ53I+eo8IlBrF4sxY+SL3z3S1Ry0otiawRMacL++vvxCHR3ZrqULf0HKKJrN76zyGGbtVut7gWRKFdkt2j3CIBEiABEiABEiABEiABEiABEiABEiCBjBXerEuTISJNwsD4wVZZpXW70VZnC3C+xRXiXCqniKupuqY9b6IdEURQhnV75+NQczNaS/diftLfRXH3FKEsmXhsIyyuILrqm+2IRRrwTLU0YC0aDjWHW73pBT+MtirLzDih1UqgXWllL7n2GgVzkwRIgARIgARIgARIgARIgARIgARIIOsJZLbwlikiTazdjt8Wfr1TiUNmWXmJv+LUcjVVq4IeOo+GdctwtOUcIFaFe4Ftb/Yo4S1OkLRxx7N146yFXxE5U4q63W2oC0tkWLtZ3qOlqFtXg2hLK5amuDCCFlpVVVxcIYw4j5MACZAACZAACZAACZAACZAACZDAlCKQwcJbPzozRaRJaPGW2v0iLrTKuCoom1hUhZ4MypBlx0RILVuHttJ+HNVNF/GtUSzT2m23UzOAWoA14bjFWetH54F2xGqasNtkXt2IppooDnWuRXWd2RbdYBFLWyw310gDGsqAiF5tQSfhJwmQAAmQAAmQAAmQAAmQAAmQAAmQAAkAyFzhLZNEmiQs3tTdVDNSrC9DtDFvP9PVFBE07N2NQM3HzJOF2z3HzqNhbSOAzlG3vr/nKGKRZWNeSbSntRntsRo0eVQ3q1nVjU04FhUXWNOdVV87WXCjDdILZcG3rR0p+MmOut/MSAIkQAIkQAIkQAIkQAIkQAIkQAIkkH0EMlZ4yySRBklYvKnFFM6F3ADd7uIKbY5oI2l9rqYh2XPlcHXjbqsr/aPtkRXzL7LsmTEJb3KtWrpF4GwMsT6sRmOTuJxuw3xHBK1Go+fajbYPzEcCJEACJEACJEACJEACJEACJEACJDBVCGSs8JYpIs1obwQVdF8thioWUrtDBJ7Rlp47+Tyrv8aaEW0P6JusYCri57pztpVakAtoQL6AQ9Z1kWsSJrrZmcTtt6kV0eYozoUu5GAt9FC2rAfbou3Qa9jqas3FFYAk6tQZ+UkCJEACJEACJEACJEACJEACJEACJJATBDJWeAuiO9EijdOGpF1NnRyQWG5tlj+ifdCKV9buV2fkrMfVFEjGws6tKbu3PIsSjNAVEc1kdVAzJNsIWTynleh2vgF72+qSs5gT8W3vfGxrjmJbw17sFv9ftXCCIbKJe3FdNVAXuoSDpw3cIQESIAESIAESIAESIAESIAESIAESmDoEskp4m0iRxrkFRHzxKmjOqdQ2RlhhM7XCsju1LKjQlnoXEi5MkURxSgxNIp0niWqrIar59z2JuUMCJEACJEACJEACJEACJEACJEACJEACLoHMF94mSaRxEXGLBEiABEiABEiABEiABEiABEiABEiABEiABFIncEfqWZiDBEiABEiABEiABEiABEiABEiABEiABEiABEhgJAIU3kYixPMkQAIkQAIkQAIkQAIkQAIkQAIkQAIkQAIkMAoCFN5GAY1ZSIAESIAESIAESIAESIAESIAESIAESIAESGAkAhTeRiLE8yRAAiRAAiRAAiRAAiRAAiRAAiRAAiRAAiQwCgJjWlzh1KlTo6iSWbKFAK9vtlwptnMyCCxatGgyqmWdaSKQrucd75M0XbBJKjZd98kkdYfVkgAJkAAJkAAJkAAJTACBMQlvE9A+VkECJEACJEACJEACOUmAwmxuXVYKs7l1PdkbEiCB7CPA39Xsu2aZ0OKJ+P2m8JYJV5ptIAESIAESIAESIAESIAESIIEMI0AhI8MuSAY2ZyJEiwzsNptEAikRoPCWEi4mJgESIAESIAESIAESIIGJI0DhY+JYT0RNFCkmgjLrIAESIIHMIsDFFTLrerA1JEACJEACJEACJEACJEACJEACJEACJEACOUKAwluOXEh2gwRIgARIgARIgARIgARIgARIgARIgARIILMIUHjLrOvB1pAACZAACZAACZAACZAACZAACZAACZAACeQIAQrpLTnFAAAgAElEQVRvOXIh2Q0SIAESIAESIAESIAESIAESIAESIAESIIHMIkDhLbOuB1tDAiRAAiRAAiRAAiRAAiRAAiRAAiRAAiSQIwS4qmmOXEh2gwQyhUBR9HmU/utVGHr6EZz/ze1MaVYOtqMHrdEWdEcasHd3HUrDetjfiW3N7YgFna9pQltjddAZAHb5cjZhOjd7f+c2NLdLTTVoamuEv2T3vJsn0rAXu+tCW+8m5FbaCYzm+vS0RtHSPdI9YtxL/l4keW/5s3GfBEiABEiABEiABEiABLKFAIW3bLlSbCcJZAGBOX/1f+OBzRVWS9/7MQbu/W9wGbb49tDzeODlVShMpR//8AE++Rd7MKDLSCUv045MoLsF0W4gofgViSDSfQida6uRWB/rwZvtQCQCxOJUvn50bmuG0uR8rYq1N6O1tA2h+p8vPXfTQWC016cHx0R0k7/uY+hprI4TW+2z4R/qHgwWasMz8cz4EaCAP34sWRIJkAAJkAAJjIYAf4tHQy3b8lB4y7YrxvaSQAYTuHyqD4AtvOFP8MAvnsNv/8gVzgoXVqQmvGVwX7OuaQGWRdrCScSv6LkQ67eyMpTFutH+Zg/qEqhj/Z2H0B1ZhoayWJzw1t95wBLdAqzzxGLqWNbBzK0Gj/b6qGsOEVsjiMW6cahzLaoTqbNx118Lft1oaV2awPoyt3jnXG8o4OfcJWWHSCA7CVC8yM7rxlaPCwH+Fo8LxnQWwhhv6aTLsklgqhFo+1f47Usivtl/C/8l7v+rb+k9fmYYgdK63Whra0KNtKu7Ba09QQ1cirUNEUCs3vqDzssxsXaLIbKsFDjvT9OPnqO2+2mAS2x1I63d/MQmdn+018fNt+6ZZYgAiB3tQegtEtipUtTttu+/8/0p5g0skAfTTUAE/LY2z7+98nyQ6y8CfvBDBBABHzEl4Cdqohbwl5XFp/IIxL42NKmHWHweHkkDAQlfEI0GX2t9LhoN+T1JQ3tYJAmMJwERL6JRbAsf8CjTfuUJMOIPnusJEN9EefEUtcNzeM8qT4DA8Zg3HfemMAH+FmflxafFW1Zetolr9KJFiyauMtaUMoFTp06lnCfdGQb+qgn9f/omShdaNRX+6Z+j6K9+i4HfvIBPHvmPKVb/W7qZpkgs9eTVaNzbgPPN7eg+1oPGan9kNqC0bh1q2ltwtKcfdQEWTZblUw2a6krRfzSsBefRL4NUhnMLAzTJx1O8Pv09sPTUpagurQb+f/bONjSu8077VxK7K3mbUsttwbMyU8uKCiGG+Om0ihgIIU3VTRaGVfSAJ9NAPiRpgxWXMAykyodg8iGqQQxhVZlsk34IpJPxB0VFH9LWmycUwyArnW4MDoHIst1B2gk09ThsspZ342we/vc593mbc+ZFGklnZq7BYs65z33ul999PHPmOv+XeB7ZwiKK5UQdl2TvNCM4oFS7VSW88fLw8gn/vhLwE6aliQj4w35iugj4ayjka7mtmwJ+chyo+hyxhd50gIBf/ckVfnadNcIiZlU80SiS01NNfg50FgnOpk0I0BOgTRaKw2yEAL+LG6G0s3U2JbxRlNnZxdts72EUbTY7J54fBgIXsPbUq9h75gdYP/UyyifetMSz6+cvhGGAHIOXQCSGkWgepcA4XTEMx4FCfh7FhDdpgvFjGfFxFd9rwds2IoiNRJEvlZDPzCLik3Sh6hQWbCOBja1PubioEnbEhw25I6YukEKgOBs8oTJWxSAyeoCabDCkNjhCAb8NFmkLhyjWO1kYeVYoum0haDa9xQQoXmwxYDa/xQT4XbzFgDfVPF1NN4WPJ5MACfgSUNZto1g5MWeJbr71WNg2BGJjSUQhcbzcvhWGtVsUybFgexO5kTVcwQrIiovS5ALdCkO08s2vjym2Ig5TdwNiw8pluSTibMNzM62kRHcbiVF4a5hbSCsqAd9MtOE7REPA979GtIA/HJCgwxCIIe6qmdkmrjHfgbCwxQSKs0byHEnUUyMUaIt7ZXMksFUEDPFCjLHFE8DvpTwBUFIPm/yOa0+AcR8vAbu+aWluF3CLBDZPgN/Fm2e4RS1QeNsisGyWBLqdwPXzZjZTAH2vr+D7f93432Dqlm7HufPzN7/I3T+aTfev6AhidXwEJZZbblrEOxUMChkKcDu/po4RNLU+xSVl2YK4UyQxRBWggIDfKRIEzFh3WXv1Z1jIIJ7GVM0fJ46BcrOtCVDAb+vl8x28JOnJ1suOLWcWZ83/9/r/f7WAKm3JZ4OECtTb+kGN3vceW5g12vMPLyjiPh/2+C4cC2sToHhRmw+PtjUBfhfvzPJReNsZ7uyVBDqOwJ4T/1Ytrp37OfaAoln4F7sRd78IEuMSwdxh9VacV9lK4+OJxqyVIglMqaDo01Dx2JUQM1kjaUP4yXXUCBtcn+KSOJRVWzkqd9MaFgJ+rOLpHLOZ+oHp1DIK+J21ssVZIzh8HfFcslenRJ1zvcQCOuDzv7yAmbz4oPu8PMdqfe4YVkdAw99RPt2xiASCCFC8CCLD8tAT4HfxjizRpmK87ciI2WlnEJAnn1kg3XS8J9s1yQIRTWJ6fBWZqps6XaM60K88Oc3k4R8AWI1tzf+YbpLvJNBJBLQFU3+ktoCm3AkLKEj2ykQMxTkV0cd2N2yYiWSzzCEhGfAyeeRnFhDzCZjecHOs2GICtdanCKW7KZe/FPJ+PQfFCpTPaq6zH7EOKWtcwM9nRcAfQ0wsHbWAn25GwE8AkLhi4uIolpSL/M7e7qtobQ6ThRIg/69r+JfK/Za6PfP+/1f3WgWV6TbhOb+Qz0NE+SlHBAMd5KD6WBnJaAH5qs8dOyGH5RK/3YzYX2cTUOJFHnlX/FvtCZBszBNgzLgPKqnPsbzx/4nfk5193Wz57PhdvOWIN9hBewpv6sfaKsabFm02SImnbS0B8+arZieuzEO2kCZPUecOSGyg1YAvKxHq5txNO56W5jOeH47xOOIF46ls1bFoEsn+PPLeh7bxNNLIGjeW7p7sPe8Np32kK7Yqjw7iXWum4xj860n06f0zz+LdR/UaHUbfiX8CTpxEBbarqq7K9y0gIJ+nxq+imnHajJ5jGEtGIT985mdXYfzmGguIydTAWM2b1lKJGS0boLX9VXzWR1uQ1B6MQ1SpXZFHO4kABfxOWs0G5tKP/mgJIhjMFxMBsd1s8asqG21sAul4AdkqwQwQ93OPFmePp+qYThAjbu4TsBJzm5mXo8lNfEfZvXKr6whQvOi6Je+UCfO7OLQr2Z7CWySB8XgK2dnhBlxUfCykai6HLerYT1M9J5giCsRqanXcPQb5ETsDHHc+rWhEWDK7kMC0XRfrJjaBXBpIzR3wtYYQcS3rWQJjVywvohiZjshSNfgy093H05g+MIdMvt9ldSdPZmeS08hF5pHK+lm9JZCYMGKPONe+OCu6n147Q+w7MG1m9pL117pSg6Nsx2rXT/wQ754AkPoVvv/S/YFT6HvdIbrhCsrTb6q6e1K/wqGX7kev7A1edIhxgU3xwCYJqP9bppAcTR5HI2G2IrERRPMlFJRAHUftwMEyQMMqZXFE//+wB11emFGuqsxoaTPZ/q1m1kf/iJbfxTnfH8aGNXEJJWUV2aAF0/ZPmj22mgAF/FYTDX97/cOYmBiGuC8UspOw7nlcIzfFC4hbqfeppa5oBph3xAnV2ZJ1Dee73zEV6D6fRWFuAWMx43OnOJ9HSVzi6wUgdTbObRLQBCheaBJ8bycC/C4O9Wq1p/AGIDaRRjw1h4WxWJ0fizFM5HKYqLMM+geo349P5w8M9aNiMaAxU2CLJ6erKzRg8aSst6rP7KgSzVlPyrgRiyM9fQBRX6uXMsprkvHOcUemT5Yvxfg4cnJIhDdtpq2PW+9RJM3t4mwWBct6LoZcZBap2SJyE8Cs3DyqY9LgBKaTk8jQBc6i2JKN1K8wOGq3tH4qjTUzCcP1Dy4DMAW70ZMYTL2JlRyt3mxaAVtB1711nZvnFbII+t1ji8YBfTiL1YOPvGHh6Qqu76xUvV3KZ5Dy9Utk/J1qWttf0tD6mBYkcGYz9QzV+gFcWkSxnKjz/ew5mbttScD5ve53D+U3KQr4flTasczI/rgmIQMys4jsmCeKkdylUNCfO6ZLfAOJf9qROse8xQQoXmwxYDa/FQT4XbwVVFvbZsiFtwas1byugopP3GXFVBOZfLhm8iiJMJYLfjqvRLED0zge0JjxlF9ihuX4QyOAkRSrzHnaYsxlbVbEEhZRFgHNpbHJ09IoRo67Cg0rmrkC4uMOSdVX3HS7mqpAqBmvAFGwBYkqcaKEjFIL6l9TVT9cnddmVEt/NeB0/KFxDDot4S6/iksn3rdnff4XuHTqB7jr2EFV1vfSv6Iv91O6nNqEWr/lFeca7EEFsy6sNeCaKg0a8cJiKq6iJ1i27//ZBgfBai0i0Pj6GBYkYt1by3VLuyOXfGM3tWjQbKbVBCjgt5po97QXSeB4chGZvFi1eWP3RnBApbLe+viO6v6ukMdisYxExMi8zKQK3XMZtmqmFC9aRZLtbIgAv4s3hK1dTgq58BZsrWZYno34uiY2Cl9/uHoDuDZ6vq5njaWGcBdsjaVbMd67Q5/R7kr9jsnLzVkJq17hTZl69yNdpbsVsViKY9wReNfRWJ3N+iKaqwElzq66ivx2bKuh7nQ19WNilx1G/zm3i2nl9xfR9/q/OnTWg+gdNEQ347z7Mfj6w3Q5tSF6toI/H10VVaZKCUTe7KtG++IenvNrzwzK73MokphCbiPD8GmLRa0n0Mj66Acn9XqvbqvGtVSvMR4PPwEK+OFfoy0eofyfT6+mkC0UkJ10hg0x46/l88hMouqeXe7Dl4b93dabHrIOdL9YxEK/uLXGN5D4p+leeUIYCVC8COOqcExbTYDfxVtNeNPth1x42/T8AhsQsSy7VtvKLfBkz4HqHxmeCrLbgGWHsqrzObXjiix3JSPmh+HKa9ycLXpM3oqSPi+erg7e7hfnL+iLVmJ8aIhKhADQYNw9Y2wJTJkig2HZqK12TMs5lVxBd8B3PwJ7TmQRGXAeOYi+YyedBf7bdDn158JSEiABEmgJgQZFUQr4LaHdyY3EJqaRXDOzzM5GrPjHtvu5ZJ+tjjcQH24VlQgS43Hks3kjdmgToRBaNQK20wEEKF50wCK24xT4XdyOq9bsmLtWeGsWlLe+iGRGdkuv26JZ0/nBLdYhDVhmiTVBA9W8Q2m7/XJxEYhGgVK/iu02l0lhVgXqHgFmiigntMuvEaMjnvanYriNmnH+hIISNyOYT2XF18EM/O12NXXBqimGGgHHvXZuWmRVApwjsYYkV6CrqYuua+f6iZdROea0eHMdrrnT97NnsSd3EteZ5bQmJx4kARIgARIggZ0jIBbPaaxKvFwJ2yEPt1WiMeMH5bAkyvLkV3DGUG7JuGPDiKOAgjxwHfO/d2xJP2wkpAQoXoR0YTgsEiABAB0tvGlX0uCV1vG7fGooUSb4S1uJZAfMrKZjZUxmFjGis1iq5kS4SRlP3Xyar1/UpDtk/QZDUqOI+TwwkuxHSQzH5Cl6ehWppSImJmIYQcZKS19emENB1iFoGUy3AuWeas3OCLA7Z1nOyZewJE6YxIJrfWolY7AaQ9zerLtFV1MD0Z4hP1RzKJ96Cr3/eAXrKwBWLqOyfFFVvPHBsnnC+7huJlrA3T/H4TNPoBdXIC6pfJEACZAACZAACYSAQE3rx2DhoxFXdf1w02+WtY5Z9ctlrMkOkypYSLhBAiRAAiQQDgLhF95qugT6C2f6CVqtL3krLpt6Ghe0GBJwzH71RyJG9ky7yNhyCkBWLDJPrCOZx5wz7oW3ke7YV2KaykS6BMvhwGERKG4CKUkHHwFm8iXE01OOGGBeRhFE+gHlnmpxB8QSbi4zj2JiAjEzeQaSaYx5T69p8eatXHu/prWiY361W2n/o3tO/JuVHEHNZuAJ3HUOWHnqJConfogLJxqc4/lf4D+euYgbuTdp6dYgMlYjARIgARIggW4moBPAMKlCN18FnDsJkAAJhJNA+IU3FcTbkbnS5NiYcNYq6GWU5RFaYBwKM3isWG3F/MyzyliYKyA6Ml1DRGrVWMPdTnm1H+mJGFBc8h9obALT5UlkMiUV223KD6d1prEu/cMO1U2O6fhvKcOnQQux1ml6IzAmnK5gvjvdhj2HjN2A7LvOrKbi9uC1uPNtq30Lq0Q3PZWBJzB45gmsX34H137/B1zXBm76eI33ntTD6JHjHyyjcv5CjZo8RAIkQAIkQAIk0LUEyguYU7d9TKrQtdcAJ04CJEACISYQfuFtR+EZVmtAEbNZoJCdxXDOzszntIdTwWNTWcz6ZmcqY7UElEoZ+MSVdc+whVZY7obDsRebqBZRXSMrLyhLNymLHvAIao6Kq/OTSBVKRlw3EeeKjoMAYhNpxAvOWG/u42qvAdZGLDefc6VIYpioxFlp5HI52DPzZDUNOL3Tiq8vXwGgs5JeQeXUFfQdu9+aZu/A/eh17FsHGtioPHMHKucbqMgqJEACJEACJEACXUNA3aflddIreWY70RXxkrtmgTlREiABEugQAhTeGlnI4pKKNZYeWUQ2NYt0zu9LPYaJdBwpJc55jwfHvHB2r2LSIdK1VnH65klipeUSwMJkBqnVtJUZy8nqwNgUcrbS5TwEaWcGxzE1ncSklbjBVWXDO3bcQInBN8WbOyfJ3B9Qeel+9OEKyqOjWDv/JfYs/wqHXrofvc56TW+/g4qZVbbpU3kCCZAACZAACZBAVxAI9HDoitlzkiRAAiRAAmEmQOGt7uoYbqLx8RxisQTSqylkJ41YbdapEkdsBjg+NYF0PIVsSpJqesU3q3bAhuE2GR+v6VsZcG67F2tXTXHHzCFhGrolpnKILUwilZqr66ZZFl/gUkGlqreTHCQwNQ0lvk0mpzGlG9a4GnY11SeIJV3OI/gZ2U8dD1vtyi5XU511VWdstat1ztYcKmeeAt4yRDeZ1/XcT3BBRLO7D6PvTjvrwp6HfmS4kDYy+ZUZVJjRtBFSrEMCJEACJEACXUWgoaQLXUWEkyUBEiABEggjgVALb7Z1URA6/+QKqnZVXK5qgaR24H5pxThncWQaOtZYbGIayckZFMsJRMR/VLkbGvG7RC+KTOQwLdlOJxfMNOrVYw+cl4y523Q3K/mBWLlVu5YaN1QizKWQUmtazdMq8XMdVdm3IphNeaznAmIHWm01vOFJotHweZ1ZsfLoD1Hxm9r5C64YbZXcnF8tlpFAxxFYXm4iqGHHzZ4TIgESIAESIAESIAESIAESCLXwVm1dtJkFa14gKS/MIN+f9ghC0s6UIcqtSYixakuqek/fWjuvzTDZwXOV8GX0HxO/0povt6vuhI86WZu5+/yaXfFg6wmkfoXvv2TGerv8Kt6/56QjU+lh9J+bR2RAurVdVFs/iNa3SEGl9UzZIgmQAAmQAAmQAAmQAAmQAAl0GoFQC287DVuJOYGDaF7IC2yKB0igAwjsSf0ckYeUguaezaBOuABg4AeIvO6u02vtHsTezL/6uqDeeGsGazlmNXWD5R4JkEC7E6CA3+4ryPGTAAmQAAmEiQC/V8O0GhyLkwCFNycNbpMACWycwNAP0DfqENl8WzpYs07vqH8ihvWVGaz5tsdCEiABEiABEiABEiCBrSJAIWOryLJdEiCBbiJA4a2bVptzJYEtJXAF65d9Ohg46Mpqun75iqtS74BDrLt8Beuuo8aOX5lPNRaRAAmQAAmQQMcRoPDRcUvKCZEACZAACXQZAQpvXbbgnC4JbBWB6yd+ggsnfFr3xHi7VCvG21N2RlSfllhEAiRAAiRAAiRAAiRAAiRAAiRAAm1FgMJbWy3X9g+WT1m3n3k797gnNe4To+0yyqdsU7ie1MPuOr9/FWU96TsfRt+deke/L6PC+G4aBt9JgARIgARIgARIgARIgARIgATaiMCmhDeKMm200hwqCWw5gcPo+9lJM0NpCzuTTKi59x2ZUFvYNpsiARIgARIgARIgARIgARIgARIggS0kcOsWts2mSYAESIAESIAESIAESIAESIAESIAESIAESKBrCWzK4q1rqXHiJEACdQi8g5Vv/RQVfFmnXtDhw+g/N99667mg7lhOAiRAAiRAAiRAAiRAAiRAAiRAAltAgMLbFkBlkyRAAkDf62fwD4MbJLHy/3Btg6fyNBIgARIgARIgARIgARIgARIgARIICwEKb2FZCY6DBDqBwMoVrFvzOIjeAWunuY0V4Jpua6W5U1mbBEiABEiABEiABEiABEiABEiABMJCgMJbWFaC4yCBtidwAWuP/hBr5jz6Xl9Bn7ldeWYM5Q/qTPDO47jrpfvNShex9ugvrLbqnMnDJEACJEACJEACJEACJEACJEACJBBKAkyuEMpl4aBIgARIgARIgARIgARIgARIgARIgARIgATanQAt3tp9BTl+EmgDAn0vzVvWb20wXA6RBEiABEiABEiABEiABEiABEiABFpCgBZvLcHIRkiABEiABEiABEiABEiABEiABEiABEiABEjATYAWb24e3CMBEmgRgcqjg3i3RW2xGRIgARIgARIgARIgARIgARIgARJoRwIU3tpx1ThmEggxgT0n/g13HTvYkhGunxrDhRMXWtIWGyEBEiABEiABEiABEiABEiABEiCB7SZAV9PtJs7+SIAESIAESIAESIAESIAESIAESIAESIAEuoIALd66Ypk5SRLYIQJnnsX708tNdd6TmcfgaFOnsDIJkAAJkAAJkAAJkAAJkAAJkAAJhJJAS4S3P//5zzUn993vftf3OM8LBxffxfEp5HqFY72c6/CNb3wD0WjUZ7XCU3T9fHOuoj3hGTpHQgIkQAIkQAIkQAIkQAIkQAIkQAKbIrAp4W1oaEh17hQC/Eaj63mP8TyD305xWV6ub4nkXDuu186ul75OnOvwt7/9LdzC2+hJfP+vJ/XQ+U4CJEACJEACJEACJEACJEACJEACXUXgli+NF7744gusr6+jUqmgr6/PF8JHH33kKneKMq4D3GkLAs0Kb20xqS4a5BtvvKFmG2RRqlHs379fb7re9f/13t5e3HbbbbjllluszwER9P76/Qdc9RvdCXNyhW+9+zbESrCnx7Cr0595f/n2t63p/Z///E9rW294P/t0Od+7g0DQ/yG/2fNa8aPSHWWNXCe8PrrjWvCbZSPXh5zHa8SPXveU+V0n//61r1kAvv2Xv6jfac57N33wyy+/tO7j5B6v3r2NPs/5zuvPSYPbrSDgd023ol1eq62gyDYaJdDIdVzvs3pTFm+NDpT1wkegUdEmfCPniNqKwOVXsfIvF5sa8p6fnURkoKlTWJkESIAESIAESIAESIAESIAESIAEQkmAwlsolyUcgxKXRvl75JFHwjEgjqItCFw/kcb7vzWHev59XMeXTY27kltG5W77/KZOZmUSIAESIAESIAESIAESIAESIAESCBGBDQtvFGVCtIocCgmEisAFXD+/mQFt9vzN9M1zSYAESIAESIAESIAESIAESIAESKB1BG5tXVPt1VJxNoVUKoXZYnuNm6M1CZQXMJmaxELZj0gRs4HH6p9fXphEKjWLsF8aYolYL76bH532KDuMPXebf7ilPYbMUZIACZAACZAACZAACZAACZAACZCAh8CGLd487bTVrggr2UIU0WgJhbkFjMUSiATMQAS6bCHgYFBxPI3cRCzoKMtbQKA4n0cpnsZU0MLV7KOMhZk8SgBKmRTyjrrxdBrIqyPIpjwLz3V1kPLf3HP3OHruDDj20I9gpDRwHB88iF5r9yB6fWK7VZ65Ays5q1JoNphcJjRL0ZKBNJJsZiMd8TrZCLXwnrNV10l4Z8yRkQAJkAAJkAAJkAAJbJZA9wlvxVlk8kByegqJCCDCWmY2UlMoiyanMSWVG3iJqJdZbaAiq2ycQHEW2UIc6ZwhbirmSizzNOkR1aCEswgWJjNYHJlGbnweqSyQzk1Ay6RyPcwlp5GLFTFpXCgNr72n9+7c/eenMHjsYEvn3jt0F4ALLW2TjZEACZAACZAACZAACZAACZAACZDAdhDoKuHNEGj6kc5NWUJLbCKHtLidztJKbTsuuM33UcbCXAEihmqxLJKYQi7hbFlcTedwwBRXXUdmU8j3p5FTQuoEppOTyEwuYHpKrB6LWFpL4viEiKwJTOViSqSbjeRAA0YnxeDt68tXADQnvK1flnOM1/qKub3yB1SWpWwZN3Lv68N8JwESIIGOIkCLyI5aTtAisrPWk7MhARJoPwL8Xm2/NQvDiLfj+7tLhLeyElCU4GJaSTkXWMS3aYnrNVk2BRjnUWO7EZdTEYOOV5/KkhYSKC/MII8kppVwJgJbFmtNWCTKWovXottKroRMynY4LTi21dDruCO3cHrt31RuBiv4gzGPD5ZxQ20NoS9zEpFRe3rrZ17Ff0yfROV8dcbTPamfo+eDN32P2S1wiwRIgARIgAS6gwB/SHbWOm/HD7xWEuP110qandlWu13TnbkKnFXYCXS88GYILEA8HgUKWXjDdjkXKBrvx0wqhf50tYWTEmwmnLX9t8sL/uVhK5XA/O33IVlGcbEElBxCmbiPJoCFyZQRms0J2uVqKq6ptkupqtZIzLbiLFJzzka5XZvABVRy2i30MPpOHMc/HLvfjuN2+R2sPPVTX1FN4sNFXj6JPhXnbQAro/71avfPoyRAAiRAAiRAAiRAAiRAAiRAAiQQHgIdLbwpKzWkkTOt3CYaEM4wMaHivqWW6HoqGTPD9ZQrgsRUDuJVaq2t6QOqy5v6r1VHiLXaiiatzTBtvPHGG2o4octsevc4+jNPITLqdDm9gvIzL+O6jPjOh9GnEzAM/Qh9gwAGD6JvwFn/fgy+/Czev+ckrqPaKi5M68CxkAAJkAAJkAAJkAAJkAAJkAAJkEAQgQ0Lb+ETZZs9e9UAACAASURBVKqnqN0Kq4/ULgk8T6yfAlKcxn2s5Gr3wqMbJlCcxdyBaTNO24ZbgZFsQUeKC2iHFm8BYGoU3/kjj+gmdQ8i8tLJGic5D11B5Zk0VizLOecxbpMACZAACZAACZAACZAACZAACZBA+xDYsPDWPlP0xvOqPfK6Alo06YkDZ8SPYyLT2lxbdrS8gMlsASUUoEOxGbH1ZpDxy2yqO65aN9R1PdanIqQWb9b4wraR+wMqL92PvqbHZQhu5dz7tHJrmh1PIAESIAESIAESIAESIAESIAESCCOBrhDeFHg/4cW1IhTQXDhCulMuLqIEqKymUyrBgjFQFVsvIGabivO36DOhgPqumrR4c+FobGcOlVM/AmBmJrWSLAA9/+yJ+SYNXr6Cyr+ksfIB0P9yFhHQ2q0xzqxFAiRAAiRAAiRAAiRAAiRAAiQQdgLdI7yFfSU4voYIRBJTKplCQ5XrVWrzGG/1preTxysnfoKKNQCfJAty7PI7KP/LDNbEpfTucQyeOWlYyb00j0GM0dXU4ldrw8jsW6jxYKGRjMzSg1iOGmK22aYUNiJOu7IE+yQxcR2352L3Z5dxa/sJbPj68F5zYo2cyaPkd83oY+qS0smL6l+720+DPZIACZAACZAACZAACZBA6wlQeGuWaSmPjPZxdJwbd2y3w2ZoA/M3CM/IViu2b4Y4MH2gwRPNapaApyzaDnjch5VSgMnMKsa9mVCb66a7a999GH2ZLAZdSRaA9TOv4j+mT7ozm56fQ+XMU+gz6/a9NI/DQ2O4cEJnSO1ulDsy+2gU0cIcFsZicBiX+gyliPk8EI2qhMOe44YlsZ8XeCmfwWxEizCe07jbQQSKmBVBDlEkp6fqXEsdNG1OhQRIgARIgARIgARIgARMAhTemr0UvE/5mz2/jer/+c9/hvw98sgjIRm1/SNerGVyuYg1rvLCXO2YbdERVdcl2Flnw1dMlcPZVMGu1UVrb0+6+a09qZ8j8rMn0DfgOFfcSX//Msq/XTYL78Ke1BB6dBXJboorWMdB9JplvcfmcRgU3zSijb6rZDGOjM76/0DdeJb9/egvFZCfLyJhZg/2G4P83ytER5DsL6FkauG6XnlhBkp08/m/I5ZWS7oi33eMwIavj4ZGLJ/ZWcinaDxN0a0hZDtSqb714YYtI2U+flaQPvPUn00ALWd98LCIBEiABEigownwu7ijlxfAhoW38IkydZYqwFLNe1ZNy7XYBHJ1kmCWVz2/PL0dcH8TBCJITOWQCGoh4OZe3cybMd4sSzezDfVjAmnkvMKCco2ixVsQ6uDyw+jzim5SeeAg+o6dRN+x4DP9jlB886OyXWXDGEuuoZCvZfUm1m4lRJPjQFUcxTKKi/J5GEd6KgFbJjfGL4JPnY/T7Zoo+9kiAsXZjBJe5UGJ9yN2i7pks2EjQMvZsK1I68fjcCWvajzgvsyoV/9HJqAfuHrF2EbOrRoNC7qGQP3rgw8TuuZi4ESFAL+LQ3EdbFh4C8XomxmEj8WF+3Tjy7357KT6pkC3Ju40/DmpaWzXuxLUAjrzim1w3CSK1U89MTWg2R0vFkvE5WVtQbbjwzEHcAHXV0Ro2+B4LovVm7wOotdsQ8S3weU7sJL7coON8rSNEogkxhHPZ7FYLCPh42+qrN1EWEtEUK4S3nSvayiXgSrlTR/me0cSkAce2YIzdmBHTrNrJrVhy0haznbNNeI7UTOWLmN6+tJhYTsSoIDRjqvWMWPmd3F7L2VXCG9VwovvmhnWVN5D9a0y6lhheRvk/s4TiCQwlQu0mzPGp+rs/FDbcQSVt95R4pkS0FbMzKYyEZ3d9M5/wqGXnjBdSt/Byrd+igpMUe3uw9hz/n1cx5foe30Fg6NA5RlJtEDRbWeuhRiG40AhP49iYsJjoWZYuyE+rsoXqgYYQWwkinyphHxmFhHGS6wi1LEFxVlkxMc4njYTdnTsTDmxugRoOVsXUadU8LFu0+7DEtMzterjXdApc+c82o4ABYy2WzIOeFME+F28KXwtOvnWFrXDZkiABEjAIJD7CS48+hOsPDqDG//4FP5haBmV3Bwq5y/guvx9EARKMpvO465z/4q+u29B5dExrCjRjQkWgohtR3lsLIkoCphbELM1+2VYu0WRHAu28JWHHmnlv19ANpVCanIB7lbs9rjVIQTW5jBpmLphmv6lHbKom5uGspxFSVnO+rWkLWfHfaxq7fqm5axdwK02IKAefOfSML4GspgttsGgOUQSqElABIwoIMmnAm9ozDAcIxFgzdtY/TAc/Or0MuN+Kwjwu7gVFDfXBoW3zfHj2SRAAn4E7h7H4Ll5RAYOQsVpe30ce3CLX02zbByDfz2JPtkbuB+DZ85gMAVUchTdakDbnkORGEYkY6lYvVk9mjeO0RHEvMHbrDrGhnqqPC3iHaQRZCjAeQh12m4/+mWxS3nM2xdMp02S82mKgGE56/4M0Q1oy9lhj0WtPm5YzgKG5SwvKc2lnd5jmDC/AwpLXMF2WjmO1Z8ABQx/LiwNOwF+F+/0ClF42+kVYP8k0GEE9qR+hcNnTrqymupMpcFTncPK6KtmfDepdRB9L83jcF3BLrhFHmkVgQgS42Kv4LB6K86roPnx8eqkCb69KtftHHK5aciDYkOAm6zxtNi3FRa2A4H+YUxMGRYuhSzXuB2WbDvGSMvZ7aAc4j7MBzgoLDke4IR4vBwaCdQkQAGjJh4eDC0Bfhfv7NJ0RYy3nUUczt6bCcz/xhtvVE1Czvd7+dV11uN5Thr29ka5fPe737Ub2emtu8fRn3kKkdGDrpGsn3oWl068qeK2yYE9dw6Y8d1c1YDzv8CF0YsYfNkW7XpHT+Kucz/CylM/ReU847x5iG3fbmwYcRRQWCyinIihOFdQ2UqHg71MA8ZmxsQ0E5zkZxYQ88l4GnAyi9uGgGHhspbJM75f26zZFg9UCS955F3xIrXlbLIxy9mxBUxm8ijpLPV1k2Zt8ZzYfGsI6PVsTWtshQS2hYASMAp5zC2MIeZwk3eH4fD3RVVhOFZTyBYkDIfKQoRp3gtty7p1fSf8Lt7RS6AlwhvFlvYWoYKuQBF1/vznP/se3mg2TZ7nizOE2Un9x1m79A7sdYluV1B5Jo2V3BAG/3rRcCOt3QBwfg4r9yyj7/UsBnVbAwexB0Cl3rk8voUEYiqmSSGfx/zsKgolyVY5FuAa1sAwzC/+UmlVxXyr463aQIOsEjoCkQSOJxeRycsPCyDN5BqhW6LtHZBhOZvPiuWs+UNVW86mm7GclcRIOpu8uK4vIjk9Bcfv3u2dFnsjARLoTgIUMLpz3dt+1vwu3skl3LDwpi1tGhFSGqnjB4Hn+VHBhkWajfDU6+w/kurSZuvrFnieJuF+3ygXdyvbtCcWa88M4Psv3Q9cfsdlpXbjssRu8xnH5cu4UVV8AZVHf4j3T/wb7joGlEdHsUZrtypK210QiY0gmi+hUDCs3WoHQpfRGT+OF0emqzJblhdmlKsqogdA0W27V3L7+nM91Z88wCf624c+nD3Rcjac67ItoypjtQT4fubXtFzUIuu2DJKdkEATBChgNAGLVcNEgN/FO7YaGxbenCPeqDjA85wU7e3t5mL3zC0S2CSB3E/w/geHgfPvW66lwAVcX/ER3pQ4d9JRz9339RM/xLsn3GXcCyAQ5KoTTyPXqvRYkQTG43lIwkrEgwKhV4+vlM8gla8ul5KGY8T5n87SNiAQm5hGci2DvFyjs5HWXY9tMHcO0UuAlrNeIl2zX1yCfHWgP8KHLV2z6F0wUQoYXbDInThFfhfv1KoyucJOkWe/JNChBK6fv4DruAv951Zw+PWfo+/uW1B5dBDvfsvz99Rl9GXO4PC5FXz/rysYTNXKetqhsNpsWrFhSbIQRXKskeBuRjy3aZVNwTNRsXDI5dAqTdDTOndDRUCuAyPZAgpZpCYXlHtxqIbIwWwbAWU5K6lamrKcTWFyoTpWEi1nt23ZNteRxPRUT2wa/e7YXHc8mwS2j4AhYKgs3rNG0qnNh+GQBFRGGI7tmwd76jYC/C7emRVvicXbzgydvZIACYSWQOo4IuJaOvAEBkd/4O8uev4iMPqElWih72fPYk8u2AIutHPd0YHFMCECVhNjEPe/nIRJCnzVaDM2gVzO70QzaYLPofr9+ZzEoh0jUH+9Aq4Plbk26MLyO8evbMemzY6FAC1neR20mEBxVgLIG41Gk8cZi6/FfNnczhNgGI6dX4OOGwG/iztuSfWEKLxpEnwnARJoEYHD6P/Z/XZbZ17G2vm70HfiOPoG7WLZ6nXGfht4AodeH8C6uwqAy6hMn2RW0youLCABEiCB9iOgLGcLa01ZzsYWJpHJS5Awx6tmbDBHPW5uDwGxaDVFNm+H0WR1rE9vnQ3tb8cP1A0NjCeFgsB2XB8MwxGKpeYgmifA7+LmmW32DApvmyXI80mABNwEtLWbKn0HK4++CeAu7PnH+9Hnl2DBcXbv6P2WBZxdfBA3RHizC7hFAiRAAiTQMgLNWx9u2DJSxkzL2ZatXOgbamWc0dBPlgPsVgIUMLp15Vs9b34Xt5po2Nqj8Ba2FeF4SKCtCbit3dZPzaCCL9t6Rhw8CZAACZAACZBAAIGabuYB56jiRn5kBoUxaOTcWn3zWGcTaP764MOEzr4iODsSCAMBCm9hWAWOgQQ6hYDT2u3yq7h04n3g7nH037mMylNjDqu1f0LkzBPoM+e9fmoMl34bDOH6eYp3wXR4hARIgARIgARIgARIgARIgARIIKwEKLyFdWU4LhJoOwLjGHxJx3a7gvJTRqKEvsxJREaByOV3sPLUT1Wstr7X5y3RDWeexYUTF4zZ3j2OwZdPog+v4v17mGih7S4BDpgESIAESIAESIAESIAESIAESMBF4FbXHndIgARIYIME+l4XwUy/DmLvy2dw+K8rGBzVZZdx4zyA1K8cZToGnNQ5jH4R3cxsqIdO3KVP5DsJkAAJkAAJkAAJkAAJkAAJkAAJtCWBpize9u/f35aT5KBJgAS2nkDlrXeAUW3xBvQOHHR0qi3gHnZbxY3+1BED7gLWnnoVe888oRIs9B7Lov+3o1ijm6mDIzdJgARIgARIgARIgARIgARIgATaiQAt3tpptThWEggzgdwfrBhu65evuEa6fiqNNTyMwXO2Vdz6mZdRkWyndx82/lLj6LvzIq6d0eceROTMv6IPt7ja4g4JkAAJkAAJkAAJkAAJkAAJkAAJtAuBpize2mVSHCcJkMBOEJjDyrfmjI5Tv8L3XzIt3swkCyqum7iRmq/e0ZO4y3JD1aXe9/sx+PrDePdRs13vYe6TAAmQAAmQAAmQAAmQAAmQAAmQQIgJUHgL8eJwaCTQngT8kyxc97iiNjy30ZMYTL2JlVy4MpsuLy83PAVW7F4CvE66d+05cxIgARIgARIgARIgARIQAnQ15XVAAiTQQgKH0e90JxUXUx2j7YPLWAcgbqjybryuoHLqWayMPmu5qQLvYOVbd+D9U+Jyahwv53R9vpMACZAACZAACZAACZAACZAACZBA+xCgxVv7rBVHSgKhJyDupBHLnfQKri0Poe/EcfQNXkZl+iQufOsXRvbSc/PoVfWuoHLiTVTwsCMjqjHN6yfSeP+37+O6Fu5CP3sOkARIgASaI0CLyOZ4sTYJkAAJkAAJ1CLA79VadHhsJwlQeNtJ+uybBDqKwDj6XDHbDiLy0klrhpVH9eYQeixxTpf5vV/A9fN+5SwjARIgARIgge4hwB+S3bPWYZwpr78wrgrHRAIk0G4E6GrabivG8ZJAaAnMoXKmgcHdfQd6dbXLl3FDb/OdBEiABEiABEiABEiABEiABEiABDqMQFMWbx999FGHTZ/TIYHOJ7B///5tm2TlrVdRWbmIyjJw4wMj+cD18xdc/e/55x/YwtvKRVxHQNKEu3+Owy8P4Nq/zGAt527D1SB3SIAESIAESIAESIAESIAESIAESCCkBJoS3kI6Bw6LBEggLARyv8CKdyx3H8YeDKEHb6Jy/i70/eNBq8b6Sp3MoAP3I/LS/Yg89CzefXTOOo8bJEACJEACJEACJEACJEACJEACJNAOBCi8tcMqcYwk0AYE9qR+jshDA+gdNIS13gFbYJPhr59axo1/zrqTL/z2/eCZ3TlgWcbVFeiCW+EREiABEiABEiABEiABEiABEiABEtgxAhTedgw9OyaBziJwHQPoG70/cFK9/5jFXU4x7szLWPPNWHoQe+6+C3sesttaX64h0AX2yAMkQAIkQAIkQAIkQAIkQAIkQAIksLMEKLztLH/2TgIdT2D9MtArWUydohuuoDz9ZsDcDyJyZt5x7ApufODY5SYJkAAJkAAJkAAJkAAJkAAJkAAJtAkBCm9tslAcJgmEnsAHf8DKM38AsKyEMmdShb7X/w2Do7braeWZUY+1m2REPYm+UZ9ZBlrG+dRlEQmQAAmQAAmQAAmQAAmQAAmQAAmEiACFtxAtBodCAm1N4PwcKuf9Z1B59IdYeX0Fg6NXUB71im7GOZVHx7By4rhKvtArRStXsL7yB5RPBFnG+ffFUhIgARIgARIgARIgARIgARIgARIICwEKb2FZCY6DBDqcQOXRQbxbc44XUDnxE1RO1KzEgyRAAiRAAiRAAiRAAiRAAiRAAiTQNgRubZuRdtpAzz6Pa2dLAbM6i8+eT+Lj5Hfw0fNnA+p4i0u4WSph/exZfKbaNfalLPCvqonX8HEyqcZ1s+rYWVx7PomPvvMdXKs5pLO4lpSxSzvORkr4TObzne/g49dk3va+u57zHG6TAAmQAAmQAAmQAAmQAAmQAAmQAAmQQPsSoMXbTqxd6TV8/ORp3MRpfHz0Fex94V7sEoHMGksUWH4PN98D8N4pfPZ4FD3WMdmIYlcUWH8+ic9Ov+c4z6x05DncduV3+ORFaaDG6+gr2P/CvVaFm3/8HW6+9x5unvojbo/eh/WSUxh8GzdPG+3dOPU81vGAdZ6MZ/e9UVgXk7QB2PuOmtwkARIgARIgARIgARIgARIgARIgARIggW4hYGkl3TLhUMwzeh++evR3+EREs9NP4mMcRc/p07jhO7j38OnoKD51HTuKr3/4AnYfQrXoZgpeXzjq7zpyxLEHJa65CtTOWXxqCnU9xx7DrtLzShysridi4Gl88uRpxyFjPLyYHEi4SQIkQAIkQAIkQAIkQAIkQAIkQAIk0PUEqJXsyCUQRe8Leew+lMTHLw7h6y88gBunnUJWY4Padd8xfF0SRV55G5+8KOcbApgEpr/52u8Mse7Ic9ibf8xlfbb+/Hfwiae7m6+dMoS/I8/hdjGC026iR46gZ2goYEDLuGFawUmFm689j08vLVti4M1Tz+PalUPA736nypQFn09LN55M4mNTG9x1LI+9thGeT20WkQAJkAAJkAAJkAAJkAAJkAAJkAAJkEB7EKDwtoPrtOuxPPY/Zgyg98MP1cbN10SMM1w6dz13Bt98LGqUS0y4tx/ANx2uoYjei151+G18EjiPS7hx9ixucxz/YtmxI5ul13BN9XkEt5+8Dzeefx6AWWnoGG5/3BiD5yyg9EflfqpdZD+/dBo3HILezfdO4+bQUfSYrqdV51sFplst3VMtItwgARIgARIgARIgARIgARIgARIgARJofwIU3nZkDSWxwCjWh8z4buYYbp593hLdcPQVS3SDlCvXztP4GK9Y4puK8Sb62Hs6lttpfJJcxmcYQu+DZqPvncanLrfQ6gmv//pFw0rtCPD5r591WbFBXGEdYlr12XbJ7kNH0XN02RLjdh05il2HHsDtrzyAHlzBjVMv4oYeqn0adj33Cr4qlnsAdgdofI7q3CQBEiABEiABEiABEiABEiABEiABEiCBtiBA4W0Hlunma8/iUxGg3nsSHy8/h2/mHwMclm4Q9068jWvPv22NbtcRic0GIybcIW0JZ1uKWRWVddkQcOxB9BwNchE1ax8yVK7dh8TP8z0l4GlhTOLCSaIFNZZAV1Pd6yHsFmu1x17AXpzFtdNPKiFv17EXLLfRXYjiCxHe9CmO910H70Uv3UsdRLhJAiRAAiRAAiRAAiRAAiRAAiRAAiTQCQQovO3AKu567CS+fulZlVwB772IT8/eh92/c5iCvfceblhWbNUDvPniKK4d/BB7XziD3Y8DN54dNYQ8ifF25nElgslZPY/fV32yT4kaz8ESvnj7FD6VmG0SF+7YJXz8pIzpQfQ8YJqj+Zxbq+jm26/hMwCfn2o0xtsQek++gK/S6q0WVh4jARIgARIgARIgARIgARIgARIgARJoEwIU3nZkoezkCtdwEnvvjeLmlaNYH4KZBOEQdj9w0BWXbXdU1KgSPh19EjePmgkQEMUuvIZ1h2aHqJQZrqzKqq7O/Hpe+VD13xv9Iz42EyWorKaQOG9iCPciPnmyTiM4gtvP3GsIZqUrdnKF0y9i/dBz2NVEjLd6PfE4CZAACZAACZAACZAACZAACZAACZAACbQLAQpvO7lS953EN5WgJm6aj6P3+WexvgzsevBx3Pb2s/hM4rcNHcM3H3gbH42eVpZo3/zwQ3eGUh2fTc3jND75zjJuvHLSsnprbHolfPasGedNRL1oCTdLzjOP4PZXHsTnylX0OXz9wd/hkxeBnueOYffvnjSt7QC/bKnAQdz+yiuM8ebEyW0SIAESIAESIAESIAESIAESIAESIIGuIEDhbceW+ayyXruBI+h5RazeJJGoGbNNJUYwt2uFaSu9hs+qEh+8hxtPjgKvnMH+e7XP5llc+86TKr6aYeHmmfTZX1viGU6/iI9P/w49R511hnDbvfcBIrwNHUTvwSF8gmXsvu9e3HbJCA8nta1Yceapzr4Y483Jk9skQAIkQAIkQAIkQAIkQAIkQAIkQALdQIDC206tsuWSKX6ihhtpY0MpYf0s0HtvFDobac/Ro7hxWhS4o7j9uWV8+uIQdl/5I669LaqYvJZt989Tz+OaztkgGUcfuxe7ooeUFd1Ns/auI0O4uSztHcGuIyIALuOz53+t8i8Ap3BNLPHwHtZ//bw0bb12HXwQPa88CDypkyiU8JlpxSeVJDmE3+vGk0l8LPkd5CUWfi8w04JJg28kQAIkQAIkQAIkQAIkQAIkQAIkQAJtTIDC2w4t3s0/GgkHRCzrUTpTCZ+bwtSug1FAa2ZV4yvhxpNP4pOjr2D/A0fxyWmg5wHghmn5dttjeex/DLj5WtJIlOA5/+Z7p20B7MghJbwh+hi++eFjjpoSI+40PsUQdg2J8PYebprx3yCJH8yaN5XY5zjt3seMrKaOIsuKz1lWtW1a90l5LQu/qvNYQAI7R2CobrbfnRsbe26ewPKy4ylC86cHnvG3v/0t8BgPtB+Bb3zjG+03aI6YBEiABEiABEiABEhgRwlQeNsh/J9fMlW2I4eMeGxn3zYFrSPYrT1E/cZmWcqJodwh9Dx3H3rxa3ziqbvrvmP4upWM9Ao+e9KI4bbruVfwVatcEjEAN8+exY2338bnYhm3LJZp7rHdUNlSH8AXzz6JT4deUTHnPn5yGbe/chK3vT2qxD9P99bubQ8eRY8ppolQp63qrAoAdh05il1acDtUa/LOs7hNAiRAAiRAAiRAAiRAAiRAAiRAAiRAAuEmQOFtR9bnrGWhtuvB+4wspKdMk7UjD6InCnxeZ1y7RKCK3ou9Yqh21lu5hJuIugQ8JbCJyHXQXS5C2OdvP4lPze6dLcnYbrv0olFkJoGQHeuicZQ5z7O3o+h97AX0qoISPls+bceSsyth17EXjBh3jjJukgAJkAAJkECnE6DlbGet8FZZznYWJc6GBEiABLaOAD0Nto5tJ7e8HR4NlobSySBDNzeHdVvvfcBnyVFLkOo59pgStnyFt/dexMejxmx6xB014LX+fLAVmiRe0K6i6nTlsvocbuASdh96ALcdvIIbZoy22i6vZow3h2Dnn9U0YJAsJgESIAESIAESIAESqEuAAm1dRG1Vod0EWgoZbXV57chgt0O02JGJsVMSaCEBCm8thNloU2JltuuIuHQO4bZoFLuPHcX6k6dx8+gr/pZf9z6AHpy2BbMjOi5cUI+SFCHomE+5xGbT+QxKwA117nO4/V6xhnPUHzpiWLtFH8fXn1vGJy+6rfRwSE7UGRTqjdHRLjdJgARIgARIgARIgARIgARIgARIgARIoAMJUHjbgUXdde8L+Oa9L9g9y/6ZxwGH62bvCx+i11Fl74cf4mappDKg7vIau4kQ9soD6thuEfVeyJvunXYXDW+J+2r+Q6v6rhfOYPfjRiw4vJDHV80jvY+dBA6WsDsaxS497sfy+OZ9MkbYZVZLUfQcewW3yb5ZX+/XjGlnnc8NEiABEiABEiABEiABEiABEiABEiABEmgvAhTewrJeWryqMR5L4PLWiUbR28D53tMa2xdhza9mFL33Vh8IHKOIcffea8eH89n364VlJEACJEACJEACJEACJEACJEACJEACJNCuBG5t14Fz3CRAAiRAAiRAAiRAAiRAAiRAAiRAAiRAAiQQZgIU3sK8OhwbCZAACZAACZAACZAACZAACZAACZAACZBA2xKgq2nbLh0HTgIkQALBBMoLk8jkjZiLulY0OY2pRETvAihiNpVFQUriaeQmYo5j/pt2u3GkcxPwnmEft8+v7tc+xq2dJHAZZ375Fpb33YMfPxLD3qChXCvijd+cw1Xf4/twz48fQd+ffom3loF99/wYj8R8Wrp8Br+UCkMP4enRgeqW6h2vPoMlJEACJEACJEACJEACJNAWBGjx1hbLxEGSAAmQQKMEyliYTFWJbnJ2KZ/BbNGnnWgU0cIcFso+x1xFRcznrfworiPABvr1tMDd9iUwMDikBn+1cs13EpdXlo3y5RVc9qmhjw8N+ohyPvVZRAIkQAIkQAIkQAIkQALtQoAWb+2yUhwnCZAADCQqAwAAIABJREFUCTRAoLwwA2XoFk1ieioBl33bbApLfm3096O/VEB+vohEDau38sIcCtERJPtLUEmWHW1tqF/H+dxsAwJB1moy9L2DGMIylkVYGx2AWz67DK27ActYuTyKAVeFa6goc7ohUHcL13XQmAUrLWfDtWodMJriLFLZAmgt3QFrySmQAAk0SKBBLwSztWvFN/Cbc25fhGqvA7NNOafWPZxjhHa7Q3jo6VHP/RxgH7dPqu7XPsYtmwCFN5sFt0iABEigzQmUUVwU99I40h7RTSYWm8hVuYYaEx7GWHINhfwcFsZicHmjWkTE2q2EaHIcWLQKzY2N9utth/vtS2AAYvS2vOwjrF2rKDfVffv24erVq1BWcQMOd9Rrl3BR7h339QW7u7YvmDYduViwZgwR3zMDZTkbyaFKo9eWs4GfIboh23LWK+AblrNN9qub5fvWESgvYDKThzt4gd1dPO1zPdiHuUUC20yAAsY2A2d320rgGopv/AYezU2N4Oq53+BM39Ooiuixbx/2LS+h+L0B+EUDsYd/GX86B+zbB1x1a3oANtCv3TC3AFB442VAAiRAAh1HYA1lcRt1mrvVmWMkMY54PovFYhkJH+VNWbuJoJeIoFwlvOnGm+9Xn8n39iewt28fgGph7dqli0p4G7rjDnUnd/XiJVyLOWLKaWHujkMU3kJyGWzIgpWWsyFZPQ6DBEigMQIbEBIoYDSGlrW2jMC14u8N0c0nPu/lM7/Eil/Pct1eXca5P11GrEqVs0+4VlzC8r47cM++q1XC24b6tZvmFoU3XgMkQAIk0EkEIoiNRJEvlZDPzCLik/wgeLYxDMeBQn4exYQ3aYJh7Yb4uLKYW6hqZDP9VjXGgjYlsPfQHdh37ircwto1XFLmbEMYjB1C38VzuHq1AokEp23ejPhu+3DHIV3SpgA6ZtgbtWCl5WzHXAJBE2kwCU/Q6SwngTAR2JCQQAEjTEvYhWOx76ke8kmKNTD6dJVrqAFpEN+75yqWz9WyehNrt6vYd88wcNGLdqP9etvp7n0mV+ju9efsSYAEOoxAJDGFdFwmVUA2lUJqcgF1cyaYDGJjSURRwJwny4Jh7RZFcsybw9SGt5l+7Va4FWoCy2/hl7/8pfvvjaIS0dS49x7CHcrozRDWjLmY8duGBjGAvTikKog7qp6pjv+2D33U3TSUkLybFqxNjEZZzqKkLGf9TtOWs+M+VrV2/eb7tc/lFgmQAAk0QqC+kOBvGCQCxj5A3Pb8cwkBMAWMO/rECNzz2mi/nma42+UEriIgl1Ugl72xYQzhKi5e8r9wlbUbhjBc0xe1+X4DB9SFBzblajo0ZGQx60JubT9licNT78X1rUdo5483so47P0qOYLsJSCy33JgZk6eURyYlqUirky1UjSsSw0g0j7zL6s20fokmEavjurrhfqsGwoL2JGAIa+euOuK8XV6BfNvobKXaKm555TJGJcOC6WYKJcy156w7b9SbsWCl5WznXQ8bmJGZHME+M450gAV2cTaFbMGuqb6rxh373s16bevjPt95VrIQWu55qXbxviEkOMOO1oOhBIxzbykBI+YjUmgB46HYXlSqLId06833q8/kezcT0PdZV3HuN2fQ55P8IJiOGYv33J9wOeZNmmCIxRgaVhZzlapGNtNvVWNdW0CLt65dek6cBEigowlEEpjK5ZDLTSMZBaAEuEl4jNk8CCJIjIu5nMPqrTivAqzHx90ZUj0n2rsb6tc+nVshJiAZsZ5+2v3ncXUw4rwBIqzJS7uRWtZse/sgRnEw3U2t+G9MZxqqhd+MBSstZ0O1lNs+GBHSJCOp+yUW2N7vH0ng4RHd5CT5rqo632itobZjE5iWL71SHjPOL7zyAmYk5TdFN/fSdO2etsA2BAzLCLshHoaAcVUEjKr6WsAQK2+/12b69WuPZd1GYG/sETykbJ+W8ZZ4ITg9D+rAGPjePdiHZSx5zDUNsXgf7vme/1UrzW6m3zrD6prDFN66Zqk5URIgge4kEEFiKofctLiRlpCfqeN6GhuGSG+lxSLKKGNhTn5AxTEc7GUagLXJfgNaYXGbERgYhLofVMKa6Ua67w7Y4duMHyy4ehHi7XCtotKZ0s00hMusLFjV54YW7ht0XVeWs6J7zKNozUtbzo40Zjm7kX6tvrixZQQKWaQkhIHzzxHOQCzKlGYm1mbqwY88/Mkhp+IflJCfd1wRCzNm1lyxhjPrWXWrZ9BM25HEcfXAyb4Gy1iYkayscaSr0vFW98WS7iCwGSGBAkZ3XCNhnaXEcnv6xyKiyYPMc/hNowKcGRLELRqb7s+uezX/mW+4X//muq6UwlvXLTknTAIk0JUEzB/DKK3WifkWw5hpLTA/a1i7RZNjKqnChrg13O+GWudJoSPgENYuV1R4m32ebKUDgyLNSZyRIlbED7WBm73QTbNbBrQhC1ZaznbL5eGeZ42kHLEJI/ZoYckUYx11vS6o2mLN1bij/pTH+rqqbTkxgsRxI2ZpdrYII0tvFMlpb+IgVyfc6UICGxYSKGB04dUSsinvjeER5YXwY0jYQUOAe6NG7EEZ/17EhuUezGH1dvlPKkvq0LAj23ytqW6o31oNds+xTcV46x5MnCkJkAAJtAMBcd3JYHFkGlOe4OXGDw8A0QOoE6oNkdgIovkSCgXD2q12IHTh0pp+24Ewx1ifgBLWlpdxcUnktX24xzZ3M05WVnHLWL5oBL/xCnP1e2CN7SdgWLAmykbsSLGcjXkFEOeglOVsAQWxnE3EUNyk5WzD/TrHwO3WE6jpplnGakm6FLdSr6upHoqZOCNi1g34PopE+sXMUp+kvmMab9s8TUTj9CpS2Swy8tWXnIbna9HRPje7moASEsSs/xqKb/wG55QF0UXc8+NH4BPCzURlCBjn3hIB43sYkIpawHioGQGj2X67eqU4eV8CexF75GnErhXxxm/O4dzvizjkCQPiOs26B7uEa7FDuLSkIvGi+YgfTfbrGkR37lB4685156xJgAQ6mEApn4HkU/B7NRSrLZLAeDxvuAzFhxu2dtt0v34DZtnWE1A/Ms5V9yMx3Zxp3SSrqU9enn33/BiPOH+d6Ju6q+JGOuTjRroXferp7FV/Ya56JCwJCwEzAUvJtJwNFvENy9lCPo/52VUUSiJ8bNZyNo/6/YYFFMdRk0C5jDWp0B+p+yCoZjs8SAItJdCkkKC/6y5SwGjpMrCxjRFQVpjncNWMoRucKH5AZeZdPncOfzpTwfJVYN893wuISdjAUBrut4G2OrwKhbcOX2BOjwRIoJsIGFYpsYVJZCSItPPlk+HNedi7HRuOA4U1JMcaCe7Wun694+B+OxLQwppKZ+pzM2dnxwL2+Qhz7TjnThpzayxYaTnbSddEI3OJ4IAk8kEDGbQRgbJpE9fTiVjVw53iktdirpm29ViLmJWAc9Ekkv2SrXsGC7EpWr1pPHwPJtCwkEABIxgij2wNAcMq8+IdngeeYq9Z/L1yGcW+PgSLbsaorAzzy4a127Dz4anvwFvTr2/TXVTYdsKbZDSaO2C7UanU4KvjyDUQLFWlLF9r5IbAfQU004f7TO5VEzBu6FfHc/BbMsV6cQTTtVxYdKM6ZbwEy/XGCNF1gt7VufA5L/gHh91UwByUC84qxtVYiphNzeHANG/ybG7c2i4CkpEwl2iktxgmcjlM+FWNTSCX8ztgupz5HGq8X5+TWbQDBAYw+vTTGK3Xs+WGU6+iPm5aDehdn3cJav10I5quz7ks2h4Cm7ZgpeXs9ixUaHqJIDYSRT6fR2YSVfdxcg++NKzv/WJQz3YKBWQnD7jqWkkUXPNqpm05Ue7TsiggiuTxBBKRCFYLWeQzs4g0e7/oGgd3OodAa4QEChidc0WEZiY1vRAMSe3qud/glz6OCjKHhmK17Y1heOgc3lK6W1AG3moim+63usmuKmk74W3Dq1OcVW5T8bQnKGvTDYqgIl/mwa94Wt9YSB1DpPEanwSe3aRVSmA7IT4QG4kjn01hLWkLqHq4kcQ44vksMrMRfzHVEtvkDCMTlvrtZsad8dj46Gar0serp6nxdNVTVhWQd1zGxyejNjxukQAJkAAJdA+B1lmw0nK2e64amam+hyuU8sj4xDuID9s8YmNJRAviPlxdNxqNolRy39E103ZxNqMypsbT+uFnDBPpOArZArKzw/73l/bQuNUpBChgdMpKch4WAePB5qHiG/jNOQnn4Xjtuwc/rhXbzVFVNo14vFdxz/cGPEf8dlvXr1/r3VLWJcKbaW4uIV+zqZqimQRf9QYld18M/hYiyppOWbRP+1py1W8XgIhKc+7eOm8vgkhiArkIkMrOYwFryPupkpKy3qVuSjaqKSSUFc6EwSrrpeNv+WZYLDrrFrFUkPYMcwu9ds4asp3PpGCHyfJv23sO90mABEiABEigEwg0bsHqf1+kGNBythMuhSbmYFwLw7MpI0ao40z3Q2ml0mEqF6l6mK3qYRaprFt4Axpr27qni6fd9+Mq+2kBWbm/RJrim2NtunOzdUICBYzuvIJaP+sGvRAkN2nDXgM12hwYxdNP+80i2Guh8X792mVZyIU3w7oMLguyOoumLJ8WMWK5+Glzc+O8qi9+sznjizqKkVhwqGDfni1Lq9rCTC2XDVe70aRrt2N3HDfjCdMlTglkeRgCW5PL0Ayn8sIcCvFxJf7p82oKo6YLqdS1buhkR4m4ccTjBajkj6qxuG5SZeRyinc1+3CcxU0SIAESIAESIAESCA0ByRDaWPwCNeTYRA453xgG3hkFibYS6sC/gXpt1zpe65h3ZNxvZwI1xAbPtBoXEmq0SQHDQ5W7JEACfgRCLrwZWbEycwsYizXmIlqcz6MUTeK4Em5MN08J9JpLIKIElBRSznTolutitXBmCEH6iZthgWWLJ7YLqYh5U3Vi1djn+S2DWdYFFm+G9Vl1TD5f0U3xcMf+cAlfSvsSs7g40tMHaqewt/SwIuaVuBezrObi1rEaa2MeMm7ajLW349RNYELuDx0CnVHdtNLbQhGx/ohZgwRIgARIgARIgARIgARIgARIgARIYKcIhFx4A4ysWIsoliU4aj1M4kIo4bxMka44j3y/w5xcPbGLYWEyg1TKbivICk67WVSJRVqsk3hsIujZTQVu0eLNRBMbUTHcUgVb6DTENHvfgihuAUspV7w3/bSy6pzyAuYCkiwY62e0alu7lbEwU4Cs/fBSAYV8Bj7hSKyhiLjHFwmQAAmQAAmQAAmQAAmQAAmQAAmQAAk0QyD0whsiMYxE88jPF5HwS4PpnG1xCQURX7T1mbgz6m1lkDSJjE88MRX3reGkBna8OPgEhDWG47R08ssAaFrLOUVB5zw6eDsSSWAiF8OByQzmFsYQi8ybcUAKyLqDujkoeONxlFFecxyWTSWqesrMXSWgmtvl1ZIE+jPix4nloxi+LUm2+Xqx/fzbLs7OQszdHJeZf0WWkgAJkAAJkAAJkAAJkAAJkAAJkAAJdB2B8AtviCChskwuoVhTeCtjYU6Zu1kiiNctUcSVnET193kpqyinyZPTHdVVX8ejkPhzczhgxpKTvuYOTGMqVsRkZtE4Q7ke5qGdVV3NyE7Jm0DArhFkhWfXaOctpxgZHMfDnqHBemEsZlg9lotYVFDXMDc5C0xNAD6BfO3zjS3FVMUdkfaWMOy8nlbnMZkqBK+VOLR6Yg2KYCvxByWIsK0ZOi3jSo4EDU4x1jsy7pMACZAACZAACZAACZAACZAACZAACXQigTYQ3gDEhhFHFkvFCTgykbvXQ4kxUSSP27ZH2i3RU1G5mtrxuYyj2q3UXbfGnljXRUcwrXQ8I0vmiLEDoB8RVd5cMNoavXXcIUuoFP9h5borGtYEYmactHHZdpSLlZx+SRw/RKMwVLICspMSB84ZyNcbg02fKe9yLKsEM7tF87hp9VieTWFpOIcJyaq1JGnnRdfTKVSNhB8qspwW4mJm34zx5gTNbRIgARIgARIgARIgARIgARIgARLoegLtIbwhhuE4MFcuBwpvKqlCPI0pj0GbEbTfx+ZMZaSsXv9aLofKgk6lIAdms0Z8MOlOxQ3TIly5us3AMVRXFbOqLkhxbsTi6087Fit6oKFYeYApcib7USoB41PHUZ6caTAGoKQlnYfyNtbrH08iuQb0jxzAmtd91Wd9irNLGM5NK1fZVZ/jLCIBEiABEiABEiABEiABEiABEiABEiABTaBNhDdArNfEQqk4q4fuflfWbe4itVdlyeaTKVOfJsLakmGqpotUh0ZcuCyW0jnkYoY1VcGMDyZC0Hy+hHh6yhCOyqv+7ooNxJBzJgGwB9CBW55YfGUVsE2yktZ4mdZvyeQaCvFx5CJLyKvq4rY6ZVjNZcQOzfHS4poUaf4S98+Vol4s2KI4MA6sOWP2FVIwWitYbqTiRBoz0pdiwdENN7uTwPLycndOnLNuisA3vvGNpuqzMgmQAAmQAAmQAAmQAAmQQGcRaBvhrSXYlXizhuT0hI91lRmw3+HLqizcVPZNQ/Qz3BQzyCOJaRUfzHQ7tEQ4c5R+1ltOUafWZJwhwmrVa+NjRSP1rBmLr4ziYgnRkeM+a+KZZPQAsAqkhb1kRHC+XIJaLVdT50lirljGGvoxLMZ3Dbmaes5X15RT8HMuoDPGm92+w87P0xh3SYAESIAESIAESIAESIAESIAESIAEOolAlwhvOi5XHOnclJV8wbWQZoy4EYcq4o0RV5zNIG9lInWIbo4g/cp6q3/YJSJpqztl0bY4gumpBLAwiYy5LTHFsmtJVe7o3jW8ztkx3EyjSWOmiqkImRLrzfuKHEBUlDalj4k/6DASEwlvrQ3sG8KcleA2nkYMZcxtoCU4BT/GeNsIQZ5DAiRAAl1LgJazXbv0nDgJkAAJkMAWEKCnwRZAZZMtIRBq4c2wOPObZwbOBKSAT3ZQsV4aX0Umq8LgI52TYPmOl0/GUYnv5qf/6LNsd1ZDdFuTLKmJCNwx3CR7pTNsv0PkkTE5kj8Y7ZYRGcshPZ9CxpyUN3um7r8j3pWbaRTJmGiPKUPInHLycswyEkE/8siaKUPj6YB6VVZnZhtOV1MpiiaR7M8jX5A1yiEXkXWcw4ExaZfOow7y3CQBEiABEiABEggJAQq0IVmILh0GhYwuXXhOmwRIoKUEQi28eS3ONjJzdzwvRwuRzWQcjWEil7Ma0xZtVoG14bCKM8Ulp5gYTYp7ZQTq34SZGVOJSJM4MD1VUwS0umi3DWUhZg56Kocq+zW1LnpSBmeXYKoPOd+dVmfOct/tBBJmg5IUYy15HBNibOdIiiHXnSHxjSE5l0EqJQ3FIbqfvX7Gvm8XLCQBEiABEiABEiABEiABEiABEiABEiABALd8abzwxRdfYH19HZVKBX19fb5wPvroI1f50NCQa5877UOgkaenXN/wr2cj67h//37fiej/6729vbjttttwyy23WJ8Df/vb3/DX7z/ge147F37r3bchT257enrUNPRn3l++/W1rWv/nP//T2tYb3s8+Xc737iAQ9H/Ib/a8VvyodEdZI9cJr4/uuBb8ZtnI9SHn8Rrxo9c9ZX7Xyb9/7WsWgG//5S/qd5rz3k0f/PLLL637OLnHq3dvo89zvvP6c9LgdisI+F3TrWiX12orKLKNRgk0ch3X+6y+tdHOWI8ESIAESIAESIAESIAESIAESIAESIAESIAESKBxAhTeGmfFmiRAAiRAAiRAAiRAAiRAAiRAAiRAAiRAAiTQMAEKbw2jYkUSIAESIAESIAESIAESIAESIAESIAESIAESaJwAhbfGWbEmCZAACZAACZAACZAACZAACZAACZAACZAACTRMgMJbw6hYkQRIgARIgARIgARIgARIgARIgARIgARIgAQaJ0DhrXFWrEkCJEACJEACJEACJEACJEACJEACJEACJEACDROg8NYwKlYkARIgARIgARIgARIgARIgARIgARIgARIggcYJ7Gq8anXN5eXl6kKWdAwBrm/HLCUnQgIkQAIkQAIkQAIkQAIkQAIkQAIksAMEaPG2A9DZJQmQAAmQAAmQAAmQAAmQAAmQAAmQAAmQQOcToPDW+WvMGZIACZAACZAACZAACZAACZAACZAACZAACewAAQpvOwCdXZIACZAACZAACZAACZAACZAACZAACZAACXQ+AQpvnb/GnCEJkAAJkAAJkAAJkAAJkAAJkAAJkAAJkMAOENhUcoUdGC+7JAESIIFtJ7B///5t75MdticBXivtuW4cNQmQAAmQAAmQAAmQAAlsFQEKb1tFlu2SAAmQAAmQAAmQgIMAhVkHDG6SAAmQAAmQwAYJ8Pt0g+B42o4RoPC2Y+jZMQmQAAmQAAmQAAmQAAmQAAmEgwDFjHCsA0dBAiTQeQQovHXemnJGJEACJEACJEACJEACbUiAwkcbLhqHTAIkQAIkQAJ1CDC5Qh1APEwCJEACJEACJEACJEACJEACJEACJEACJEACGyGwKYu3oaGhjfTJc0JAYHl5ue4ouL51EYWiQiNrGYqBchAkQAIkQAIkQAIkQAIkQAIkQAIk0GUEaPHWZQvO6ZIACZAACZAACZAACZAACZAACZAACZAACWwPAQpv28OZvZAACZAACZAACZAACZAACZAACZAACZAACXQZAQpvXbbgnC4JkAAJkAAJkAAJkAAJkAAJkAAJkAAJkMD2ENhUjLftGSJ7IQES2G4Ct9xyy3Z3uS39NTKvf//a17ZlLOyEBEiABEiABEiABEiABEiABEig8wlQeOv8NeYMSaApAiJO3Xrrrbj1rTwqlQrW19fxv//7v021EabKMpfe3l709fWpefmKb1/5CvA//xOmYXMsJEACJEACJEACJNASAnyo2BKMbIQESIAENkyAwtuG0fFEEug8Alp02717txKrvvrVr0K22114+7u/+zs1H5mLCHEyzy+//FItoGz/3U9/iv+emem8BeWMSIAESIAESIAEOoLAV/7v/1X3Lw1Phg8VG0bFiiRAAiSw1QQovG01Yba/NQTKC5jMLGJkegqJiNFFcTaFuQPTmNIFKGNhMoN8fxq5iViLx1HEbGoJw7kJxODcNropL0wisziC6akEzOG1uP+taU5EqNtuuw09PT342te+pkS3zz//XIlUWqjamp63plWZj/xpIVHmJfOTMpmPvCuLuMcfx42HH1bWfTdv3rREua0ZFVslARIgARIgARIggfoE5D5l165d6uFh79e/bj08rHemnMeHivUo8TgJkAAJtJ5A0EOSEApvrRZLRBSZwwGHQOOPV+plsZa0hZv64km14OLftrPUOR6Z6zwiUyLeBL/UOFbHMX1gDpl8P9JK7AmuH/4jButCgwONp3Oo1s1iOD4NzGRSWHSsmdVkcRapbAHR5DRyMaAMKAFMscyXrGp6I55OA9ksao4pmkR6ZBFZx/mFlH2G3o4m0xhZLCE6crytRDfNQgtvIkjt2bNHWbu1o+im56PFNRHfvvKVr1jCm7NcW8TJOSK8yaud56znzncSIAESIAESIIH2JCD3KfIS4U0eHMq9imxry3193Ds7fX/Ty4eKXjTcJwESIIEtISCfu/UekoRPeCsXsViKInm8lhRl8woSUkRwsS2f7PqBW8UlFBBH2rKWCqzpOBDDWHIOmdQkktPHRQWCQ5Ox6olwNFaeRGZ1HLkJq1htRPrXkE3NNiSmRRJTmMYkMpMLbWdJ5Z61secvqDlrGiLsqqtILN3ycEln+QxSeV3JuQ2UrGNRJEV8TUwhl9B1AeP66cdwLIZYLge9PNXWc/qcBHKxams7fVS9izVeHiiV3GNBNBn6ddM3ayJSiQAnN3nyamcRSt+Yyo2q/pMy+dNz/Pu//3s1R5mvuNW283xd1yJ3SIAESIAESIAE2pqA815F7lNkX9/bOCem723kXkfu46SuxLiVFx8qOklxmwRIgARaR0B/Htd7SBIC4c3f+qmUScHSUlxc4i6RSsQop5DiqtrETnGpAMTTNS3PVHMiqswAx00XQuk/vZpCdr6IJKAsrGzBz5hb8DAiiE1MIY0UspMHGhJlWjXf4DG1wxH3NVB/xIaVoa4nYtsMjuM4ZgIsCItYKkQxMu3nJFrGwowh/FVfo8a4MC/HTaEvAgSLeHpE4XrXN25yYyd/7RzfTZOVm1D90h+O8q5vZuWYWMOJW62eL8U3TYzvJEACJEACJEAC201A36/IPYz8oBMhrZbwJuNz3tvwoeJ2rxj7IwES6GYC+nelfPb6fVaHQHiT5bFFipqLpeJ6ueyfgqubroZWBY+Q57K2Ki9griBjqGdlV8SsWFtFRWKzX7GJHHIqnpgpFUrfcyKk+Qk39nl6KzYxjelyBBHvmHUF9Z6Fw6tRiYStj1vm6nDLdwrZVG3XTnMEcd+RmC7JLtM3v4oihg27DkQSxzEymUFGLCunbTffKutJ1zVjiGqRhRksjiQhYxoT8VWuyfkIpiagYr4BRSytJTGt3GBnEREP1oKc29i14BroDu2I4CR/f97/nR0awdZ1+92PPlRzkxtT+dNPheVdhDdau20de7ZMAiRAAiRAAiTQPAF9v6IfiDofJnpbcwpvcowPFb2EuE8CJEACrSUgn7vyqveQJCTCW2snr1qLTSAnfp1KrHMG4a+2QiuKhVI0ieM1tRERerIoONwFW2fJFEFE+o6YY/bgUIKQclOtJwx6Tgz5rkv89B2r7WoqrLOQJAkJTOWkchkLEP3RL/6b2ZgSMmU7hgkJ9Ga9IkhMpbGaymJVB3/Tx+I+iRgcgq9YHE5JMoV8Fhnt3xpPA+Uy1qIHMCZ9TRmNjcdTEjZOWUE6e9ddhfFdBDcRn8TyqxNfMi9xv5APRn0jq9/laTKt3Dpx1TknEiABEiABEmhvAnKvov9kJrLt99L3NPpehw8V/SixjARIgARaT0B//gY9JGlv4a2mhZhpRVePqbKV3BqwAAAgAElEQVR2U0Z3NWpq6yqxXLKzVMbGkpjLZDAJiSdX43TfQ7pN42AtASkS6QcWy1aCAN/m2qowggNRoL7toghkorIVMZsVkW2z8pWbuUJmWt1JTMDjToaW1aK93s7Ddrw2Q8gVa0RpQ2m35nUpa2pov5NIpUptY6X4xRdf4MaNG67pdsqOzEtEN+fTYn0jS9GtU1aZ8yABEiABEiCBziMQJLZ5Z+p8uMiHil463CcBEiCBrSOgf1fqz2v9Lj2GRHgrIe9y66sFw+F4qK3alJtnBqvjPtZPYtGEfsOirKpZO15X1SGrYBEzKYnZZbgauqSfSAJT08BkZgYLMZdsY50dvGGISgkRlVLZ4GodeSSC2EgU+QZdTRUCsURzwTfA1HdXdVwv0MzFYE4SJKxiXJSx2RTmmuJsW7UZ1nRmUgZpM2W0qawtzTbbKS6fiE+dLryJz73ciDo/CJtaflYmARIgARIgARIggW0m0OwDQn2fo9+3ebjsjgRIgAS6koDTwMMJICTC2yZjvEkmVCThmwi1vOrOgKlmH8UBMU0qziNfiiMtcbiClJdSSbmhTpvJFJzw1LaIbyq7g+H6WHW8mQJfC74oksn+Zlppi7qtEqOcloJVLrmKZz0cZZTXgP7hiHiv1n1VxYHzOSPrCsbnqOBwU3aUhmpTbuo63dXUG8dN5ix///Vf/xWqteBgSIAESIAESIAESIAESIAESIAE2oeAJFeQBx7ehx4hEd42B1JitGFE3PwMV8LFEXH9NAK2lUVViY/b2UolFheAA6K7La0hOT2FWHm2agCWwLKdYollwWdk4TwwPQU1jfICFvOrHeRqauMOjJNXz9XTtF6zW/LZUjx9yp1FItqWohiRy8UhvKnrpn/YcB111G+VYOhoMnSbWnwL3cBaMKAg0U2s/PgiARIgARIgARIgARIgARIgARIggY0SkN+VEudNXk7xLSTC2wZdTdV0ilgqxDFuZo1MHE9iMTOPYkKyVZZRXCwhqlSVanQxHQXfIbioeGKpbEPZNo0WtUhmu5oGiTbVI2iwJBJBPxYlfj+qlKAGmwhLNZUkoeAdTQY6T0HVEecBnfhAuYmK+6/fy5P91azitIxznWVZLLp0N5RXS4gqs0hXbXvH1zrRPuzcCuzbWSlk2yK+deLLOy/Zlw/H//mf/+nE6XJOJEACJEACJEACJEACJEACJEAC20RAfldKYhsR30IovG3c1bQ4m8VachoTYsEmmS9NUWduYQyxiOlKOmVYv9VlrcUUU+BRVm+L1WepftaSUO6nlgWdjh8mVnda7ItgIqdScEpIsfqv4gIWIgnDys1VW5IRlKozcLrqtMdObMJIOGCMVouWpmWfcwp1Ld6qY+5VuZqq9gwryPqJHBydmwk3StACruOY3rSsE3UB39uRgBbeJOmCfEDyRQIkQAIkQAIkQAIkQAIkQAIkQAIbISC/K0V088Z6C4nF20amZATInysAJRgWUzqLJJRoM49ZFFSmSVdMfhXzrR/jflpcM2JKf0QZn5WLiyhFR3Bct6dcF4FSKYPZiJ3sQbkoqmkW/ScrVlz5PPrTCR+rtgiMxKamyVtdUcq/i7CVlhfmUIiOYFqz2+EBqjUyremQnMY0ZpBJpdQ1ZMTxcwxQi7SOoqBNyXaqXZ+D6rB8+wmI6KaFt//+7/+uK7x99NFH2z9I9kgCJNA1BPbv3981c+VESYAESIAESIAESKATCcjvyp6eHpXMT35raqu39hbeHG6CrkWLTSC9lEJWrNLMWG/6uHIDRRPJCkre2Gri2gpEk4ZapFwSR46bHqBFzGbyENEmFytiMpPCbNoW3/QY/N4L+bwSeCYsldDhfisWeMNxZOeKKCcSMLMBtLXXqWGdKJaOiS2ZhxWjT8GOI21xNen7JN3QFpO2a+gUcgmxyssgtWhaODoXr278PzPmoPMcboeOgMR9Y4y30C0LB0QCJNAiAnxo0CKQbIYESMCXwFY9NOBnly9uFpIACewAgWY+5+R3pfy+9L5CIrw5RCbvCKv241UlVQXFWWQL4opoijqemGDx9JSdbKHqZLsgEhtBNJ9HdZbKONJK0BMRLooRMdlyWEoZ1k0JTE2jWnyzXFPNfsx9sYo6jhmkUmbkMh3PzBpOBMm5DOaLCQzXiz9mnRPGDRGysiiIaKXXp9lhKsG19klBSRBcglw8bVwH+voQ5jmvQhdT7sLDsylkZiPI2cooUMoj44xBFzCk6EjAARaHhoA8jeCLBEiABEiABEiABEiABEiABEiABDZKIOh35S1fGi9l8bG+vo5KpYK+vj7ffrxPHoaGhnzrNVdYI86XtyElkKxiPPf/2Xv70LayO3/48+yTQjy00DGyxGodRNJMajcWTEA0NcLjSdxf+nQXzKYijBAD88dO28nYKUUIpu4fg5k/xhswYtjEyTxt949CEXcIaoph21/zqyfNGONJEUxATqOmboKIV4sc4SnMkgxsHvpwzr3n3nPvPVe6kl/04q+GjM497+dzro/O+ZzvC3OcsIOfVlU3WX8uARcuAJcyTE1UId1m1J0eXUVWU5BqrI7rYczJhI7n0AzSCj5t4nnWA9y/f79Oqp60M/PbsBnKsE0EGs2lF0Mv/tb7+vpM44+MoWfrQK1Ww+bXv7nNnnVe8eAffodAIAA2ZqZ3L8YrsKjXY+f6Vy8vpREChAAh0CwCXmt1s/U489Pa5USEngkBQmAnEaC1ayfRpLoIAUKgExFoZp0T50r5jM3G1AHEWydC2/t9akTWMASIeOuO96DRXHotFKpFQRBRRLy5554Or25MKIYQIAR2DgGvtXq7LdDatV0EqTwhQAjUQ4DWrnroUBohQAj0AgLNrHOqMzbD4O96AQgaAyFACHQgAqmf4Oub6/q/j3+E5/B/1elkFIMfG3k313E0VS9vnWooiRAgBAgBQoAQIAQIAUKAECAECAFCgBDoIASIeOugyaCuEAKEACFACBAChAAhQAgQAoQAIUAIEAKEACFACPQOAh3iXKF3AKWREAL7GYH+X6zj6BkFAkdex8jm64oEdVT/e3/G198z0h78DGvfuIgnIAcIarQolhAgBAgBQoAQIAQIAUKAECAECAFCoFMRIIm3Tp0Z6hchQAgQAoQAIUAIEAKEACFACBAChAAhQAgQAoRAVyNAEm9dPX3UeUKgsxD4fP4trP/a6NOxN3D0zcP6w4MPUfm33+KJZ3dfQP8PXkf/ET3D0ytv4T9Nx7v3e0ParZTH1ZubAIIYOZfAWEABRm0Z+Wtr4LlOnUdiSJGHoggBQoAQIAQIAUKAECAECAFCgBAgBLoGASLeumaqqKOEQOcj8OROHk/uGP1MfQuAQbw12fWn93+JrVyPqJbWaqgZ469Wqzw0IsXZoKkBm9UqWK4gaqjxggEEVCSdrSA9EAKEACGw9wjUlq/i2hpbsEZwanwMQ7RW7f0kUIuEACHgQKCGUv4a7h6nC0wHMPRICBACbURgW8Tb/fumSEobh0BN7xYCNL+7hew+rPfIaYTfO70PB15C/rKGom3kVSxpl7Fki3M/FLXLRrkokrMJkPCbGyOKIQQIgd1DoJS/Ci6k62wiOIJziTEEUMKtJf2iAMFTRLo5caJnQoAQaAMCJeSvaiiyG8xiHsfN/VMJ+VnnfkzdvWhyljQO1NBQLCFACGwDgW0Rb9tol4oSAoTAfkKgSVXTnoImFEKIDciQZONjE3GugVZZNuMTQogXFM/0TQgQAoTAXiIgr0dyuyP8oZSXDrFFDbP2GwYAdGkgo0ZhQoAQ2AsEhpA4FUVRYwtSEdrVIKbPs4sC+hAChAAh0F4EiHhrL/7UOiFACPQ0AkNInDdk1Up5zPKNYAjRkVM4PqAY+OO7uFktclXTaJJUJBQIURQhQAjsNQKhEKLBILBZ1KVIADAVU76c7XVfqD1CgBAgBBohMJRAMlrU16jqEq4tD+P8WADBaBTRRmWZ5jyxdD5QoiyEACHQLAJEvDWLGOUnBAiB5hHYt6qmKqiqKC5JkiKqLBRHCBAChECnIBA8hURiCLXlTRSZSG51CZopmQtEk9MYNw+q93Dt8hK/PEAoSFImnTKH1A9CYJ8hMJRIIlq8CSTPIWEYnxxLJPYZCjRcQoAQ6CQEiHjrpNmgvhACvYrAflY1dc1pCBPT5z29ml4Vh1ZXOX8Rx44d85eRcnUUAn5satLcdtSU+e6Mn7n1XVk7Mm4+RqkEPGbulhWfonYLx6cTGArUsHzVIN0QwsQ5Uu9SwEVRhAAhsCcIDCExa1nHreneqny3HCCvVr6xooyEACHgDwEi3vzhRLkIAUKgEQIvRtH/NYn0OdaaR1PWTN+x76A/JTX4x19i606PeDlFFUuXZxs6V5BGT0FCgBAgBNqHAJNw06TmQxNInhrg3pZvcecxRWiXNxEKWTbhQhPn1JcLUjXOIBHLTkS649kPsUxz2x1z6eyln7l1lmn3c205j1vyJUFwHIlhSRLXZwfJwYJPoCgbIUAI+EaAiDffUFFGQoAQqIvA1y7gqJfn0iZVTfvevIijUmNPr9zH1h2X5W4pRzcFQ4hO1LHxtqTbeOumEVFfCQFCoPcQCASjiHKDSJsocheBQCgaRTA4gMDQEFcjTSSj2NTYmiWRbtEkt6fUe4jQiAgBQqDTEagxW5TydjF6HInhTu819Y8QIAT2AwJEvO2HWaYxEgKEQFsQqJWWceuucfW6Ka5gq9jcvAuIR1vPNnXbSAA2b+aRv6snBo+PY8ywUWLLTg+EACFACOwSAoHhcYwPBxDAMjaLjFoLYWQ8geFaCffyeawV1ZcEVcPDaSgURXBkHIkx0wDcLvWUqiUECAFCoA4CgTGcmzbYt3u3cHnJYOaiSUwbBipr9+4Bw8OmXUrSNK2DJyURAoRASwgQ8dYSbFSIECAEXAjkvoc/5KzY51I/wVfeO40+HvUQWz88g/Xc3/Dc7E8QFuJs65ewPlsEUj9B1JY3jfWcfGVp1dtVocdrpqSI3O+qx4HVlod5NzUMmIeCjHiTUylMCBAChMBuIlBCnqmRhiYwfU5qh9lJenwTS4YEnJ4SQjR5DuO4h1s3l0zPp9VqEcFTZMxcQo+ChAAhsMsIDCVmMZsoIT9rd2Kl22wrIS9IN0SRTDDJXWab8jKW2H5rDZg+T7Ypd3mKqHpCYN8isC3ijWw27Nv3hgbeQQh0nA2OFxMYzLyB8Blh480i3RhsB4+eRv8ZAeBvARSB3PdQhCDfDqP/vev4+g8+xPob3+9q226BsXMQl6yo3cM1zTA8btyy1mr38PgxgIEBDAcCqN26DI3zjcZBVgiK0NWreGHomxAgBNqGQBVL2mWsTUwgGgI2gyM4dXyY23rTuzSM8XPDGEcN927dxdomcFysYW3rMzVMCBAChICOQClvkXHRZAL6fWYAY6eiWGKbr+oSri0Pk6o8vTCEACGwKwhsi3jblR5RpYQAIdCdCLgINzGMw+j7wQ1Ef6A/9x0R8QDOXET04zfMCF06zng8chpHb/wZTx98iP/sWgIugECghlL+GjQhIcJIN+OW9d61Jf2WNTSB4fNDGEpMIwlGvlVR1C5jM5rEOZ7XhIgChAAhQAi0GYFhJM4BzAOzVlzy7EtoYhqkIe8JDyUQAoTAHiJQW75qXGyCGatEECXurZl14fFdIARwUx/VpVsojQlSrrkOkkBKc3h1Sm4/Agw0t50yWzvbDz9zv5MtEvG2k2hSXYTAvkbgBTxvSrkBePAhKuuHueRb3xEh/eYGyJn29MbP8PTo6+g3CDqW/hyALXfRjo9hG73LXH9B6mpRw2WnFm11CZdn3QdYZiuJ5WUH2PNkJ0kCsYLFmQy0chzp3BRiUooZLCwglV1BPJ3DlDKDmZMCHYUAzW1HTYetMyFMTJ/XvZXWbAn04BsBer99Q9V1GWluO3fKSrgl78WqRV3CTdnhIrT8ccwmyL6HEh6KJAQIgZYR+LuWS1JBQoAQIARkBO78K/5y5SGAh9i68hbWvvF9bP16CVs3PrT9e/pAKvTgoS2N5f301/+B9W+cxfqVD/EUwNMraWzc+ZtUqHuCgbFT4E4BwVRHp5GMhhAKWf/kkcjxISYVl4zyG1ggilOdRrpVFjGTSmFmsSIPYe/ChevQykA87UG6ASjcXgEiSZwl0s1jXtghMYXUQsEjvU3RNLdtAr7VZkOYSE5jelr8S2KCiY508KeyOINUagHbfvMZuZ+aQVPLIL3fO/NmeGJvrGszi2C/Tvpcp9DyMmf81vkqT3O7M3O7K7UMYVyxMFn7LubBOcpV6HnzxZtYpsuFXZkJqpQQ2M8IkMTbfp59GjshsMMIPJlNY+1Xa3giiLLcv2JdcrjAmuv/xTqOCnXT9fex/mpe2Yut2e9h61dRPHdnTZneHZFDSExPYzzAPAMCGDpv2BRhD5JB39AEzrkM+g7h/Ow4ajWjbAcOeDAcbqJXQhqgiSLxNHIucbUKFvMrvJKVbAp6SK4zgmR6FKs8QUMmpcmJejieRhpZZN2FOVmXHl1FljF7DT6R5DzmJpvBoEGF7Uw2JAT9dMEat8ecRpKYnwvjeiqrmB+pBZ5vEhaCNLcSOh0Z3LxXQgmPgQGpe2x96xBbboxoyaj+dl3vmkHKqPIiguT8HCbD7P2+BFxgYWm8RrBS2QAio4gp0ty5WQy932pcmo01cIynFfMSRngQwIZeZ3hyDrnJAhZSKaQcvyeFhZTyN8Ba34DCdQ3lSBIXGl7g0Nw2O4u7mb+2fJNZD9Y/xbsojQ9haOw8podr0J0siETn93Eg/xjHx8dITd4JDT0TAoTAthEg4m3bEFIFhAAhYCFwDOEb19FvRdQPnbmIr29erJPnQ6wHv48ndXJ0elLt3jW3uqmz0x6qpixbR6qZVh6B0VLsfNP0x3H4UZc3CB1VoilVkMPZygwyjxIuco4dqMq8HWAhlcchfoh2VpZDboqLRGAmo2FQUkmtLK5yAm5+ziCFmNSDLY/ev1Vnld38HJtCbv4QZjKrGFXiJWHlIFxtB1V2mEXYJNO8VH35odc4HJuw0dyaULQ7YB5c2dp0WfSmiuISM07OpNxGjMgqlq5dZc4AzY/wxmxG7GFAJ1pYg4xsyQLS37WzG868G0oivQwts4CwS6W9gOtaGZHkBfNdd9bveqb32wVJKxGVxUu6mYG5hmyYUX0MU7kc2HLv+tgIWce6XlgwiDn1BY687oHm1gVtuyLcJj6K0C4XEYpO4NTxAdRqKvKtBuawmX2OHx8AauyCIYChTrlRaBeY1C4hQAjsKAJEvO0onFQZIUAIEAK9jwCX9EAEh3xLeuwUJgUsMDG1eJrbbasUBhHRspg5pEueWRIMzPZbDKgUgIjXwXmn+tRD9YTDGEQZj5iOlmpuOeEawagqjcFQWUR+hUkLsQNxs4p8NLdd+yZVq9woeWf33yBVRudxwXdHw5icmwdmMsjOHIJJxLPyhdu6NKeWgUqo1mzCJHbo/TYx2VbAIjzZKsMlHBWXL8AjXJ9JYcUluCykGRt1wpgvuO2I6lKVwKgp6khz2wjN9qSHEJ0IYnOpqDtNKDJnMP57wp3DjPnPTzkJAUKAEGiEABFvjRAy0pU/7lwKoo50gKtutvHzVltwZecRrMx1hOe8bRmZ5ZiqUN6xOTQT2UZRNzYOxUZCzrbjYY7TIyRcN8bNtqTfYMu30nxeVkftG+Jmq6X8O4jAfVR++NYOOkK4j893sHftqCowdh6zPbZ5qzxip5nInsNZWcxjRZKYC8emMJcGUvkCKpOTiJ2MAyvMoYKxXoZjmLqQxEZGw+3CFGJ+BST2fGR716BFThptlrNIcZVbdsA8i0MRYLWiZt50wnUQDoE3s/OVwirKkVFc8CLmzJzuAM2tG5N2xzD7RwgGwf5jUiBcRUuozdeWTSm3UJR5CLQ+m0X9oGvFdHOIkW9pPEplkVkIG9K1ulqhTeLJNUR9v7IyqEt/0vvtAqiliMJCFiuMzOS6vxUUVsuIII8Uk260fVb0fDlZld2Woe4DbwcRRCIryC6ctKSqK4u4pJW50x6hfkxzWxfKPU8MDI8gtASMCEcww8exfOsm1jar8C+NG8LIcIfoz+85gtQgIUAI7BYCRLztFrKKegsLGWhIYp4dSkwSTJGRR4lbtjBioxvIzCy2Ri7Z2mF15nQPgIbqlOsyUHTHONy6Dmki3c+3OCCHJ5GIp5BfPIuYsVPRbww9W1d7IuQ3zHGkxW7HTx8ozx4jUMSTXLE51dAXf4TojdfRx3r64GdY+8ZFPEF3OlPYY7Db1FwFzLQRUMZqoYLJZv8eVwTR46P7Dl1WrhrmLMZUJAWhFjuLZGQF2u0CpgTLFp7EXG7SWarxc9mtXlR22JSLjDauptNyxKbsKra6Sq4AECgMAmWlyJt+yGU2rdS8mp4eT8zZ0tV2+AxUJO6W5raz3hR2YXC+7oXBAEY44RZ02EOqoRQE7m4CQdkOXNuHVwG/LxB/s5FDtve0fvdimErHsXGbWWkDwlytMI70nPGXwPdZG4ZdOKMmvl+JIGl4d6H3uz7CvlK56ieTWDPINDEPjktdfX85iLQwFVCvcsU6Hxm8bkjuzmESzMyAIVUdK3CTA0jO2zxl09zWA7gNaYExnJses+xOBoYwlhhC3eWsDd3s3iZ16WHyKt9dM0iCKp0xX0S87dE8sBc+u8EMThsbBnZY5AaGGncgPHkBydUMLi3GmjfkLdrhG0NnW4Lcs8fzP85Hepx5SLNnUT/VkWyLnU0if0mXSjEPbaYKhlydvqAbzcsJupfCeFonDm0pjgfWDy5Y2NpNp6M2emwGgRejeK5O/id3mpDzr1MPJbUTAeMAy6i3VcfftJ9uCUK+bl5jY+fKY0iRuOIdEaYUlyOePSrXnQb5jIsKyw6c3r+utvFm2Olzjjysi7zpBIMtUZ/3SDKmJiwqBayW40hYHB4v7d/GG82tDe5OfzAOs+5uBjA0lpCcyLhztDOGO4Rh7FmzHyZdy99ty7C/41WXajTyRJKS4wV6vyWAWgrqErfMdEAKwmUOW1+858FHM/z3IIbCTAaro5KzHNMg3CTm0o+QyuoqxWopR5pbH0jvaZaeNM3m2oc0Ael2yjqbMe0ZemtikVd5J2g+nvkceWvRmRcKjosGHzXzLFxTpQwUKpMKpzTuWrjgDdwOzvR+wH7R5C5ujyksYKZytnkOw15LTzwR8dZgGu0SX7qkRiSZxKCmmd7aytImgFXn/GHmdcikW4M23clhTCbi0Jg6VQy4lNG4YXN3Pj1GePFz9sMr/27G2/ED9zDINkpn5Ub5YtNAFdVmO0gu7AwXsMDwiSSdCfS86wgkcPTGxTqOFR6icuYMNjCik3N31upLtgkSr1G+XR8XNWBDwLBtFE8msaE9UhA0ttzSA1PZysGf7Fn9vK2ubXzDYLBl+ubBkro1pdniacwfkrrdo0G+MWZj4xKIlt2jcGwUEW3VvTkT8+6hZyq8/5kXKy3iRnPbInBUTEfAJuUPwJBS5fu2ncCIE8wRJOu5ueR5mClK9+Ufvd+tTwKXLDN+QMS+2hAotFUa5m5NV5DVdehtaexBzAG/WOap9ZlYc61kl01aBgvhnE3iTTQg6hXPfr/pd8kvUvs7n/iNrbf0eCLEL9qkizHnOulZUE+w3m3y3tsAqpaTuamOeAJCkNpZkb43a91sSmwqjfhKFtr1AianGl1XVBA+m0Y8o/Me1gWqbmOT2VluRtmFraHllQ0sxiQP4U28g1b7TlS675mItwZzJiS++A+jbMB1chJTLnZaIQXBROMZY2x4X2L1XMKF5llfSZ3KU22KvcQOG29O4kvfiMSR5idL740J4jIwdW7zGkiPCPx4bfyPDDjJ/t4X5fobh80fnLqnOoa/Yf9DSBY2rppy7CkC37HIuRtv4Q+v5j1al0i8uvk8ilP0riGgH0LiODkZw6FVzaZC7t2oIcFm8VzeWZ0pviTknIUaP5uHOMVNMLPZ09Mf4yIjEimjPJhGGllkhefGcAyjEc3lYIHPeyQJ1UGXYcWkmiMZrTXJ7B0Ge1/P7Q5j2XXVCSl/l1fTAhaEmJQYlHPjbzpKUGkDFLCwAExNuVXXBTFjqt63qt4u+tXge9+/3+ZFrEFsGmu46+elwf7U2terN5Y8XSvrUtLCVhx/Z1L84n03DoP7fm4bvPv7Npm/8+xV9JA4bwCM+P0233RzndQLsrNi3nBSpZtCYg6hFRJtprQbeZVvALnvZHOd4SUsUywW2WlUZezNbKZUbK343GfXM/dirplhhMNh7g36JPNUn1/E2dgkKszGJmuzXh1Sn8QaybiANFLIXlpETJzPHe+gVKyng0S8bXt6vQ1N86olwowtZhmNiWeaS1/D1mXiTLzAzHPczPUw5hoy1oAgvvR6pM0kW8Q9nCzomxF318z2RRIn+sRDo2/d6xNbSBjvVv9+0VGX8YNT35a7WHDYGN23zI4a6XFXEBCOFV5A/w9eR/8R1shDbF15H1v39QY/v6N2lrgr3em2SmvLyF9bwyaCGDmXwFhH2vUt4Db71Y2fBNv+VUYj0JpRN22SROPrlm0eY3wjwFaQxZkU2JnIz0dsYMxDjZ9CCts/plScUb4bbbyxrus3q6NIbpS59HRsah7JDctzY4zNq7HR4r9Wfjb94UlcSK4io11HYdLasPu18QbQ3Pp5LSlPiwhUKtiA7pG3cpstHKNsg2SY/NAvF2XHTc5WuAH9FeDQ2Zjjpl/YvPSyjShqovdbILHdb3YRy+ysmRIXLqLTmM/R1kgKvsdmmhPs98o0IGr0WrwzgoAzftOmcjm+s6Xfpe3OLpXX9zcZ9f7GvBxogJPxXtpJHclurUmwNKjHlkzee21w7OSDbT708+wq3+cq3gOXKRVLY4F1Sex3m+0ef1cU9lM4j2B4kM6uMElutcRvo/a4xJ3NSVGjEr2ZTsRbK/PKb9dWMZocrKvyafN056sAACAASURBVK9aX7DYC8uNtabqq4vysvwPkRnC1v8IbXbPVrJYOOn35bc2hmaf+EbFfLIF+OHUFrP9B7snqmbqq2DxUiOsVnGJ4ykRi800QXl3CAHhWCGB/veMKh8soTL7S0mlNLFDbXVJNbUaSrWasrOBwJBl/NfIsVmtcrf3I8oS7Y/kh0/IBsMTiGtZXC9MKlVvfPWYH2A8blcbVNB4gyE2MA0qUiXLGyFDoqI3bLwxVQF2bmV2C4QIUBiTF5JYvaQDEZ5k85o31U05UccuasyTrgowQKUKwTdpYWag3G67hJOq3EmHui6aWzUunRFbw3L+GtY2AQRHcC4xho68J6gHluFttF4WK83wnimTPSJRqJVy1fs8Fl3EnMho/6b3246H7yemRcJMt0yFIUgFN5Zh7p15xeYkhv0WcOO/FmHnaJSpkaY04+DayCGPIOAcdbBHd3+cmeh3yYnI7j9LaxaCOHUugaGOXbQcpjZc+w//aPHzXMz9++u/Bisnee+1sNiNENsTadymmhDOcbwHrTaqsK/G2jIlHP3UywWHyox1a32vzy5XZSdFftrtwTxEvDUzqYZoZTw5jwvpR8gw6jeSVBuattUrVDXjSHO1areqAsuus82jlgMGWx3SAyPNmLFXWSJBSnYFjY0hsIH8zAIwNwUw0VEuL+rKbUa0ymqbFRgBNi4OVWQVmYWw5ZbdmVH1LLxWpYGsl/ZXucxtupmOK1T1UNzeIZD6lmXnbf3PEum2d13omJZqt6BpaocS0Ykkgpt3uYTbuOrgWith+dZdbAaPY3xsqAMOtirbDjGcTUaQ8bsWdczE1O9IY8m4HdoQ1e/GrqTqm+cEcmGHxj/7XZkTTbIN0m2kmC2QsxVc0sqIJC80NmIeDoM5ot2oOGSahYqEZFuE36Iy0jW1oFZpEV3Z4e9entsdhqp+dZtVVKssS6deEzi6b0pFVbDICF+Hx2RHbvuj2IcojO9wUjqSxIXJSVQeaci34unZ3tq2nnr7/TYkbqDbC2aHQJdEGkcvDG7mbaNi2CAVe/AI4mxt8rBTaSfMRBmv6dj7i97enlsvnHcw3lyzguiADZXvgZmmdiSzXL7Pi6wVbt9tEAnB5/CWdfLXrjWgE8+iY5aNRONdn5wDk+u0fWStLvIqb4Om2QdmrmM1cxuFKZsV9Caqce9L+QUnO+tHDqEyKbTBdM2VMth8W+uYbX1xXIhzVWW23p6tYCaVaix0JF9cyyMwnRTJkfsrTMRbg/k2X1qWzxDd1YtMIR1fQXaFie6uenv3MG4qEImg8ZvaoDNyMlvg8v48nXKxfLP9FWRnDmF+jknSiQr1BfhRwq8EnSjn49tQr+XNDzLVpixmFudxQS7q4V2PZSnc3uDYxioLcgkeFredvr0UumqgiN1AoP8fT5vVbv36l2Z4XwYCQUSjUWCziCI/pIYQjQY5FMGBx1hbKqKKKI4nVPvAx1grFlENBTnx1m78uNQqk3pyqLjr0lHZlm176Z7qmjkFW0gICQUrRh1qTiVUtSHV63WqmsJDXV/di86IrTwCktxQm4Mcc3YvNoX07RRSGZbQWNpNL65LmrgF2QwHQVkhEWRhHE/PI8y6YjsU6EbMmfRJow/NbSOEKN2GgJBQc7rftWWSH3Rj4oyUkc69eobKIiel4+k5/vqGT8aRzV6yG5CWq5LCtHZJYPgNGurCyXnJQLdHWe6deeURKmwPalySt3I5q7yANg6lHk1zBwy0dnmhQ/FNIeDHzEODCgVpEmPvrcMOuCCbbRJQMunCz7BC36oRGW10xKUKKXXQi5CRsvCgnM8l8afvHxRakc5auuvZuKDML55khhC2+bHmyr2G6WYPdDv1GndCI94D0WgBh5CMSGlTOZ10LSygLO17be+NUVgnhUVN6m/z/K5OVsY6+6jM1AWRRLw1mCRhI42/JGLt4WV0xpi/0FhAKjMDzNvoJD2XYYtiLnwdqWyDxppKFqpBBYnFVlXA+hnR1WLLQGLuAiozl0wVIlWJnYwTxFn4OhNrjWFyKoxHqesoSE5HhYt4nRC0b21jU4YIhu2MaC0oO9lXqmsHEHjxR/iHM1Y9/T+4gegP9Oen/zuN9VkrDUdfQH8qARzjxuCMhCPoT30HB/EC+qSsXRsMjCGRAEp5g3iLnkIiMaQPp7aMtS4ZGFv/2NklnrZsd1ld18XHUz4PnFY5PcRdnLNLWQX54szrfN7ZH2KDDEKSX0zYvK+6Nn7OnnTPs7mmNuoyU+kypKLV866owCA1BvnVum3R5va00vEUssILONtY17HHSXOrwHePo2rLeVzj+qTuhnVpNwDVJVy7ql7JgiPnkOg0Y5X8ok+39eYelSLGU9rNMIPBpN3EtoWR1ewdlyQ7FTXyKHq/vZCpE29KLRp5jHWZebF3kmpC7T2btat+8st0rs4lJq1Oey0m0dy2CBwVcyHApd18X3y5ijPxBW6XN87VrW6rMrDdFyobwOBJ6fYrcsh5F2aWbfX9lgkZJ/FiXmruE6/yJpi2gJBYq2BRZhU5EapQUbMJA1kVWdjabb9ZOYwQX09jWJzJQONq9pb0Wyw2CcQmEVucQUazLpP4eT0yarwbFYQPxflFwwzmPZ1GWv1h7Rp9YtKT8ibbGKObJHT1uusjiHhrcQp1W0dCdZQZ6NUrKgjBDfPGIAdOHRVabKheMZtqEDu4MjmDQ7YSllrRbejCA+wPew7ca03G8Yec1T018QoUGxmlkeyIxKDZWtYfxCHPGj5j2vUNzyT/o2MLTBmRSMQQCNQXHkVVepRYgIwFR17I5TJ8c8XsgAjvKXIihXcNgef+ecJOmB05bH+WWz7yOo4KW3Ai/shphN+zJOZEdHd/l3DX0DaNHjdIt24akB/bDuLAyS8gVNIIYkPhGLhwnIIyNIOQkTd1wqiro5T56FdqRC+g2ISIgxuAcvYSkvM5roJpNrBPA+ZGia+zzDJBCgv1DOo+uo6Z1Iq+hsfTMJx4u9AT7uxXPDaMcgGaWxmNdoU3UTUZNu8+eObpAC1Uc9/C9zQxFPL8BsHTzpd9lHanUHJaYYEZvWYHFaG+o6cKA9IzwkOgXEgK0/stgdFMUFqzubZDLuciCPj+z9zeRjAaE4SCYe9Y7NObabeJvDS3TYC1K1lrWL56GUtcy0DVQBHarNoEiJk7NIHp8+22XamTZpHkWbe0rdnRBoHCbawwsoP9CTjuwrxKqs6SXnlbjTfVGhWXmuzcul8+1lpVRsYhJmuX5pf3r+KS2IGSOB+zaB97LL20vjfXCbYVLv0mk1/mPBlN8YvywYSx5oYRnpzie+ZU3lsIyKyDz7XMKIr+61Llsv04hstt33bsRT3d8U3EWyvzZKgX1LN5Y2eFW2nEXxnzgGRkFyoPonTl0aCuGlZw3HTYDMPqf8SNVE3lP0ZR/7a/uYSEIZEn/z2axKVDwsbW7watN2U8uUFdlNwYgRd/hK+8edjK9+AhttYfou/MaW/yzcrdu6HSXehbvBDwuIQSG2kggK6g4MQPuY8fceEZU/Mk3+xTLNYuRrTlhNF+3p5hZ0RB/ttrsEsyONNsz7xeuwKkvuFhm5kcFKabbMX3z4OxoSvbsZ3KpTn5NpP0uNU8dBZzlu0CJVxsvi/hAuZyaTDx71SDixGZgFVWKCJpbgUSu/odikahK8nrzWwyNXgetNTn+ePmJoo+yLrd6qxYV3Q18BxMixqswcICtHIESVNErX4vzAtWsT7x7OJvxJIOsNcSw9R8EjOZDOpJAdD7bUfNz5M+t4NI53IKIkLWhBBzY8wVu9Rhv2Enb3NPkXGnmjGXamS3L/JvjyDr/PTMnofm1o5HVz4FB9pvBo6TZgA8PZm6yRqGtXxW00k062KTpXOCJ56EJTZRwaMysHK7gKlYDHZyRZ498swso7ETYXa5PH9oBplV2b67vm7JR2I/bVXChxBHBId8qOI76+PkGHPCcQnglkgcGSyCkCVkkTIvNqyMduLQeDd97OPB11/5d5kxxBGsZBdwMufgAKzmujZExFvTU1fAgnAzbtuM6RUxuxLlR8ygaxmR0Quum7imm2OXFIuXdLfSxqIo12EyyXKkFI5N2badUkozQbHYNihTx1abuqShqsEkJMJCIk/KWUfUWcoFlB8ZBnRFrLglan3jJGqib/8I9GdetxNs6+9j/dX7GPz4NPpMbdL7qPzwLWzJ1R77Fv7hTYOce/AhKv/2WzyR0/94X37qsnANyzfFzWoVxSVNJ+GiScyOi6E4b1+rWLo8iyWR3KZv8wDrg3TTu6jfnIWZ45ZMCqtKksZ5OJqzH6BMYl3feOg/5OIQtbNACDMC9lrl/tlT2JOpDiEn+dlYyPk7NWxKksg3q6Kz+m8A23ylUqp0kU/xfXsBKV1PGbkptiaHMZWbx6GZTH37qIqq/EbR3PpFym++EEbGE7C0RmtY3izqzhVCI7A5hynlUdQ8RU38NthyPs89EXu/jfdQ37op/tblA66h8mSTNhF/I+xv3iHpZusw00aYByffUo/SzTmUslWkftiv77d6bq15ZISDoVBhACf9JhnO0YRUhfn7xg6RTPXUdXGg62mYEpOuqYi7YnYiYr/O7U5gZ9URwPCpJAasCACPcVNb0i8LQlFMnDruSGdZ7uImt7trK9i+B3M/5O4Cf39tZI07D4ux/c2wSyrTxhvbYxlGVLntxDjiYDa40xhld5TlLBaYxFGdY1Rjgrk1AomPRN5XGetub3iVV88Ti2X7K7tXU++8qpRweBJTXH/TWhNV+dRx+j7bcrBl5OIXm+CXHbkpvV6Y2g/s+baLHOMknW91fsuGqkWphBGbSiC+kkV+8SxiVoK6610WS8RbgwmzfpzZLUKMex5dYQuCw8C4qIYbGk9lkeV6zHVWLFFA+lbdMujtA8n5eeBSBqnUDhxC+R+Sgq6WVU1Zv+SFT+qnFdQXVdkrDluI/VrOMFU1mF4Sk8iTCDR+SzN4siFxadrxcNHvfo2BW6Oh0PYQ+Hz9IXBGknhTVlfEk1zRTqy9+AIn3vTsD7CV+2XveEIt3bLUHUIhML8KRd3LghKdTokU6558c+q3b/zgcJKRLRnwQ+fJ2zrxwitg65dDCkVZsaSaytarVMp2iyuKNKvSI8p5f+sE005cV3i30YEpxm8CW79N6UNFN825FRIkdXblurQQgBXmICfnUO0z5pe1a9Zl/+WguVVMAEW1jIDwPmrt3fz8rcd0UyGsVeNvhK2JXqrUts5x+zlhLDDpTsUhhN5vG1rbeGg8jyoyy0ZI1Gld+RvI3wXvQjS33tjsVUpgyO0J/i4zSck7EMSwIh2Bx7jZ7hvPvQJIakdfG0dx4WwSlzJZaOz8mhyExrzVu02XSyV3J9j4b1PaH+5OF9pSa+xkHFrWy6vpoJczZkVfPdZE6TfMg8Jw1aVLTBq6+YZzm1FBbVTCOMScTKYYMdeiZJqnDdXt2Y52DaSDIoh4azAZ7gXAYRDQVd7jhXflYxFuVlo3gGnPzNRHOeE7l9MNHaZS9gxeT16SKnVuUbyqUse3uvgZ45Zvjbkb6gzXLxdtqbAQaeY339zKFhrNFArsMQJPfrWEp286pN4cfXhu9v9gxFBH3frhC1jP/c2RQzxGMfjxdYS5pNyHWA9+H1vwyivKdNq3LO0GIHgKifHH2CxW9c1fYAznpoetTtfu4Rq/kQ1hInkOwwGRFNhzlQf3uif64vPbtsbEFNIEPuth2Wx12cs1vnE18vMNh13V1F7TfnyS1+8m5sg2H95GY/gl1GoFZ+vZ2bTVZZ8Dmls7Hm1/qtVQMzthhVhUrWZ/NrN1UGBn1zS/A/PeD9L77RfDduXT507ZOl+3lCk8kubWG5u2pdQeY1M03glqpKIvbf8u4LpWBjOdFA6HkYhryG6MIjYZA1YzuHTdW7LTL8Fst1XWaMBugQ5Rwq1xsAOCKKLyTviOneRSh7cLZx3W2ut3rjkJs/p1OVO5QFA8oQvUcK22QXDfWSxjOIzJqXlgI9OiZJpuQ5VdbohrVz4Wh1yQdmkRsXr7SGenO/yZiLe9miDlD7X3pkx0i20WZemLljePyvZFK3v4LTHuKpUATwqN9V/8Ze5hd6mpJhC48x/49MYRPD16Gv2mamkT5XsuawDDIyEsedk7qpWgn1cDGBoyWTYdhUAAgUANtRI77LJD7RAzC0cfEwGZNDIjvQOdsv5597BLU+rNQwzCKXVzg6tXp6ImmlsFKDsdVcWSdlmt/l5dgnZ5H4qJtAwxvd8tQ9fxBWluO3WKavfWDGk3IBTs7M2U0DhojKXaxpsoZ5PWFKr2wsZbhKmWAmVNQ1l4TeXOrpgpCd1hzOSFJFaZaSWeU9RqffsmmK0idUIG4dbjXuVVAFjabjGcjAPZ2wXJ/p7hONH0JOqsYTcdxqjMNukOGJy9MO1jmgnMDlw9syRsvrPgHJtT207UwYSHzlYwk9FwvTAJv1J6oninfhPx1qkz02P9YqL+Om/GPMDKVGKPDXRfD6eIjVcvcZtu+xoGafCB4RFEl6qGcwUpgUmJ3LsJjbndYt6zhlTes2q4pek24aLJWSQ6e69oHxw9EQKEACFACBAChAAh0HYEari3ZtmdDA403ky1k5zzI2DByTkfNt5MCSKmYZSOI2Oz8baCSDKJUcT4+YypnCJ5wTILYdqqfKScQb8Sb3phBQkjbGZyk3L71au8TpxFDP1NrhYPRkoZ9vdQQWG1DJieRJVTgcghof+pTm8pVnjEFV6h+SVn4/M7f+dUzrMMO/CjvDNhhLkGaxLzDaTZEvFV3HZYcm9pPB1SiIi3DpkI6gYhQAj0IAKBMSSSmyhqwsFCD46RhkQIEAI9joBT/b2Ge9c03X5laALJc8OWOnztFi7Tetfj7wMNjxDoIgRq92DxblEc93IpX9s0peK6aHR1u2qzb1hYUOSNYdIwXs8IvzlFDq8o3xJvClMfOiHIyLj97lVe9yg7aOpvOtCuFMB4N7snZkFasbx6eehslqPw9h6FfbdwU5yeIBJjNhvtshSnUB3VScbGfYxNOZywNS7S0TmIeOvo6aHOEQKEACFACBAChAAh0GYEuPq7ug8BliaSOt/cm+gpfRMChEDPI1DD8jXDmymYgsE4vHi3noeilQEaUkqtFK1XxkYImhndds/NpF71Ks+lyuJI20wpWWRa4bqGciSJC7Z0IHwoAmhMnZMhJJwJ1sdPYOntqdmoiztKMCTtPFVcRW2Ob+4sIYLkBYutE1KXOlELLHKP9prSYZqjtp58JOKtJ6eVBkUIdAACZy4i+vFD9JG9N30yNh+jdM8079sBE0RdIAQIAUKAECAECAFCoDcRqC1fszzLI4pTY+YVQW8OeAdGJYgSUZVs/F7Ese9mVU3lsupwY7vn6nLdG1u4zdR95w3nBYvcnlmZDyeCZLiAvAbE07rNPXmUanXkHcTPkLSLJO2Sa3IfeNiw2y7Hs/EYQpQ8OnY2ifihGKaMyMm5HCZ5uZRu400uXC/s5TCyXpkOTCPirQMnhbpECPQKAn1HDnsOpe/Yd9DPHPQek5m5I+hPfQcH8QIOepbs0gRmhNwyM2IbBPcKKEuK2DwI2rLSAyFACBACe47A5r0SSgOiWclDIDZxr1SClUSXCwIl+iYECIH2IVBbvorLzI6u8Wkk7Va6a5kE8WMHTtTbjm818dKgJzYndd6OQNTSaO66t6Nq6q5tf8YwrE1hNmZTL2d3MTjpeN4zlBR9Ubbtx+5beBJT9mEBfsopG+z+SCLeun8OaQSEQMci8PQBk3hTk299b17EUWfPj5xG+L3TztjeeA6FEA0CxaK1EeQDc3kFrONBsDeQoFEQAoRAVyFQRXFJd/Ti6na1iCWy6eaChSIIAUKgXQjUsJy/hiV5rxVN4rwp7cbSb8F2RbBZhJU9hA53fNouYI12vUk7Zcc4yaJMoUhCYN8hQMTbvptyGjAhsEcI3HgLxVfvY/Dj6wjLQm171HwnNRMKhYDgKSTGgSDuYpPv6oJg0d6fKqoOjs47L6UQAoQAIUAIEAKEACGwvxEo5S9jyRJe0z3HJ2TLbgEMoGjPI0MWGsEwaaTKiFCYECAEdgiBbRFv9+/f36FuUDWEACHQGwgUsfVvb+EJG8wf2fpQxMY3jmJDDO7F97Hua9l4Af0/eB39vUDYDSVwXtrzjZkbwATOjwlgVN/WrWwzt6+0Lquw7I04mtvemMfuG0UIE9PnYQqM1BtAKY/ZFiXg6P2uB2x3p9Hcdvf8dVPvhxKzSGIWfBkKTWD6/Jjl/MUYSCDIbj3dN5uh6ATOJdz5u2n81FdCgBDoXAS2Rbx17rCoZ4QAIdAuBJ7k8jrxpurAnTy27qgS3HFbf/wPPMej1/AEf3Nn6PmYAMYSiZ4fJQ2QECAEOhOBwPApJA3jbQG/EiBDCUxPj+sD8l2oM8dPvSIECIHuRGAoMY3kcWBoSL1wBcbOYXrYPjbmnZk+hAAhQAjsJgJEvO0mulQ3IUAItI7AnaI3gdd6rVSSECAECAFCwA8CgSF4nFvrlqYDbF14KJEQIAR2HYEAhiRNA3dzARDP5kaFYggBQmB3ESDibXfxpdoJAUKgJQSieO5Fo+Cd/Srx1hJwVIgQIAQIAUKAECAECAFCgBAgBAgBQqCDECDirYMmg7pCCHQ7As+9mMDBr6lH8dw/fgsHnUlHD6PPjDuMPoVNt60fvoD1nJmJAoQAIUAIEAKEACFACBAChAAhQAgQAoRA1yDQFPH293//910zMOooIUAItAGBf34DR988vKMN9x0b4U4adrTSPa2shHweGE8M2Qz8lpav4uYa68gIzimM/+5pF6kxQoAQIAQIAUKAECAECIGWESAnIi1D1/EFaW47foq6ooNNEW9dMSLqJCFACLQNgSf3HwJojnh7+oCV0T9P143w+m+xxb2f3sfnOc5OiSxd9l3D8lUNxSpQ3Ixi4lxC9wxYW8bNparuUysE3Mpv1hlXEMfHx1qytVSnUkoiBAgBQmDHEagt53Ftja1nQYyI9W7HW6EKCQFCgBCohwBdeNZDh9IIAUKgPQgQ8dYe3KlVQqA3Echdwjp+q4/tj/fxOQ8dQ3/mIsJnrCE/vfEz/Of8RWzdcXsrfS71Ixz84y+VaVYN3RMaYG7rq1WgWsTStSCGz4+hdmvJcmRfraLI0j0/IQQZ8eaZTgmEACFACOw0AjWUlm/hrsedQPD4OMaUnhc2UTXWMyarTB9CgBAgBPYWAbrw3Fu8qTVCgBDwiwARb36RonyEACHgA4EitnJFI18U/bMX8A9vnrbsuD34EOtvfF9JqjH7cOH3L6Kf23k7gvUz6nw+OtFBWQIYSpzHdPAqLi8BE+fGgOWr0AyIQtEogqy3m0UuFQeEEI3yGCkuiAHyct9Bc0pdIQT2BwKP18S65B5vKMiIN3c8xRAChAAh0G4E6MKz3TNA7RMChIAKASLeVKhQHCFACLSOwIsJDGbeQPiMrHL6EJUfvo8nrNavfQf9wgHDsW+h/yiAo4fRf0TOfxpH338La9+4iCdwS8W13rn2lAyMncfscAn5e8sYEBIkoQmcS4whAHY7K8jKII4nEhiS4kIT4yTt1p5po1YJAULAE4EalvO3IJYzM9umkN6tYu1WHpvBcSTG6ObAxIcChAAhsMsI0IXnLgNM1RMChECLCBDx1iJwVIwQIAQ8EPjatxykG8t3GOH3LnoUcEY/xNYP01g3Jeec6d32XEMpfw0aM/SGEILT5zE7XkMtEOCkWyl/GUvirIoitNlNTCTPYez8LMZqer5uGzH1lxAgBHoIgWgSswkm3lZCflaDfk3wGJvFohFWj7VaLKIaPY6Eza2MOi/FEgKEACGwkwjQhedOokl1EQKEwE4g0BTx9l//9V870SbVQQgQAnuIwJ57I879FlvvnUZ/02PUCbdKbq0npNzY8Lmh8aWiZc+NaZXWamAibLoR8iI3/8byhqITCBaXwHIvaZexFIpiYuQ4hodhkHT+AD127Ji/jJSroxDw4zGL5rajpsx3Z/zMre/KOiljKISQsz9Vw2kMi1elO/NLz/R+S2B0UdDP+01z20UTKnXVz9xK2TsoSBeeHTQZ1BVCgBAwEGiKeCPUCAFCgBBojEAeW1e+BcDwTGo6WQAO/rPD5hur7MFDbP1bGut/BAbfzyKM3pF2CwzAIt1CE0ieG8Ddy5cx6wAxFE3iPJMoGR8AruleULkzBuaQYQkITUzjPKlrOVCjR0KAEGgfAsNInB9zNV9bZvYsdeneiXPndS/OrlwUQQgQAoTA7iDQjgvP3RkJ1UoIEAK9hgARb702ozQeQqADENia/R62zH4onCywtAcfovJvl7DBVEpfTODojYu6lNx713EUZ3tD1XRoHBOhTWyeOoeE4QEwMBFC0dAtZVJup5jHUmECKTCExPlZjJeWcevmkuFwIYpTRLqZbxMFCAFCYI8R2HyMUom1+dhm061WyuOatomRaSLY9nhGqDlCgBDwQIAuPD2AoWhCgBBoOwJEvLV9CqgDhECPIvBiFP2ZLI7anCwAT2/8DP85f9Hu2fROHls33kC/kbf/veuIHjuL4qxwOtCtGAUwdv48Vyu9elOYIdcNuoVCIWBzDTevreGmcnghhKKndEk4ZTpFEgKEACGwBwhUl6Bpznbu4Zamq9FXry1j+DxzFEMfQoAQIATajABdeLZ5Aqh5QoAQ8EKAiDcvZCieECAEWkLgudSPEP7B6+g/IhVn6qT/+31UfnXfiBzBc6ljOCiyMO+meIinOIw+I67vzeuIohfINzagTVSrpgcFPkLns4DC9h20PdEDIUAIEAIdgsAwEslNFLUiUF3C5fyA4YChQ7pH3SAECIF9igBdeO7TiadhEwIdjwARbx0/RdRBQqCbEIii30m6se4fOYz+Ny+i/83mxtJb5BsbewjRiVM4PmDg8PgxHgtIBgagRz/GTW3Jsg0n0umbECAEziovEAAAIABJREFUCIF2IKD0agpgKIFktAjGvaGoIX98FuPt6B+1SQgQAoSAC4G9v/AkJyKuSeiKCD9ORGhuu2Iqm+6kn7lvutI6BYh4qwMOJREChECzCBTxZJ0Rbc2WM/I/YFJv7HMYfUYdjHw7ev8FrOf+1mKlnVUsODxk2nQr3dWwxLVpo0jOjjFnp/xzF5JThs7qfof0poLFmQy0chzp3BRiql4VFpDKriCezmFKmUFViOIIAUKgGQSGEklEixrYMrZ5t4QaSek2Ax/lJQQIgV1HgC48dx1iaoAQIAR8IUDEmy+YKBMhQAj4RWDr1x9y8owTaOuGZ1NWWHg3/do/4SvvvW6olH6I9eD3sQWDVHsxiufurOEJ/ob+X6zj6Blg64fM0UJvkG52DEu4K0zYRY+bpJs9zz54aoUgK1yHVgbiaQ/SDUDh9goQSeIskW6d8RIVFjBTOYu5yfCu9qewkEJ2I4n5uUnsbku7OowuqnwI4xNRYGCcO5CpLastVrZlQJVFzGQ0DCrJd4O8B70rbZkbapQQ2EME6MJzD8GmpggBQsATASLePKGhBEKAEGgJgdz3UMyxklEMfpzFPyDtcJLwTx7VGp5NH3yI9Te+j61Xz2I9BWwxr6fd/hkYQTTKREGCujpprYT8NV1KhA+tqGG2yG5lR3B8eADHk0kcZwmB9pkrryzOIMPYrRY/uydpVsFifoX3aiWbgh6SOxlBMj2KVZ6gIZNyWYVnjB3SyCLrLszJuvToKrI+xh5Jzu86kSSPrC1hgxhtqu2Im8xgRGh5ZQOLsTmY3FsTdft7nyoIn0wisqLh0mKs9+emqUnZRmYPr6aixsBYAgnx0C3fnLyPIDm/HYK2gIVUFlASey0CUZcs9FlnK5cZPqvummwcx1WMzkvrTVOdp7ltCq6uyUwXnl0zVdRRQqAHESDircMm9dnPk/j0N5/g2Scn8KUbGr4Y8dfBZ+XmDsgHIs6Ky3j6Easjgr6XjLSP3sZ/ffcD4MQJfOlNDV98Se/Ls4/exqe/+yaef+cl+HqBWD1X7uMAjuGLF99Bn7Npf0OkXN2EwIsJHH3/ou5ggTlJOPoW/vLqL7kkm3oYCRzdvIh+lnjkNI7euIGtH6ax3gukG+fPhjE+PoDavbu4e20Wmt3PggFJFcUl9k9/DIWiGDk1zrm39tFvdVQ51RPJZM30w6hnujpBTaJZeU3ixZR2y+FsZQaZRwnkHLqkTOqpHE8jNwUspPI4pDx85Xg6FAfdyuIqJ+BMqSlXHl1aZtXqXu+GYlPIMSDrfQx8+K+QgnRjRWNTOaSRQvbSImJCGs1P3Y52fRPCWgYqztWsjr8fJA5p4lEvoPRqWq9AG9MUZG5ZIug5WR4rYMZg3bVMChY13+R6V6lgA8Cgz+FyaUwF2S8T+IXrGsqRJC7Qq6lEte7fv8fao6yoUSTNbSOEOj+9Cy88Ox9U6iEhQAhsBwFfvMl2GqCyagQ8ibLDx4BPPgHwCZ7+voyDL6vLIxKxSK+P3sZjRpA18Tn40z/heYNIY8We/fwt/PVd1u4rwJ/e4WqAzx4aHihZtCDLyj/Hp9/9AM/wAR7f/zEGtNesfni0//R3H7Dh4NmJb+MLoh6PvBTd/Qg8l/oJvvLeadM7KRuR8FTqPbo81s+8gOgNoYJ6GP3vXUf0HxsRdt41dkRKKY9Zbnlc3ZtQdALnEmNArYR7t25iqWgxctVqEVWtiCWEMDF9HmPtY9/Und/hWJNYq1tvAQvswBxPc7ttlcIgIloWM4d0yTPrYMsO0DGgUgAiZWiZBYS9bMHVbY8S6yOgk6ycS/BBZMWm0oinssgshF1kaf12rNTw5Bxyk9YzoJOgjxJqW37soH4JF0j6TYZsB8O1Wgm1mqjwMe4uWWuYiN3Tb5nMdRHmrCfsndUMYl6wW8Z7HD+pthfpNYDKI5QRwWgzOs02cshB4BcWDClctaSuTNB5danX491//7s0YprbXQJ276oNBLr1wnPvMKKWCAFCYG8RIOJtb/HWW2Pk1Zl38axB28/ePYPH76ozHfjxDQy8tnMs1v/8hbFrAE58BV8wmrTivo2DoqnIa3j+x7/BY0bSffIuPn37MAbe0Rm8Zz9/G5/+xiDrjDoY4/bMqJrnT/7GTFEFDnz7Ip7fwXGp2qC4XULgxQQGM28gfOawrYGnV97CX2YtabfnvnZETcTd+VcUz/zZkpRjhN2Zixj5+Fu66umdLrTzNjSOiVARzrMoI9xOjY+ZThYQGMJYgv0D2EFWJuFCE+faSrrdXkjh9kmJ1FAeZgEhOYZk0rcEiO1F8fFQWcxjRSJ4wrEpzKWBVL6AyuQkYifjwApzqGDYfgvHMHUhiY2MhtuFKcTEOdtHW5SlEQKGZGM6B8Zx+vvEMJWOY+M2o8uwQzbYwggPAlp2xi3ZWFnEJa2MckR/P5rhR/yNZ5/k8vJqyoZ/7yY05wLHYQlioC2XBYbtNkkJwJJ4iyOZ3MBGch45U9+ZLV15rCCOtENyVkjvKoTUbBNvl5qzJQGsXl+kv3GpoMivS3kBozF6g53o2p+liwAjoWyTaGSRTL2YqZ+689rr0p9oblWodHgcXXh2+ARR9wiB/YsAEW89NvdOSTbb8Mo/x2Ml4fcRPjcF5v6Cz95+mxd7Zsb9Bp+9/RepqmM4cEJXhz2A3+HTt38HfOVf8CXcxzMurSdldQQbpePbjgL02EUIvIDnbaTbQ0Nd9BiObv5ZVyNtNJo7eax/4z76f5HFUVHXkcN4DsBWo7IdmR7A2KkJ4PEABgYCCATYv/odDcgkXKkEi52rX263Uk+ejCObXcBJ4/BYKayijDgGb6ewAIuQE/HpyTBuW7pbVrcUKmBWIuCpaipJiHBpB7kQCzMJF0H8xM4iGVmBdruAKcGyhScxZxeRctagfi67pU6sA7xeJDKqLtobsYqDqUR6qsbICQJT9dci5mx8BiNLxXypKmkhjkvSrWShXS9g0mysgIWMU7Kphcr3bZEAhk8ldZuU5qIVwLjD/mRggNmudEq5hRBNJtrkMCaMybkcuFCkxyWBXWBSJ2fj6TmFtFsMU7kc1IrW+vu9EYmgPOhWd2/2tSksZLGCCCKRFWQXTloSoQZ5zCSCJa7QvOiQ+EVXk55rqoLccxXuyghpvvjvzYZBshmDMeL0Jymva6w0ty5IuimiBy489wxu/jfBzFR6O6ras75QQ4TAPkCAiLd2THLkNQz86TWz5Wcf/RyfXfkN8KZmU//UM3yET5NXgDcv4ksvSeqlZukdDnzyAT4XEmqi6k8+wedKQu0TfP6BkfmVb+JL3/w2Dr5yTJQCcN9MP3DiFRyQk6RccvALdmEpOYnCnY4Ak1j74RF8/b3TgHCQYEipff6A2W5TDODBA3zuii5i69X/hbXZ/4ORN4HKmTPY6EZpNzGuoTGMDYmH5r4DQy0WbK6Z+rljU0jHU8ZhMIzCahmR5AVMxQ5hJrOAAt+wVXg84gl+eL3tWaOQNvDMYEvQPVTKUQoySE4W4XIWKS8xFYnIE9mV33I+1wHeoSKmrKDbI+WDqSFFxAUbHU43hP0shldiEFitoMLIAkZ6RZJIh9WybXVtNXlAZ6raGfPhIh1WFPPuimvuHfToyr6IZuuP/Z4ggMBQwB43NI5kkruC4RcLHBh2wdCpCHm8OzKpbr5nnmNgfw9ZU/qWrVMziz4drSgI/cjgdeRXjPcSzBOroT7PbNFlNCA5z1XrVd1RqugblxzeaaqaKE5HgOa2+9+E7r/w3Ks5KFQ2EEHZTvbXa3zXvZOLvYbbQVO9blFaByEgfmPlPbTf7rn22n4Ldk8+It7aPlcf4bPvvquTD99N4r8dDhWevv1dnQj77hk886Fe+vl3k3h8wmtQn3iot0bwhVdesRV6dv8DQ0X0hINMs2WzHr4SwYGXXrIRh0/f/qpBqryCL2rv4As/T+oqqngFXzbsyFkVUKgnEMh9D2t/jAJ31iRHCkU8WVcQb5ycuyjlsyPwZPZ/4Q+z9jh6ag8CsbNJRDJ5LB4ahFaOIHkhDIQnkRCE3NkKVnk8E2Uq7HonGx+M1V3gZI/hEcFJ/JgH73ga84fU5fdvbAWPykBkNAzLxpJCoq2wADBiIcM07JhzC120zY61QTA4bbXVIwuUwDsJtAIWZio4azhu0Od6FKaDDFaHTeJFWSlFNo1AAENDnUOzWXYerYGYf9ssih0GcjlTzZnnh3hXDUknq6giZJD/rB7j/WaOQ7CQQmpB1KMoJqL4YSSGwkwGq6MSWWeK1U1iLv0IqazuHKTVtU4011PfxhpRd0zSulM3nzKR5lYJSzdGdvuFp593vc68KEl3Rf7Y5BzCYJdpeSyejdmlahX598Y7uaJhivKFgNhrtfq7Icr7fX/cnTI0DVhCWcP1wqTnpZG7LLAfnAsR8aaa+T2NewnP3/ixoQL6CT576+c4KBwWfPQ2/irUPV/5qU+bbpJNNd/jiOCL77wj5f4In36VOVBgvhbe5N5LpUR/QanvB39qOGvwV5JydTkCT+4UAUQx+PF1PL/+M/zn/EVsvXoUf3CO68Uf4WjmBv7h6GH0HQG2fvgC1nNdaMfNOa5efOYkm4asVuaEilB50gk5Q8oonsZcF5kgMgkkxQ0bs/lEHwkB4eEv3GCCw4d0PzxJiVBgttwEycaxVvmCrWAxbznNYC0zQsRmW1Dqjito3rDGcbICsG6yNtOPUsikVu3qZq7CFNFLCDASrJET3lbHKw4lzLlVhBHMkpMQ1u784gxSqbzn+8b7xhtnUqDeH3a4FZ+ylsFC2FLpF/H78lt2nGGQ6Lq9Ni80BvlaIFIrFeaDVv2huVXjQrFtQkB+17fThSYIvHr2DAWRw9awnfBOvp0h9UJZ1QWRf3ugnYqAIS1smDIIL84go7K969X9yiLYNhBwm3nxKtI6QehV4+7HE/G2+xh7tKCrkAoHC+Ibn/wGnxoOCGz20O5fwWOmcso/x9B38R180XR48C/48k+/6dGOOrqed9FnP79iqf99cAWP74t2FXUd+zaef8fh2ZTZkpO8rH5+JYnHrApTXfUD/DV5H//tqO6AUtXWkYkeuwOB1AWEmWrpkddx9MyEWl30zp+BM8KLKdD/g7fwXM5bAq47Bt67vRSOCyKHJPIlPIkLyVVktDLiJ3fYcJcSSl39UfdkmQLjAf18xKbRJID8FFKohNkkZ5jwTE/beLNAEvb7EjGdEGOOZc2PUDXlm62zGI1oUFFrZn5VoHDdkKQU7xAjJiJYkWwLqorxOONgwTZgTttxnOg4uYBUJoVVRgZKr65nfZTQ9QioDzW6tFt6dFW/QLCN0qGirGWQWrVUnSxShknLMQkR9tGlo1KmtJwgmFl8CinTiL/VEK+H20BUv4j2dib1dvj7nQL7k+vGQ4Y1+p0NcXIykoSXvwmdZBtUNOog49jhkP2QcElImlsFYBTVzQioCDxfpLX3oHfCO7l37T2eUpcIXUE2xZyDtX7R0tQed0ehNqSFZfuhxuVnNrOAcEMbghUsXmrCJq9x2bqjQ9ijyoh42yOglc18olL99JBYU+ZlopxlLpn2hYhg4ayWDhhxz8qq02kZz8oRHHAV+wifMY+l5sejP2a6wxtC+SO3x1ZV3xVx9DKaoHZ5IIrBH5y2xnDjfWzcGUH/7AX0H7WiWahPtv125HV85RdH8NSeBcADbDGpuW628wagtpzHrU0AweMYH3PaTpIHXUL+6k3wrCPnkBjrBDUuQyKJS49fR2HSMsRbYTqIADYqalte8siAMurdqtrzGk+uNcrKJQg1K8YZ0u2FNE0EsWq4Sphx+DV+5AfNDdE26nV2seOfC7jOJR11+30wJYr0jRZMTPSBFAaB8mozXkT1d4vNpZCkZP5OY1MJxFeyyC+eRcxKsKPFNrHaBpLpJFazjOxQf+LpNJDNYCEeV2eg2N5DQP77FbYJVwU5Zg1XqWpqSGwyIiylMZuW88jlnGQZuwRgLpWzWJC9PkPYRmRrRAopLiTc4CAlJDaZmqTpKcboozg4CwJuW6qU1ri7O1QAEwqMp9n6rK9DzFPtnLRO8N+lyKipUuwcryA5aW6dyNBzryNQT/LT39h3wju5vofyvjxtLPW0HYLK3zh3NpdYc3itynXc2FPtbLO7X5v4/XL85rKGTQnJlMPRjaNXlcVL/CI9zm53e/xDXEcHTPCBH/8UX2zSqYAuscZIru9a0mmOsXAPp3jbJn1mz+K2tcZtysmZTvwYAxdflmOA8r/j0+8aqqjHDsN8iTjp5ujPiR/jyxdfxhcA/M/v38JfOan3Cr584194HDuIf1ZnDPaG6akrEBDSbryzH2L91V8CGMFz/89p9KscLEiD6jtzGn3Ssx48jM8Z8eaK75KIWg3MlWlts4gi08INBTnxBiNeH0UNtZrk8bRa1f0EjnTIGIVE0nwCjzISGcJFwyNgfMaKZifk1D132uVS5xKx/FDsrR0ksu34d+NbQ8lz4o633lkVMrVb5m0xedbfhkhXP27Ctgd/t+JIu8TR9M19KnsJi7E5iZST8GGkBHNRWVnEqkLCSEglwSBDmI23FVlaT6qKgnUQqJWwfOsu1jaBkXMJuO4CSnlcvbkJBEdwanys3Y6Y6wykuaTG64CQwFXV23iNYGqkKY1x/PONPS8LAs7RlLfn0jqeotHlBHThNlaYZAVfkmI4yX5/bGR/BVyrdDDsSbzR3DpepJ57LKFU6iz7kz0F8ba9k3utjwYhB0vi2IVbXakxV+7OiDC8UzNJfm/1+Hq/J50xDGcvhHQ5v8CQLj7kfIx8mz80g4zQPHDmE9hEkvC5zZSr77qwyZl0Xc97qMMHDr+Evpc6YECSXTacOKGrhn7yLj79/cuWfTlGrgnSjTlJeMfq+LPfCxXVEzhwwpKUY9J4rhfNjFNJ43UAFtSFFhGwS7s9vXIJW9i/dttK+VloxRAmps9jwIZoDcvXLmOpGsXE9DjAwyFEk+eQ6ABHprauMokCplsYT2MyHEMlGUHGINlwXRcNn5sK49BGxvCMZS9tPvGDo/nkK8BVBevkFAfXOll4UnMqod43sU5V0+63ydEAOWNDxDZVbK9ku7EVRU1VUyElGANTN9XyizgbMyQGRV7Xt/5usZtrQeuJjZycVbu0iJjhNEGOp/BeIfAYa8WifhlwbxxjDuatdLeIapX1ZYTdMXTGR6Eq3qpuuH4B4DwI6uvEo4RKmo2lXQIueBDGBkKccDMPIUJVxwu+ONIKdR2l1IdxMPVO82qjO+KZminDTqwZuhmEVRQqkzpBXylglUka+pCeoLntjjlvrpcl5Gc18HvOaBLn2KZq+SouL/FFyndVoYlpnHesdb4Ld3xGu8p1q91V7gkaVGZf95yZdUdOiHuT5nqJCGSrJ85aOu2ZOw3g5gLq/yZ49ltFNiqk5sR8eK/98s2j+jfF1Qch0ca3eIZksdkff3XoFx3sN45dNknko1Q3d8zFbqI8PsoxeeTt5GgXH9LJne2pvpUfengYbW2UB0yPp8wxgkPqjFd5Al8yPKY+M72LSm3Z7LK9gi9r7wBvf5U7d3j27hk8xg08//LvJTXSExBOE0QtB17+Ng68Cxz4qYaDv/sq/iprrIpM9N3bCMjSbg9+hr/MrgEvJjD4tfvYeuOsJLX2TwjfeB39BhpPr5zFX37lDc2TLlUzDQRDAKpYu1fDKXl4tXtYY3vAUBDDgRpu8bQqitplbE5MICjnbXPYKfEUnkwgruVRKSxidYX9gOrHn8lEHFqWecZKKHvMNgSXcMFQB3KrB+kbhkHb4ZIdivKH7CpEcuX1N3ByTj9h+aY1ByZIZX6MzYGlamqm9HDA8E7FNncGOWCXEjHUIhyqpgyQyQtJrGY0XFqM2dS/7GAxvLPcdhVk8k7OxNo+W8FMpgkJOrk8hVtHoLaMPNeNZ1UwxXf9U127hvymsUJxtXngLjvhsuVsZBidwrvZVMUlVVMhBSkfPwC7jTe7druu1hhJxhCGvkbo3kiB2Chb81JYcarYMLX7QUDLzADzzR20lIcLfsjRMd73/zekrEfnJdXf2EnEsQLtegGTUzHINillvHSzCLLdN5pbGZ/eCQdwPAquYVAtari8GcVEp2gPdADI+t9BmdsTq98dO6kiSB29jEGeCMdJoqJ6pL/Is83v7avKbrMDTRc3JHARR/OmkI19qUpGZYX9btnnyKtrqgtNgNmUq68Cyn8vMxpY8+K3Sa+LzX9Ov+jgc+5Rj23vbJhh4HEpaJEkkoOsbjaGk7idysJpMoCPx6jDa2zdFk/EW7tmrPwXg3g7gXqODvake4x0O/OuSQSahNo7N/D/3T+Dzz4BOPn2rugNI900PG8Ju+kJkZfx/I3XuN24p78TeRt87zAB2aA1St5VBBI4+p6w7fYQlTd0Rwn9mYsInwHCDz7E+hvf57ba+n9x3STdcOMtFGeNk9uLCRx9/yL68TOsfaP7HS0EhkcQWqqiunYPjyU27d6tJS49Ej01xg+qifPTCF5lEnC7OkEtVL4CzVCFMgUzuNpejHudLMueTGNTSMdTuK102KfbCStHhO0vt3pQODaKiKbhdmEKMUOUIXwogrLmrWroV+JNH7h0yyaQMH7Q2aainL3ENxIuU04i7z77LixkdUJhSsiVNAGA6XTD4ZGx8ohv4HSfFGGE+RnYKUnkbicRX8VtNLIh6G0/sMsV69yA7EVMbRNFrhvvaKxaRVEXb9PV5gc2uWQJy1VduozZJUf+aBKzHSXGK2yw6f3khwjTQYJxISANQb94iCPNF0B5cQsjPMlUnU9iIZXF9cIkpmISMTfFDPWnkG2BfJOap6ANAcsAt66Zrs+XSaKu3EZhKoyKLu5mSsTZqogcMtVPaW5tyPTQQwBDiVkkcRVasYroqQSGH1+FvjRFkZxNQCgW6FoJ7NZgAtPn9f1YpwBhJ7r898rXhaTzssBRvYqoMS/e+L5JZTl3m97JWR8MD+o2J16OvnXfoyHFJ609fscgbJ+5tSsEIbdiaJp479PYe8QdYjnn3CBJxYWFu0+sDf1yVJBuLA/XRJly5/YdE56UTCtMYpLXVcBt3xV0d0Yi3toyf2X895UP9JZPfBsH7dere96jp/9ukW5Mck4m1P7vb7+CA58Y9txEzzz7rHLWIAo5vpnK6r//Ds/uO+p2ZKPH7kGg/xeMMBOfw3j+/Rt4/shhyWbbA3x+B0DqJzh6RuQTNuDYcxSDjHTjduBex1dm/8Mi5ET2bvsODGMktAYEZUXTTWyCScIFcVzs/hDA2PlpDJSAoaEa8s7Da9vG7XWbxiQFWJr9x579IMeYaqqjv5zEYbdakrqgSz0obKgo3i5gymDewpMXkFzNmJIMjmp120gWI+hMtp6NGzkrQnjn1G/tXObF5Iz7NNxIzVdskGX5ERkqfe4uYbVSYFs1m5qqUB1t2IZRYWxqTn2IlhusazvFlpEefCIQCrF1qs4nCNwT4m51srUlqSVVU6eNHYdjEeVA5DL6AWswoUtjsfc7zcg3QxJLWZwi/SNgqJCiLCQU2W9QDvzcZpABlUWnh2Sv6mluvZDplfihxHlMj9e4+nvtsTyqGmqlGmp4bEnrBgdQK5VQM7O13z6cSXSZfdqJgJC+2om6HHUIW8AXxL6QXVT49E4uqjIu5+JhSaJVpNm+d0ZV1lblbj+obE4a5JetaVOFtIICu0TgexvLoZmel9nIS+NRKosVfuEQ89gjiTrs+29eB78sX0HWo3xhIcMdHjAit979qx8JRH/O12wo1H/g70kEo41ek/q1tCWViLd2wF7+PZ4aapgHvv2y2/5ZC31iEmn/ZUqkqSr4BJ+d+So+UyT1ffMV/PWDD3DglZ9yW27PPvo5PrvyG3z+iYeu6Cfv4q9n3sVfARw48QoOfPubOPhyBH0Kz6qK5vQoRjZ+IJNur+CgU4LOszAldCICW7/+EDgjJN6AviOyxxAhAfcdu1Tcme9LNuCK2HjjZ3j+xuucrOt7M4vBX53BRpeqmepzxAi18xgDUMqLWQtiPJFAwtTIrKFUqiEwNIQhTsRZWz9RovO+2WFTbK4cvTNuLE1CprDAb9viacfGwVAPWi1UMMnJM0MCyrYJCMNSYY2pDew7mvf7yEkf162dQ4LCUZnbxpuwa9bIlpmjom58lKQDze4ziUeP14B5Jp2cm+Mqu+L2XL+JBxZnMsikNFN1wayv1YDtBtW7En2D2IUbdu8h7V7KUALn2XpUWsYyhjE2JJRIa1jO38NwYgyB2jKuXja6EAohGtTFejc3DZtvoSiiQVFu97qqrNlxu8+lR1RCGsrCRiQ34u/fsQhEfukwoCSX+QGVidnqzhV0tVipUL0+7ee0en/nPC3MpQ91e6ROoHS1UtN2lJgrv9a8RX5pmmhunRh3zjP3Ij8wjoS5bsl9q+GWptuAE7FMJVUzFC94HJOAG+osCTjR1+19+7WhxvY2lnRo4za34Z1cqpzZb2TSXc2rZEqVdGpwo9JQbt/edSEpN4qYtO5YecI4xM7SKjVUM5NRB1crNWWDzVQ9sMHuUdmWzfxs5GewUjYc//i53IbHvsogUvHI0YDZkj1QT4vFPFPYi3TdExFvbZgyS8LsBPpebrO4Gxt/5Cs4+MpP8fy/AJ9+9atuL6knXsGXL76DPnyE//73K/jsA4uQe8ak4T75ADj8J/Q1NZQIDr7yCkf/C1/5Jg6+9tKOEJBtmE5qUiCQ+y223jvNpd6ePnhoI96eXkljA9/B0Y8tqbinN97HFvN2+qJRwdeO4SD+jE9vPETfGUbaHUb4xv+LJ0GZnBONdce3qcYgd7e6hMtCHys6gSSW9A1fKIrkeUsFQi7S6WFBrJj9jCQhLj35nafSW5Fb3VSXgjNr0QOxs0hGMsrf7Xo/0o5a+K2hO84ZY1dDc6bu6+d6h94GwDBPp/FDMUwZG7jJuRwm+U1vSrfx1qC8mWzeBJtD+xWSAAAgAElEQVQxDQPOdzOSvOBxM9ywqn2YoYS8toQilrDEVbEGcMswWr60CUwEdZV5HZgRjDMyDjUsX9UdMYRGxpHoEOPkul0jXcnZmkjh/dKKsYVcDmHERYBBmNky6w+MXFadUyy1sSxSTLU152T9mWRo855I96VXUwXuLMqUrBbiGa7LgjjSIo3m1gPF7o+umY4Uiths4CAhFI3abeoy7/MdZ/JjB+eEE8hAvC6z1YJU3Ha8k5vDE+T4ybq/0W5bjWYFHRoQBJnCVq3srdq1XrV/OGWbt2hVf4REnW4z0KnmbErD2S7UVfXocc7yXjm7+RKViDevWd3F+D5hO+3Ym/hiU2SVd6cO/PineJ6TeGV8dsbDucJPL3K11v/5/Vv467sWeYbIa3j+Hb3uL/34BD430g688mN88V9ekwi1l/DFd9i/Mp7+/N/x379hpBsARto5pNX63vkT+ow61b2OoO8dRubRp3cQyGM9aIh1pX6Cr79nSLwZTha4XTeuRqqPuO/MRYyYKqdeKJzG0V98B3941RQX88rYpfEDCFhWgKHNbmJi2uaGoW3jakbNQS09pnc9XMftvEtiwHUYYnXobudVQPj9kYZC1VRVH8XtEgLhSUzZvFVwQyEK8sFn+02QgPXeTZ+t7dtspbyQCglh4pxhjzIZRZGJhlSX7DYpq5tcTYsRb5vGwTU40CZpN2nGZOI1ntYlUy0SjGWMICluCaRynkH5oOSZyZ3gdz2VbemYtfD1y3yyBZT5bTkcD3XqcuTsrkfD6UJyXpKsbmKd4IOlue2uOffobWD4FKJL+trF7E5exTTOKfOGEAwex3HJEshj5khG2LBUlunuyKYkylSqkcrh74x3ct3mYiNS0OhAU9J4yk7vYaS4sFnBSnYBJxXeqet2pvzIQ1JOSMTVk0w0SD80tqUr92EwMYcLlRlkNA26mVIPrQ5D/Z/txS/gEjJaBjMQDtEMUi6eRHJDQ37xLGKqWym5YV9hUW+CE7T8N9600+qrgrZmIuKtLfBH8EXtBg5iu6zbS3j+T39yjCDiiHsHf/8nOwN24DUNfa85ihmPB167iIGXgQN11UYj6HvtHf5Pl3H1N44DL7+JL3MuJoIvqJun2J5AQO1k4YlDFdX3UM9cxNHUL7Ge+5vvIp2ScSgxjelx1pt7uHbZkA4JTSB5zvD+FwgggCHMJoGr7DAbPQUmINKrNOPOzYtOxjm5HM/6lYSeZ25KIAT2PQJMakSoXoUmzvF1iYMylMD0xCYuC08woRBC1Sqq2MTjGjAEfnRl1srRLi1TmdAPT+XgFC7zS4Lt7Usg24pztKxav5ollUSVqrpEWjd/t4rHnoyZ5nZPYBaNBIaQ0DdVKGIC59imalkkyt9VFA2CTo7t3bA/iTLAIHR86fZZBvi35Z28sohLWpm5zqxrT6xr54ZrbqxAKzNPois+zWzEcDYZwYrGygBpG2Fn4R4ZZR63vT5hxEYj0DwINEZa3T6ZU2LOfifTj1LIrmjILISRE9LCUlO6B+kIkrEwwuE5zIORdYZTLQh7m5OIFVahaddRmJQuRqR66geFIwk5F7NZx+yc6NKZkS4y9kbEmzyPexqOdKhqZRMOEjhe/kg3PetLkvTcnoJNje0ZAlEMyuqkTMVU2Gj74wM8xWngwUPAdLrwEFtX3sfWr4D+G0IN9UOsB7+Pz2dvYORN8PRKbs8GsMMNBbhh31JeVsnaxN1bMNSyjOaYPSXG0AWYhEhph/tA1REChAAh0BwCgTFDaiSa1A+uvDiz73YNawgiFB3BueObuIVxBG9eRrVaxdq9Goaxxj02M+cxHSDw1tygKTchQAj0CAJDYN7ix8EuN2E5TQgF+bM+yBCiE6fsEm93b2KpR3VNdYky/zYrPT2L7rh38gIWMhrKzC6ngtyxv5DCPEC4DtlkL9EZT+yyeB6Y0R0W1DMRIPfXdDBmEHZyGg8zsy4NpMjCkwnEtSxWVA6HmEW9k65azYjY1DySGxloK4aJBHl+JLJUdIGRdfNYRCG8iIXMCidSeZrRh9ak3updtOsksXBoZHa8gwN/18F9o64RAoRAlyHA1EnDpjrpQ3x6/xj6Z3+Co7/4EfpxEcXgURS/kcanD8TAHmJr9pfYYt5OHZ8ns2msnTmD9dk8nqD7pN3M4dSWcVM22lstolhcwuWryyjVaqjVSiiVSijV7iGfzyOfv8mUHfiHqUnMzs5iNk9knIknBQgBQmAPEBhCYnoayeN3cXn2KvgSVLuHtWIV1WIRweNjCAwluPHy4RHd+2l17RqurRl6ptHjMJ0270FvqQlCgBAgBGQEmOdS+hgImCRJQmmD0oaT4SDLFmdWM4NUlhnpL4N5J2c2fLmEseSxXlWOxTHv5FNOLwHMrhnzzOlwhuNVBwzHNJ6koGfBTkjQCaRcLo24sjsRJOeZhLbssUovM590C7kw9c6cD9yZV/mpXA5pRaONTRXohCFvnpFvM/qcM0mzxUsaypDsZhpjCk+G8SijYcWWFsNUOg5ml3lBN2fqQEBXiS1zJwyOpDqPOpncXc44SOKtzoRSEiFACDSDQAL9NptthxF+76JZwdarIngMB01yTsSpvot4oiDkVDk7N66G5WuytJvU0+oStMtLUgQFCQFCgBDoIAQCwONr+q1BUbuKzRBTKWWfKI5LrFpgeAShpSqXehN2yaNyhg4aEnWFECAE9gMCJdNzaWhiGqeE4Unb0DtT1dRug9LW4aYeLBu4zUiUAYXrBqEixJiMVoW9TL3e7XsnN8fp5TSJ26N0e+K0xtUUHB2UuXknXjthHsGPvVt1O06JM6H6yYhCh+qoOWdxh2qsYdc3DaSyKWwkhR04MS1hTF5IYjWTRco95SKT4lvRB0WuTooi4q2TZoP6Qgh0NQJ5bDF1URv5phjQiy9YTjUePHB70VUU6daoUv6yYYA8hBA7tLJTKfMOeA64dg04dwq4pglijuUxRsptJgGh6AROHR9GgKugdisK1G9CgBDoTgQCGDs/DVxl65ixfvElbNwuzRYYxsj/3979hsZ13/ke/8Tpn8gtpat1HTKVGOx1fJM2AsPOrauIUJrceksXxPqKwjDkYUjTaB2KGEj1zM/UgBhKvermlj4Mw0DRehG07Do3Ccsy0To7Cwa72VxFazNIndDUq/aRZdqmuXx/55yZc2bOjGb0d87MW2DrzPnzO7/f65w5Oud7fn8efqPRJ/nDz+hrocBcMstOrhFAILECd4O+JiU3yEvQjODkF1zj069ls/qyK9xv9Mu33vBGMrX+d78ejLTgNVE9ivLHBz92m5OKlqxGmdU+iqkdFQTToqnHBzP2c3TyxfFl5UvVzn2d7XKwk2hZhuuTN+JrWuPtO33bM0hlyZrLxgTW5A2y0TEwasd0cVzz+bxyG3PR2n193U/nntnqCRB4q1MwgQACexXY+sVPtbX+vrbWpPvvrrnk7t0It7OUjv/NM43A2/r77ZuRnvu+Jl49rd/+6Io2i9E09prPw9r+MX/EUuuc/Osf/p1KQXWQE0/pu9/1cvHdy081Zec9LV8ueTVLTj6uxx47+pEBmzLIRwQQGBqBE3rq28/oVjA4jPwH2U7ldw+3nVZgGQIIIHCAAnc/9Gvn2iAv7+mXkVvIE7r7y5/pLT2hr3/tcZ2U3/LgpKRfvqXSzZPKXp45wMwdXtKVJT/oFumYv7H/bmpB1dfe19HJMyp2PTpWPQdMdBJwIzvbCmNKHWDgrf0502EQmXC+hyTAFi5yeJrAW1iDaQQQ2JtA8Qdab07h3ISO66wekvXl9oRGv+mGtnVrba97wbnmTeqfTz+t1A+fVupbL+udZxM41ueJk3r4YW9UrbsJzH79ODCBAALDKXD3PS2Hgm6GcLN0Wcpe1ozVarPlPyt5NUYCoZsl/b2y+vbMY6GOzIOF/EYAAQQOVuC9INL28BN6XL/RLX93D9tQy+8tq+QPoPCbrz0eychvXJPUX6u0/GVddhe4yOLEfWgfJElcUchwrEBQo7GxMJ29qHAvcY0lTPWDAIG3fjgK5AGBARA4nvu+Ut86rZEzXmBt5HQjwGbF2/7xmu7/TSE6+MI/BrdDMQBfOl2vGbdjgC5m876YFarZRje/fXFEyAQCCHQlcFfv/eu/6K03bvo1R6yV/DM6+cYbssojN99adk213io1luvhCT38a+/zr2+W9HcfTij77RlRabcrcFZCAIF9Ebir34Saluo/36rXfnviC/+pvy951d+sJcJTJ6R/re/zC43avTdLWv6y/3KhvpwJBPpboGMzz/7O+tDkjsDb0BxqCorAwQrc02mNXni67U5GvlnQE+Fg3LVXtXkjbrTSUzp+7gkd/1Yjre21DgG6tnsczgVrazvUIhxOloEoNcd2IA5jIgrx3vLP6rVCLMPWQfl37Sn1cenDn32oJ05+qFK97bzfd+V3n9KJu1/W8t+VXHBOv76pX94l8JaIA04mERgUARt92e/WY+Kk9C9v+B8ePin98pYXhLMOdW/9TH9vg8KEy33iKX37mVty41795q54axDGYbr/BHofqKH/yjBcOSLwNlzHm9IicOgC27elERvFNBx00x3VFv+hTV5OKXXtamjZHd1/N/QxoZMnTk5oYsJ1kLRDCU7o5MSEulp1h5RYjAACCOxG4LGZr2vipgXQHtZE9tuaCaqt1Wvx3pU+9AaPeXgi1Kz0xGOa+dusjRqjmyezXnPULjNAYLlLqASuxrFN4EFLaJbv3g2quz2sk48/pse/MKEPrZbbE1/TU0+d0OMn/1V3n3pKWr7c6HfXxmr2R2I+8dS39bePnxBjWiX0BCDbCPSxwAMfez/66KOPtL29ra2tLY2OjsZm+YMPPoidz8zBFDh79uxgFmyAStXNzewjjzwSW+Lguz4yMqIHH3xQDzzwQP06cPfuXX34lf8Vu13bmedmNPolW7rmAmXhQRVGX3tdZy40mp5ufe9RrRejtd1GX1vXmbgRUa/tX/9uJ9/5v26EUCvzsWPH6uUNLNqWTRLXv046LEMAgb0KtLtW7zXdXV+77r6n9/RY+0ofHZff1V03fuBec8/2CCDQ7wJ9d+0ysLt3VY+evfee7j7W1OekXb/8PkBOnHisvuperHlu2ove0W3bzbMUx/bojs9B7rmbYx/sv5frXPBcGX7GtnT2VOONkzA4FMn83cvJlswSkutDFbixrK0b8XvcevYbWneBtTuqXbgQ28R069mLWr98yQ2+MGLJrN/R9vo/q3a5Xc24+H0xFwEEEEBgHwROPCYbP6HtT8flJxhYoS0cCxBA4MAFwlXWmoNutnO7fjFo/IEfBnaAAAINgT0F3hrJMIUAAgh0Fth69oze6bjKTW1dfl5blzuuxEIEEEAAAQQQQAABBBBAAAEEEiNwLDE5JaMIIIAAAggggAACCCCAAAIIIIAAAggkSIAabwk6WGQVAQQQQAABBBBAAAEEEECgvwTowqe/jsd+5oZju5+aw5sWNd6G99hTcgQQQAABBBBAAAEEEEAAAQQQQACBAxQg8HaAuCSNAAIIIIAAAggggAACCCCAAAIIIDC8AgTehvfYU3IEEEAAAQQQQAABBBBAAAEEEEAAgQMUIPB2gLgkjQACCCCAAAIIIIAAAggggAACCCAwvAIMrjC8x77vSl5Zyml5fFEL06kDzltNK/N5rU4G+2r+LPWaF1u/oDkVZzMHnHeSPyqBRx555Kh2zX4RQACBXQtw7do1HRsigMARCnDtOkJ8do0AAvsucKSBNxes2MxqcWFaKXnBj5KCz/te1gNO0Mv/xkxRHWMvtRXN50uqutyklV1cUD3OVFlSriDNFWc1jOGbzPkpFQpXVZnuovzOqtzVMZ2aazomlasqVac0txAE+GraqEpjM43PqYtzGsvnlStN7Xw8KksqlO1YDuNR6+oQsBICCCCAAAIIIIAAAggggAACQylwpIG3gRZvFxhKZ7VYLCoI8bQ1aLd9eIOpBNaw6qJchVy7gFpTEMwsXdA2jBKe9oOh4VmSKtfL0tRcI7hZq2lTaU3WD0pKqVRKs8VFjc/ntbxyURk/OlpbmVe+5IVNm5JVKZ9TqXlm+HMSj1c4/0wjgAACCCCAAAIIIIAAAggggEBPAn0UeEtpeqGo6Z6y38crZy4qmy4rqAHX3HQxWtsvphyZWRXnpNzyeGxwyWvaGLNdv8+ychVn/Vx2riVYqVSUyex3LbKKLO4mFdQc36u2C5xVreabXLCuOLugYvgkdYHE4a2l2O+nG/lDAAEEEEAAAQQQQAABBBBA4CgF+ijwdpQMe9u3C4IFlbQKOZXlNyG9lNX8lRXVMtOKNKOsrWjZNU20JrZef2KFYHsLCbmI0JTmFseVrm6oJjXVkKuptimlG1W09laAI9s6pemZKeUK8xoPN7mVZDXLCiW55pv1prj7ks+MZotFBaE/+U2cG/299bKTipYKZVlTVi882DmQ2EvKR73uAw88cNRZOJD9tytXu/kHkgkSRQABBBBAAAEEEEAAAQQQGDiBds+VfRR484IWrX28+fOD1n3NzQsjfaYFtZIataS8oJg1UTyv67mC6vGtlmZ/FS2FlqezQcf7/rnQYT+Z2aKKs3FBl2nNjOV0tTKt2cx5Tamg5ZXzqq26iFK9bzdvey/YlC+NhfoUq+i6VlVribxZn2RpTV6qt41M7gmbmdVidkmVcAkqS4o6hBeGpqsl5V1VtNC8mMmpmHmNWbu3rCwVVLbzqHG6NZJN8JRdLI4dO6Zjvyhpa2tL29vb+tOf/pTYEllZRkZGNDo66soVdzG0eevr6/rd737nyvvRRx/p448/TmyZyTgCCCCAAAIIIIAAAggggMDBCthz5IMPPuieNz//+c/rxIkTsTvso8BbTP6CYJcFNxb86EZtRSsVado++suVXVTRVYvygme5ltElyyrkrDmgX9PJNQ8saL4+gqYfdAsF42orK6po2qvJ1PV+GmWI1IIrWy04/6dU8AZW8JsvNgJ8NVVWLbo4Fqzp6rmNp6vaaA68Va6rrDHNJTXuFhzXUElVKrf0j9bc11vDyt+wOQgbTs9N+8HQlvmNGbWVZZXtiLRrZmqrxu3HDahgC1ubrNrJVj/ebldNg2g0dt93U0HQ7ZOf/KS7eHz2s5+VTSc98PbpT3/alcfKYoG4cPDNPtvF8lOf+pRsPfsh8NZ3pyYZQgABBBBAAAEEEEAAAQT6SiAIvNlzpD1P2nOlPV82//Rx4K2mlSslVS3oER4mNDXt1xQLLa+3Rcxodm5K5cKyVi5m6jXK5Jp+hkbK9PtfK61WVJueVsp1ri9NnW9UXUrZfKfVy3483srSkq67eE1TrbmIvhcUWg3m1SpycTdZkNBrvjibSSkzmdZqU5W3lsEBgjQS9btpoIRe8259xTUOV5utvX4D2yy0yK0LdqanrE7ceS2EzzN/I68vvVS0qa8FDv22wdFgYFytRwvqLrfPQp8tCS4cDz30kD73uc+5oNsf/vAHV/sriTXArDz2LwgkWrnsYhjMD8prF8rPfOYz7mj8/ve/T3Sgsc9OKbKDAAIIIIAAAggggAACCAysgAXaLOhmz5P2XBl+3gwK3deBt42qVTbKRIMeQc79QFXL8tS40io31RIbUypSOyyllFUs2/QTS6VcPbNyYUnni6EAnS3uaT9S2atap9lMoxexIMvR39HBJGqVVSmdlqpjrm+35XxOS3NFzWYmpSt+gNAl4A0OMDW3Y9QpuruB+RRtEtwoVhDI22l5YwtVrqpUndLcwqy0NK+VWjhY69Wo9PriC1tXtJT3mgrPbeSVnJBaqNw7TNqFwgJUdgE5fvy4C0IlMegWFNOCa1YWC74FbyHCy4Ly2jy7UP7xj39MbKAxKBe/EUAAAQQQQAABBBBAAAEEDlYgqNDxiU98wj1rhit6hPfcv4E3vxbaWDRiFs67m66W/BEnm5aEG2w2LYr5mNHsYlab+ZI/sEFr08DO+2kEe6yjfa/iVGNezA6tPpyy9QEFKrpakiazY6paa9PUtBbmNpS7XtHsbEaTyvv9xFnr2mWVrRZgOBYUv4OBnttwDpocb4TKG7Z1o1coVwgtdpM1rSyXZTXWHOXFSTcQRmahqabj1JwWQkHber9u0ylVlprTTP7ncJDKAlIWiLKfpAferAwWfAv+WTntx35bOYOAnF0ok9ys1hWK/xBAAAEEEEAAAQQQQAABBA5NwJ4z7bky+Bc8bwYZ6N/Am5/DzaZmlkHGg9+RAEwwcze/LdhVnK73G1fKz0sWGPPT6rSfytJ1nS8uanw+r0b4JwjmrWqyHmDzErMRO/Ork8r4AR0XTJuaUTF1vdHPWagppRv5c3lFF1PSlVJVU3ML8bUAd1PuId2mtnLFr+3mH4TUtC5Nziu/lFJxNqPG8miE0w2EMQRmQUDKLiBJDroFh8rKEfyEL4LBtF0gbR17U8EPAggggAACCCCAAAIIIIAAAr0I2LNl+F942/59ykxlNJkuqd4PWzjXNh0st1phmWhwpHnVnj5bAG5Rms+XtFqpaXraz0eH/WRmrVlpTSvNO0pNa2aqpMLViqaD/sNqK7riWioGNauk2saY5mx5xXqGi/mxkT9r88rnq5LVwNrH4sbs7eBn1TZUTY8fXfDQHQMvgBmmTE0vaHFlXjlXPc5qzTU1O96NjF9zc3w32x7BNhZksxpf//HI/ziCvR/8Lv/yg//nAolBwM32uLpa72nx4DPAHhBAAAEEEEAAAQQQQAABBAZOYHJy0gXe4grWqAYSt/RI56VkNb1ULSm/VGnkxB/VVPKXlwuaX7FhP/0f6/h+fkWhOcGS9r9rK1qKpLGhqtKadFXS9rafzOyispsF5awMNppqvrUGnAXuwgGgloz6gSKbnx4PtXtsWTEZM2xwiPRkm777DrwIjT7agliot0sbGCGnfKkqG2whvad8eGnlcjnl8jZASKN2456SPeCNg6CbDaYwqD9WNgssDkItvkE9RpQLAQQQQAABBBBAAAEEEEiaQLhyR3Pe+7fGm+XUmlsujms+X1Cu7Gfd+jdb8Kdt+ZyUK4T6eXPLG7XJmgsc+zk1rfMbOeVywdKmPsL2tB8bRGFOGzmvDNZktT4Ia7C7Dr9ds1QLBmUXZS1hV+bzym3MueaQHTbr30W1FdmABZOLewsg2iAWwSnhFdZGJg1+qirlc41mu262tzzcR5u3dqgvvqk5FYPqhLN+8MxVMgz67QvS935bs9P4gGl04IzoVv396aOPPtL9+/f7O5N7yJ2VzZqUhpue7iE5NkUAAQQQQAABBBBAAAEEEECgo8CRBt6i/WW1CVYEfa+1K4YFxYrtRxB1+4hZHN23xfiK6pCMFwTsuEJcBi14k1fJjc66qGLqqnIuYNQU2IvbVEFAyNZtBOumF4rKuOaQy6HBGWIT6MuZFRtFIrvYU/AxriCRPveslmO+0btedOCK6OAKjeMe+Frr3aKKLRG0xvlYWcp5gzNYYC5aTS4ua4mdZ7XAhiHwZgNGWF9und5IJPYgknEEEEAAAQQQQAABBBBAAIG+EnjgY+/HPXBvb29ra2tLo6OjsZn84IMPIvPPnj0b+TysH4JaadKU5iw4t5RTwVXHahdgawR9FK6hZ01RC9Lc4riW816AaqFt9Tg/jT0Eg9bW1joeMo5vR56+WLjTMbRMPvLII7F5Db7rIyMjbvQVa4JpNcJs/gd/+fXYbfY089z3debVZzSiUxo5Len2T3Xrq6/onj7eU7K9bPzIf7zlrm/BMM+27dtvv91LEqyLAAIIIIAAAggggAACCCCAQETgySefjHwOfyDwFtYYsumdgjYE3vr/hNjpGFoJegm8WfD9v//7v/Xr//nMARR+QmP/dlUpC7q5nzuqXbigzRuHF3h7+N/f0J//+Z8rCDZaNgi8+YeDXwgggAACCCCAAAIIIIAAArsS6BR4O9KmprsqDRshgMCBCux24IHR19Z15kIvWTul1LX3O49ue+1lvfPsci+Jdlx3t2XrmCgLEUAAAQQQQAABBBBAAAEEEGgj0MejmrbJMbMRQAABBBBAAAEEEEAAAQQQQAABBBBIgAA13hJwkMgiAokTuP2mttZ3meszT2u03hx1l2mwGQIIIIAAAggggAACCCCAAAJ9IEDgrQ8OAllAYNAEtv/pitYv33TFOp77if7ipVP1Iv72Rxe0WWzfr9vxy69r9MXG+vUNmUAAAQQQQAABBBBAAAEEEEAgYQIE3hJ2wMguAkkSsCDaE81BtJeu6c9e6lCK0wTdOuiwCAEEEEAAAQQQQAABBBBAIEECBN4SdLDIKgL9LHB//U1t+Rm8r7NNI5g2cj6yY2Dtjrau3fE2WF9rbMgUAggggAACCCCAAAIIIIAAAgkTIPCWsANGdhHoV4F7l5/XuiY0evmSvvjiKxqJZDQUTIvMl0bOPK2RcJ9u115V7dl/0D21b47alAQfEUAAAQQQQAABBBBAAAEEEOhLAQJvfXlYyBQCCRTIfV8TP3yuKeAWlOOURs/c0foL39HWDT+gdm5GY/kXIgMpbF97Wf9F0C1A4zcCCCCAAAIIIIAAAggggEDCBQi8JfwAHmT219Zo5neQvgOXdvEH+tW3ntOZC5Juv6naj65o892zOvPqK15w7fTTOnPtfW3fflPb66c0eiHcl9sdbX1vTutFb0CGgbOhQAgggAACCCCAAAIIIIAAAkMpsKfAG4GZoTxnKDQCbQW2nr2o9ctndf9y0FT0pta/uhbp723kdFPTUr2p2oXvaDOoCdc2dRYggAACCCCAAAIIIIAAAgggkCyBPQXeklVUcosAAgctcPycdH9NGr38f5T65inZQArRvt7icvC0UtfeV8oW3b6jbd3R9rp0f/2fdc8qXb67pq0b1ISLk2MeAggggAACCCCAAAIIIIBAfwsQeOvv40PuEEiEwPHLr+uJF8NNR+Ozbc1Mf/ujK9rSXyv10lbOVIAAACAASURBVDMabR7h1AXqLGAn6cLTLpGt7z2qrRvx6TEXAQQQQAABBBBAAAEEEEAAgX4WIPDWz0eHvCGQEIF7l1/V1ouvaLQ5v7fvaOuf3tDWP/68qdbaTa0Xf+CtfW5Co3/z1xr95jOtNeRu/1S1YnOifEYAAQQQQAABBBBAAAEEEEAgGQIE3pJxnMglAn0usKytH/+VdOa27q8/o1RQ++30KY2++Jz710sBtn58UVtrf63j+rnuyR8FtZcEWBcBBBBAAAEEEEAAAQQQQACBPhAg8NYHB4EsIDAIAluXn9eWFSR3Wint3Oy0Y5nXbmmreNNLr+OKyVz45JNPJjPj5PpQBN5+++1D2c9B7IRz+yBUBydNzu3BOZaUJCqQ1HOba3b0OPKpVYBzu9WEOYMhcNjnNoG3wThvKAUCfSuwfftOV3mzgRj4QQABBBBAAAEEEEAAAQQQQGCQBAi8DdLRpCwI9JvA7Z/qv776ShfNRSc09m9XlbJBFfhBAAEEEEAAAQQQQAABBBBAYEAECLwNyIGkGAj0pcDpZ5R6rbtomhvJtC8LQaYQQAABBBBAAAEEEEAAAQQQ2J3AngJvZ8+e3d1e2aovBNbW1nbMB8d4R6IjXaGbY3ikGdQpjV6gCenRHgP2jgACCCCAAAIIIIAAAgggcFQCx45qx+wXAQQQQAABBBBAAAEEEEAAAQQQQACBQRbYU423QYahbAggsA8Ct3+q9Rd+rvs7JnVWo6++Qh9vOzqxAgIIIIAAAggggAACCCCAQJIECLwl6WiRVwSSIFB8XrfenfBzekv3bnzcRa5v6t4La9ry1+xumy6SZZWECtS0Mp/XxkxRs5kORaitaD5f0tjcDut1SIJFCCCAwFAI+NdLZRe1MJ3qqciVpZwKZdtkSnPFWXW6LPeUsFvZu96vTvaer973xRYIIIAAAggcjQCBt6NxZ68IDLTAvRs325RvQqOXL+mL33xa2z96VOvFUFDuxk3da7MVs4dNIKXMZFqlwpLOhx/yKkvKFdThwa+ipVxBm7t4sBw2YcqLAAIItBVw11oXafNWmZpTsWjhtppqtZpWruRVqrbd2i2Y6uGFSGosrWopr6UUL1E6q7IUAQQGXaC2Mq98qar0ftzL+i9cvMv1Qbw4GfSjsb/lI/C2v56khgAC7QTOfV8T157TiL985KWXdbz4iu4pFHxrty3z+0jAC26FHskaebOHs45V1KTghqKxkaR0VosL0wrXwUhNX1J2Na/C0vkd04ykxQcEDkigXuun43ne6/ej1/UPqHAki0BYIDOrYnHWBdqs9nGpviylVKrmPrV/KPTO6fombsKr1bZTsK5cyCn2b4v7M0GNuKgpn6ICPV5LIwGJaErqeI2Prtvd34XoNnxC4HAEKlrKl7TDO5LDyQp7cQIE3jgREEDgcARu/EC/uvaczlzwd3f6OaVyr2i9eDi7Zy+HIFAuKFdu80atuQZFODvVkvK5jaaabClNX8pq9UpN9pgXDsqFN2UagcMRqOh6EBEoX1dlNtN7c7tO34+4QvS6flwazEOgnwRiXrL0U/bIy4AK9HotdevbO8Gdgr378HdhQMkp1u4FUtMLKk7vfvtgy9rKsvcio4dAcrAtvw9GgMDbwbiSKgJDKjChsdcu6aF2pT9zR9Kp+tLRl67pzLdsXvzP/cXvaLOrPuLit2fuAQq0PEAFNRrKrbXUwkG3lu0k+U1ILbdxNeLyuZLcG+jztkZZhVwQAfHKV22qJZE+wGKT9HAKBDew6XRa1WpZyysXlenUT1bLed7h+2Gkva4/nIeBUnct0E2/aV4NIZrmd43KikkQ6PVaGhOUCO5DrPlzbqN9Tf6e/y4kwY88DpzA1Pn97ZVz4IAOsUAE3g4Rm10hMPgCZ/XQhac12m1BT5/S6OlGIK55s61fSLrRPJfP/SmQ0vTCnDZyBZU3Q7XUrDmH65U7rezigmJjFa5Zk1+qjm/6Mn7zp3YC/oNku8XMR2BXAjVVVq2xxpRmLo1rOV9VdbWi2nS0eXTnpNt8P9pu1Ov6bRNiwTAKVK66PtimZjrUFbaqxGmpWrqqynR0wIR687nArmq1me2DXccvubkuKNFogxqsWf89VZ9qnWhJv3WV0JwOfztCazGJQLxA79dSr8aR33S1XNDS+bi+B/fj70J8jpmLAAKDKUDgbTCPK6VCAAEEjkAgpXGrblbdqDcPrVVWXf8S6eyl+KBbcy5d7bfNepDOvXlenWzpA655M+9zRrNF2i7H2zB31wK1iry423llUhlpqqRCeVWV2nR353R9x63fj/qi2Ile149NhJlDKFCxdtHprC52quiQymj2Ulab+VJLLeXMbFFeF2/eyNHVSK2gmlY69rnmBSw6sdfTb7dSqP+tqbk2L2zabct8BFoEdnMtzWh20ft+lK9XNJtp+jLt29+FlswyI+ECwYuFlgFmgtYfkeupa+qheeuLLZjvrxfZ3p/nNX+WXN+b9c7bmrp4CfbjO9b7zgzSD3yb1nOzm9cJtUSx/FyseQM/1GvpR/JVcwOcBW1SwvkPTLxdD+/LlGOBfb/+tgM1v2Kv5azafE5LlQ45tYOfyymXm5fbpOOqQbodVvIX2YNf2zTdPnfe3857GeI17AYrt6ROh7ZVx27sYo6hHY/5FffQb+dOt+dDS/qhdFqWuRlt9h+/8tDO3b72prZ6+ndH20OrNQgFr2nDbgTS436fbKE3wrFV3WLKnDmvKVW14fXfrZpL0G+O6q7vwfd6h9/+dSBmD8xCoCeBIHgcNNfInLe6PFWtVvyTtOvUmr8fO23Y6/o7pcfyoRCorWi5LE3NdFEjMzWtGTudy8ux983BuR91sxpERS20vaZ7L0B2GGfHS9Ld/0Xv7d09tz2EWpPBYlxNo2hu+ITAzgK7vJamMpq0l4nWr2fTToLvxt7/LjQlzMfEC3j3CNJmLXqP4F6IWOmazqfmc6kzQNBtRXgt64Kll+doL6aSc61RwulY3grKtUurtqIrbUfI8WuIhpKzgJ/FbaJBN1uhqlK+l/yGEk34ZEJrvMWddO71m/sjnXLDne/TkQmdZKV8LjSyk7U6mdJU2YvrtixLZ5UdK6kUhH2D7EzNaU4FxZ3rwSr1KHJ9xmBPVK56Uf6md0kdC+36VbCbsrgbP7+2zY5vVIM9hN6s2iwXoQ+Wtfkd2b8F6Toc0J07Z22zk8TPvqPf9txH24zOfPhKfeTTxBMMVQEaf3TTk5l64C0aiOsGxHszvepuWPxmUmMppTLTMc1MvX1qjoezbmRZZzcCFV11N5pTqneT4oLDZZVjmui130Pc96P92lKv63dKi2XDJODuqdJZXerypipzMat0uaTS1YqmI9Gy4MWJpM1lzS9JC7OZmIeodroxtRrsWh5ZPaOZ7KoKrp/OtNLpqqpV/z6sy/xHkuMDAi0CB3Et3a+/Cy2ZZcYgCAT3CJEuKbyBOLx+YjcVvsX1XjCH7jE6GFRLBa9m3EJwgQzO77KuV2blKmb6o1IHfRWGa55Z0rWVK64rAus+Y64Y7mYgiK/E9NVsMblSyT0j13cdyme1VJKyiyr6z+XBvr3aduG/BTH5DaUz6JMJDbx5h6X5RGocLBvuPOiwuzny1VhLysv67I778dL2h+GdmtPi+LLypbHICWon1RU7yVJXlSs0mkY10pvW9KzfWfjGjIr+DU1lKTxSjp2AyxoP+j6yIM5yI4WBm2obpAr6D+lQ4nr1V/uDZ9/vaaUsvevn67bB1u6NaVNU3h3TlN9sIljRfvtvVSM3g82vtsLrK7R/m+8ucBddtd+NmXAAwLu4eCdjJAE+IJB8ATcSacwFdGquQ02IboqdUmrMWqt6bwprm1J6MvLtbCRSua6y3TgE9x+NJUwhsD8C7hyzNzLnQ6OYZmSV3srl0I1u8956/X70un7z/viMgAkEtd3muqjtFoi5Wm/WfLqpLyvXlC4IhllArKD58UUtBM1Qg+39IPGuXoCkUsq4fj39hzGCbnVVJnYpcBjX0t3+XdhlkdgsaQLBPUKoSwp3zqSVvTSjsXzB1ZifdkEqf2TcyD1Gh/LaM2vkBUlGF7NplUtVv4Zdm/vlepLBCxULhoWDbrZCqD/EuNHbp+YU2XU9TVdrJXLvn5q+pOxq3utrNNJdQEazc1MqF8pd5je8k+RPJzrwtiO/H/FtWS8U/GkfvLOqkQWV68GejIqpJeWWKq7fiyXrQNwtsxN8VovZeeWvrCiz0MPNTkvGhmBG0zFx1U83s1323+T52HGxUbhmU1Ll6qay41IuV4jglVaticJC05tVW2VaC6Exml1EfqP5DWwkqZYPVtttM3vJ7d+L6FtA9mLsemW7QBIUaLFhxmAKtL2ehvp866bkKesobtUboMFqzI216SDcVdufmgsFRLpJnXUQ6F7AaxqSVrapsyzXlKRcVmzfP22Sb/v92Kf12yTD7CES6LW2W0AT1HorL6/oYsa7j3XNn6Ymld2sejUszl9XrnBFK5m99LnmNXFqei8aZMP9rvdHFJlLLbgmDj72INDrtbeRdHwT1f38u9DYF1ODJBDcI1iXFBZgc+dMOquM1QxKS+WgNpwfxA2aLO9k0GhR0lgzZW+rXW/KjXntp4JzelKZ2Bhd0B9iawqd8pgej03MInKN1gKtSQ7dnMEOvMUezoqWCq6VqDY1pc3lFdX8m4zm1d2NSL65JlbZH9nJbwcdqVBXVd5VoWuuutmcso0i1VTbLtyMNZ1t3WAg53hR/qmmN7MWjFu2t6pxzUgrSypYoM6ibvZmVzNamM5o2qoW2o9rNrqhmYMKgFrT49VJXVrw9n/F1byzNwZeZ8Nee367+HjV0K1T4HaXooE8pBRqeAQsqLzj9yx469ehZlCMmLuJsGBdTdpUWl6Ft6AKfPMGzddoW77zNbg5FT4j0Crgv4l2/ZE0dTURrBz3VtiWdfX9CBLZxfqhTZlEwAnY/ZH17dZ0T9WVTr3WW0lXK9OazQQ1+zOS3ejYT2ZWc1M5XbfKyD3f2HgPe/bQOD07rem4TLmX4q2tR7wXnFLb57q4tJg3vAK9Xns7SQU12yJNpPfwd6HTvlg2WAJBc9NI6w3rhiWlzGRapZJXGy5jzToITg3Wse9QmkQE3iJBqkJOm9k5Tbq4V06RuFdQ0A4X3aC21MxGWZvjF3Vp/Ip/kxFs3Py7xwc4P/DTnErz50a/X0PW1DQEUe8nrYcaYe6NQVWhAGfc7Vu07Xxol3uedG+Aq0GA1XsD68UHvZvKqiqqTU8rVavJLqVV129JuGnxnrOQoAROKfXqNf1ZTzk+Rf9uPXn1/8rBW79yYUnnI31J7JR3+x6Pt6wUXDtdbVnNuWbm7sHMH/lUKzbiUstmzECgZwH3N2rHrcpaXrmoTNyLoh23ZQUE9k/A4mHpTk2BdtiVV+ttVZu1ity5PzWjYkpuBNNgU+s7N+MGRCi11q/w73eCdVVvMVKf0/tE0M/y1FyPIwj3viu2QCAiYOe56785WuOZvwsRJT60FfBrjtnLuYvjbmT0oPVGKjOpdKmk1UpFbkF6svd3GW332+WCti1RghpxwSBpXabHal0JJCLwFjxoNUpU08qqNJXNarO0oZnww5y9MWvXR1qotlRtyUstNT0j2egd4TSCHaWsWWI3fcV5G3hVmf1tXOUrf8hdt9ivleEGVwh2MMS//ZupXmuE1QdMqKxoJTXd2sQsldJYu9oJbQe2iKsx4x0brwajf5zcTeSCrKVqUCuvpa17NXhbHDRp9WrpbLhOB4fweJ8mkDaERz1aZFdLoqxC2UZdKqv1eh5cY9XoQzM1rrTK2rhu3+YxtWlpGt0PnxDYV4GgH5T2Tdy8mjhVVYMmI/u6fxJDoDeBVGZWcZ1ed52Ku+f1XmZWlpb95tXRUflcWqH1vLT9/mw7DXLjXkamNRnftql9FmsbqloN5pabrfabsASBvQq4F3t+zY509lIo6Mvfhb3aDs/2fs22alnLV9LuOjYTVDRxo+WWVFpddi1E09lgQLLD0An6hLN78tB9t9u1PbMWXKWmuCath5G7Qd9HIgJvbQ+CC7KUGqN42PPb9bLSk4utkWP35sKqsM+6ZY1bCevk77py8yudm011qEUna2Y4n9dGU0ZTrsPY+MEVIrX4bLuhampa08oVe1s6JbsIhf/ANQibmuKG/e1YXk9pwW9dqlCfffXtw+vXZ9pE0fXRF8xyD06hgS+C+S7N5fHYc6Je0yZcw8G/qcxmx1QK9ZEi1zmxV8562oM8ce5RaqwN8vHdZdksYD6nnGsG1XLtq6c5VZ+S/2Bn38/yUbwJbOSEqWEVcNduK3z7/knsxd1UqaByNdSB8rB6Ue6BEsjMLuxreVxrgd28RHH9Au9rVkgMgahAuf3L95YXhfxdiNrxqaOAV7PNBqaxUWNmQpVFvEHEVK6qqrSyvb6Q6LjXnRc2Bj7wXoi3bGGjYoefcVtWYMZuBRIReAs/qEU7yPT6D1quj8lr7e7Tmlxs7nzCG510bK4YemsRIrMaGddzyi+lWkbHrK/VbpSc+gp2e979T+NiPnxNTRvDGHte9VpsPl9Qmyy2jzcbPSvvNXHI1d9GLapYDKJwQW207t4e2BDO7TuEjDme/ohhUugPtdWEO29vZaVJa9NfKvjNl70Aow2vHLzkiElxsGZ96XQo8HZHte+9qns9lfBRffGHz4XS6GljVu5jAe977o9c15zPNk2S3BDrQdPuqayGpffLZh4+H76A66Tedb12scP1O3hzXFXpakXT1Mo5/APFHrsXcLXHXL/e3W+zL2v6tYQiD577kjCJIHAwAm3uSfi7cDDcA5uqX7PNxd3OR58Eg25YlG43yMFBqtjopUVlXNcs9vTa+GnEJxrzmNo/gUQE3ryTQLG1yuzELSz7/WpZJ5jpSUXjbt6Dno2C2akKfmZ2Udn5vHJLXp9BLcRta1C1rLnjDHsAjX79QpvY2722C0PrJXUyaGI6NaVybAd9OxQs6Oi0zR9F29pGRKy6ziy9AGzbWm077Cp2cUsTC28t6zvQOtPOpDKanptSrrCk8eymStUpzdlADEPyc/zsqUZJb7+hreI/6J4+bszbcWpCx791Wtv+evff3XEDVjh0gYxmi0U1Qt29ZGDnbVtqwNa/61azmM7betFm3d0LNL8QapdSULO9sXznc7yxrk31un50az4h0FbAWgf4Lyrr6+y1JkNcC4Mg8eY+3my+3TvPbKhUTSt7qZub2zENa88cASO/dyvQ47W0zf18p73v/u9Cp1RZNrgCXoArrjdyG6wmXGkkYhC3LG5esFGbZa33J8EG3u+dlgdrd1yvzb5tBB4L7vVc9mCnA/o7EYG3Vnvr+C/tjXCUOq+pQkFXVqSxUqMpqdsmuOmwB7cdq0zaCTKnjVxBOb/D7sh+u6jx5tavPyRGtg59aFPjI9zU1KqdLu5luPbQ7vps0t4WWc3DWS3tLvDW9gveKKgbEbF0XZXz11WwjlFd0DTuhs8bmWhsrvfAWCM4YMdqRhtuN34tO3/kr0LJ+gZaaB9kbWR5YKYeOhMKvK2/32PQzRhuavPZ5wfGg4L0LtDtja1bz0/e3RRkVjSfy3kdflOzond4tkAAgcES2EVgYUeALu7BmtOw+yUbaKH1NtzrpqUUqnBhL9rj7taa0+QzAggggAACSRPo88BbTTbK7th5C4w0emWT609rTG62vS12NYxKsiZ9s6EYiqsSHATCYt/ShfsR84Jds8U5KVfQ/PiiIk0du6jx5tWsanMKBH0IWH4itUWampq22XxQZtvDsrupquytRM46uFtrPjZuCOeCCoVQp9hu0I2mPttc7bkpzfVwlxcE3OzmsGjDfbl+4XMqWee//l2l5c0NhORG3u11JMe9uRzt1jMavdDIwfb6WuMDUwjsWaDD2zNL+yAeMvecZxJAAAEEkiyww3W3i6KFX5JEV9972tH0+IQAAggggED/CvR34M11YpnWZCiYZpRBQM2Ll9S0suy1WayWrmgl06gpFvlj3/SWzgIoy83BNXecvKrK+3HIgiCN9f42Vxyumk/74ReXRt3UBTCjEbNIMM7feNP1/yfvHBmbawy64QbbKMv6DIymErfXxjx3ToXb2NlIuWUL2s4qY/3P5Ww0GPvs9Sfo8ttuJMdGsoMxlfsrjYZKsr12K/SJSQQQQAABBBBAAAEEEEAAAQSGT6CvA29uFKT0pC5FAm9e88Apq6bkNyW1mm5F60fLajXlc1q1/txa67Tv7eh23dS0sZuWII0/+mlQUauxZtOopraguRZXZOXB+WDBslw8iHLN3Tm52ovRUUmDEWVdEs3BOHd+BLUaQ/2L+LUfrdba3vrC9oK+FrybljVz82pdhps1u3PgovWzklduo03/gQNxOGd05odPh0rypraKoY9MIoAAAggggAACCCCAAAIIIDCEAn0deLPjkZ5sGp3y+nWVLcAiC7JZn26hkUpdrbbzWsrtHOSwgEjXNZ2aasvt/jyhWn2zXccOG5tXjv3cwTSu6Vmoptvegm6WGW/fXramtVCM7UJyOJrANdd2+/EVbfU0qELswWUmAggggAACCCCAAAIIIIAAAokW6OvAmwVlFuq8jSCH19Ivo2JsjZoeR7Wpp8/EoQq4YOah7tHbWVwwLi4blr+uI7NxCQzZvOLzunX2dT3xog2u8KZ+dZlmpkN2BlBcBBBAAAEEEEAAAQQQQACBGIG+DrzF5JdZCCDQpwL3Ln9D62de1xfXqe3Wp4eIbCGAAAIIIIAAAggggAACCByyAIG3QwZndwgMssDWs9/Q1iAXkLIhgAACCCCAAAIIIIAAAggg0IPAsR7WZVUEEECgs8C5CY2+9romPnxdY+ce6LyupNHX1vWVD71/Z3I7r79jgqyAAAIIIIAAAggggAACCCCAQB8JUOOtjw4GWUEg6QKj+as6c8ErxUj+f2vz2eV6kY7nvq/Ut05Luq2txVe0dePj+rLwRLfrhbdJ2vTbb7+dtCyTXwS6EuDc7oqJlRIowLmdwINGlncU4LzekYgVEirAuZ3QAzfA2abG2wAfXIqGwGELbP3izcYuL7wQrfV29hmNXnhaoxee0fHGWq1T3a7XuiVzEEAAAQQQQAABBBBAAAEEEOgrAQJvfXU4yAwCCRcoXlHttleG7Wtv6F7Ci0P2EUAAAQQQQAABBBBAAAEEENiLAE1N96LHtggg4AnkfqKv/PDpiMbIhed05sJzbt7W9x5Vrb70lFLX3leq/tmbGP3h+/rKD5tm8hEBBBBAAAEEEEAAAQQQQACBBAtQ4y3BB4+sI4AAAggggAACCCCAAAIIIIAAAgj0r8Cearytra31b8nI2b4IcIz3hZFEnMAdbfvNULsDudPdaqyFAAIIIIAAAggggAACCCCAQJ8K7Cnw1qdlIlsIIHDYAsXn9U5ROn5uQrpxS/f0sY6fm9FDX1rT/Xele24E0+d18/JhZ4z9IYAAAggggAACCCCAAAIIIHB0AgTejs6ePSMwOAKhPt6sP7f1ovRQ/hWduWBFvKOta9LohVO7KO8d1S5c0KYL3O1iczZBAAEEEEAAAQQQQAABBBBA4AgF6OPtCPHZNQIDI/DubW1HCjOh42eCGXd0fz2Y5jcCCCCAAAIIIIAAAggggAACwyNAjbfhOdaUFIGDE7jxvgu8jUgaOfuEpLN66LS/u9u3dU+K6d/tlEaCddzyuD7d4uYdXDFIGQEEEEAAAQQQQAABBBBAAIH9FCDwtp+apIXA0Aqs6b4NnHBaGjlzNqqw/r62Lv9AW839u4Wap+ray7r57HJ0Oz4hgAACCCCAAAIIIIAAAgggkHABAm8JP4BkH4H+ELipe9ac1GqwnXlUx89JVvvNfrbX16TcTzTxUlMfb6dDny+8oIl/e8HfIvRr/Q3917OvuMEaQnOZRAABBBBAAAEEEEAAAQQQQCARAgTeEnGYyCQCCRI4fVoPfSkUeFu75TI/Eg60tRQn2uy0ZTEzEEAAAQQQQAABBBBAAAEEEEigAIMrJPCgkWUE+lHg/nrQH9spHa+3Nr2j++/2Y27JEwIIIIAAAggggAACCCCAAAIHL0Dg7eCN2QMCQyFwb60RePuzbwbNSO/o3o1o8bd/fFHvXPipPwrqHdUuPKpbP/a3vfay3jn5sraim/AJAQQQQAABBBBAAAEEEEAAgUQKEHhL5GEj0wj0ocC7/6za917W+oWL+tW6H3i7fVv3+zCrZAkBBBBAAAEEEEAAAQQQQACBwxDoqY+3Rx555DDyxD4QQCCJAjeWtXlDOn5uRqNn/AKcfk5/8eEz+m1Qoy2J5SLPCCCAAAIIIIAAAggggAACCOxSoKfA2y73wWYIIDDgAqOXX9cXXzxVH8k0XFwb3fS34RlMI4AAAggggAACCCCAAAIIIDAkAjQ1HZIDTTEROEgBa05qAbb4nzu6txa/hLkIIIAAAggggAACCCCAAAIIDLIANd4G+ehSNgQOScAbWCHo1+2Ottbf0P1fvK+td9d078ZNKfeT7nJy5gWdea1TEK+7ZFgLAQQQQAABBBBAAAEEEEAAgX4QIPDWD0eBPCCQdIHiFd169zu6d+PjrkuyfdtGMg1GQr2j7duSTp/S6Omuk2BFBBBAAAEEEEAAAQQQQAABBPpagMBbXx8eModAUgRu6t6NHvJ64wda/+oPGhvceF43L0vHL7+uJ170a87pjrb+6ee6p+6DeY0EmUIAAQQQQAABBBBAAAEEEEDg6AUIvB39MSAHCAy+QPF5vVPcuZj3Ln9D7/zjhI7rVk+153ZOmTUQQAABBBBAAAEEEEAAAQQQOHwBAm+Hb84eEUCgk8CNm7rXaTnLEEAAAQQQQAABBBBAAAEEEEiIQMuopg888EBCsk42EUBgLwJ81/eix7YIIIAAAggggAACCCCAAAII7CzQUuPNHsbX19f1u9/9Ttvb2/roo4/08cf0sbQzJWsgbtNTHwAAA75JREFU0N8C9t1+8MEHNTIyos9//vM6ceJEf2f4kHL35JNPHtKe2A0CCCCAAAIIIIAAAggggMCwCUQCb8eOHXMP5p/61Kf06U9/2lkQeBu2U4LyDqpAEHiz77Z9xy0IZ9/55p9Brgk3yGVrPo58RgABBBBAAAEEEEAAAQQQOHoBF3izh9HwQ/lnPvMZl7Pf//73+tOf/nT0uSQHCCCwLwIWaLOgm33HLQBnwbfg+287sGlb59gvStra2nK1XvfjGtCu1qztL/gJ1gl+B/kJ/w7W7eW3lcdq+Y2OjrqyhffZSzqsiwACCCCAAAIIIIAAAggggECvAvUab/Ywag/hDz30kEvDHsr/+Mc/umam4QfhXnfA+ggg0B8C9h23f5/4xCdc8M2+60HgzXJoyyxI9clPftIFqj772c+66f0IvPUiEL7eWJ72+mNlsuuZBd+sbPZ5P9Lda77YHgEEEEAAAQQQQAABBBBAYPAFWgJvQRM0eyg/7AfuweemhAgcvYAFnizgFvwLglD2Owi+f+5zn3NBqj/84Q+JDr5bmexfEExsDjYe/dEgBwgggAACCCCAAAIIIIAAAoMs8MDHoeolNhn+N8gFp2wIDLNAEJAKfpuFffct2G7BNmtmbr/tc+gSkUgyK2NQk89eLFDrLZGHkUwjgAACCCCAAAIIIIAAAokUiATeghIk/UE7KAe/EUCgvYAFpJp/guCbBdyCGq9Jvx4E5bTgW/AvmNdcfj4jgAACCCCAAAIIIIAAAgggsJ8CsYG3/dwBaSGAQLIEwoG28HSyShHNbTjQFp6OrsUnBBBAAAEEEEAAAQQQQAABBPZXgMDb/nqSGgIIIIAAAggggAACCCCAAAIIIIAAAk7gGA4IIIAAAggggAACCCCAAAIIIIAAAgggsP8CBN7235QUEUAAAQQQQAABBBBAAAEEEEAAAQQQEIE3TgIEEEAAAQQQQAABBBBAAAEEEEAAAQQOQIDA2wGgkiQCCCCAAAIIIIAAAggggAACCCCAAAIE3jgHEEAAAQQQQAABBBBAAAEEEEAAAQQQOAABAm8HgEqSCCCAAAIIIIAAAggggAACCCCAAAIIEHjjHEAAAQQQQAABBBBAAAEEEEAAAQQQQOAABAi8HQAqSSKAAAIIIIAAAggggAACCCCAAAIIIEDgjXMAAQQQQAABBBBAAAEEEEAAAQQQQACBAxAg8HYAqCSJAAIIIIAAAggggAACCCCAAAIIIIAAgTfOAQQQQAABBBBAAAEEEEAAAQQQQAABBA5A4P8DElK6Ob7T2jsAAAAASUVORK5CYII=;" parent="1" vertex="1">
          <mxGeometry x="20" y="50" width="1246" height="619" as="geometry"/>
        </mxCell>
      </root>
    </mxGraphModel>
  </diagram>
  <diagram id="_ORIcFPBeo26oc08NNLF" name="第 2 页">
    <mxGraphModel dx="1173" dy="652" grid="1" gridSize="10" guides="1" tooltips="1" connect="1" arrows="1" fold="1" page="1" pageScale="1" pageWidth="827" pageHeight="1169" math="0" shadow="0">
      <root>
        <mxCell id="Xsrgx0YZsccM0jyptyek-0"/>
        <mxCell id="Xsrgx0YZsccM0jyptyek-1" parent="Xsrgx0YZsccM0jyptyek-0"/>
        <mxCell id="Xsrgx0YZsccM0jyptyek-41" value="" style="rounded=1;whiteSpace=wrap;html=1;labelBackgroundColor=none;" parent="Xsrgx0YZsccM0jyptyek-1" vertex="1">
          <mxGeometry x="180" y="140" width="1090" height="441" as="geometry"/>
        </mxCell>
        <mxCell id="Xsrgx0YZsccM0jyptyek-19" value="" style="rounded=0;whiteSpace=wrap;html=1;" parent="Xsrgx0YZsccM0jyptyek-1" vertex="1">
          <mxGeometry x="735" y="214" width="324" height="336" as="geometry"/>
        </mxCell>
        <mxCell id="Xsrgx0YZsccM0jyptyek-2" value="商品配置" style="rounded=1;whiteSpace=wrap;html=1;" parent="Xsrgx0YZsccM0jyptyek-1" vertex="1">
          <mxGeometry x="758" y="226" width="120" height="30" as="geometry"/>
        </mxCell>
        <mxCell id="Xsrgx0YZsccM0jyptyek-3" value="仓网关系" style="rounded=1;whiteSpace=wrap;html=1;" parent="Xsrgx0YZsccM0jyptyek-1" vertex="1">
          <mxGeometry x="758" y="266" width="120" height="30" as="geometry"/>
        </mxCell>
        <mxCell id="Xsrgx0YZsccM0jyptyek-4" value="补货参数" style="rounded=1;whiteSpace=wrap;html=1;" parent="Xsrgx0YZsccM0jyptyek-1" vertex="1">
          <mxGeometry x="758" y="306" width="120" height="30" as="geometry"/>
        </mxCell>
        <mxCell id="Xsrgx0YZsccM0jyptyek-7" value="库存策略" style="rounded=1;whiteSpace=wrap;html=1;" parent="Xsrgx0YZsccM0jyptyek-1" vertex="1">
          <mxGeometry x="758" y="347" width="120" height="30" as="geometry"/>
        </mxCell>
        <mxCell id="Xsrgx0YZsccM0jyptyek-8" value="修正策略" style="rounded=1;whiteSpace=wrap;html=1;" parent="Xsrgx0YZsccM0jyptyek-1" vertex="1">
          <mxGeometry x="758" y="388" width="120" height="30" as="geometry"/>
        </mxCell>
        <mxCell id="Xsrgx0YZsccM0jyptyek-20" value="" style="rounded=0;whiteSpace=wrap;html=1;" parent="Xsrgx0YZsccM0jyptyek-1" vertex="1">
          <mxGeometry x="396" y="215" width="314" height="335" as="geometry"/>
        </mxCell>
        <mxCell id="Xsrgx0YZsccM0jyptyek-21" value="账号管理" style="rounded=1;whiteSpace=wrap;html=1;" parent="Xsrgx0YZsccM0jyptyek-1" vertex="1">
          <mxGeometry x="416" y="224" width="120" height="30" as="geometry"/>
        </mxCell>
        <mxCell id="Xsrgx0YZsccM0jyptyek-22" value="角色管理" style="rounded=1;whiteSpace=wrap;html=1;" parent="Xsrgx0YZsccM0jyptyek-1" vertex="1">
          <mxGeometry x="416" y="264" width="120" height="30" as="geometry"/>
        </mxCell>
        <mxCell id="Xsrgx0YZsccM0jyptyek-23" value="菜单管理" style="rounded=1;whiteSpace=wrap;html=1;" parent="Xsrgx0YZsccM0jyptyek-1" vertex="1">
          <mxGeometry x="416" y="304" width="120" height="30" as="geometry"/>
        </mxCell>
        <mxCell id="Xsrgx0YZsccM0jyptyek-25" value="场景管理" style="rounded=1;whiteSpace=wrap;html=1;" parent="Xsrgx0YZsccM0jyptyek-1" vertex="1">
          <mxGeometry x="416" y="346" width="120" height="30" as="geometry"/>
        </mxCell>
        <mxCell id="Xsrgx0YZsccM0jyptyek-26" value="发布管理" style="rounded=1;whiteSpace=wrap;html=1;" parent="Xsrgx0YZsccM0jyptyek-1" vertex="1">
          <mxGeometry x="416" y="386" width="120" height="30" as="geometry"/>
        </mxCell>
        <mxCell id="Xsrgx0YZsccM0jyptyek-27" value="商家管理" style="rounded=1;whiteSpace=wrap;html=1;" parent="Xsrgx0YZsccM0jyptyek-1" vertex="1">
          <mxGeometry x="416" y="426" width="120" height="30" as="geometry"/>
        </mxCell>
        <mxCell id="Xsrgx0YZsccM0jyptyek-28" value="行业管理" style="rounded=1;whiteSpace=wrap;html=1;" parent="Xsrgx0YZsccM0jyptyek-1" vertex="1">
          <mxGeometry x="416" y="465" width="120" height="30" as="geometry"/>
        </mxCell>
        <mxCell id="Xsrgx0YZsccM0jyptyek-30" value="支撑系统" style="rounded=0;whiteSpace=wrap;html=1;labelBackgroundColor=none;fillColor=#d5e8d4;strokeColor=#82b366;" parent="Xsrgx0YZsccM0jyptyek-1" vertex="1">
          <mxGeometry x="481" y="172" width="160" height="30" as="geometry"/>
        </mxCell>
        <mxCell id="Xsrgx0YZsccM0jyptyek-32" value="业务系统" style="rounded=0;whiteSpace=wrap;html=1;fillColor=#d5e8d4;strokeColor=#82b366;" parent="Xsrgx0YZsccM0jyptyek-1" vertex="1">
          <mxGeometry x="807.5" y="172" width="160" height="30" as="geometry"/>
        </mxCell>
        <mxCell id="Xsrgx0YZsccM0jyptyek-57" value="销量预测平台" style="rounded=0;whiteSpace=wrap;html=1;fillColor=#d5e8d4;strokeColor=#82b366;" parent="Xsrgx0YZsccM0jyptyek-1" vertex="1">
          <mxGeometry x="1085" y="171" width="160" height="30" as="geometry"/>
        </mxCell>
        <mxCell id="Xsrgx0YZsccM0jyptyek-58" value="" style="rounded=0;whiteSpace=wrap;html=1;" parent="Xsrgx0YZsccM0jyptyek-1" vertex="1">
          <mxGeometry x="1086" y="214" width="160" height="336" as="geometry"/>
        </mxCell>
        <mxCell id="Xsrgx0YZsccM0jyptyek-59" value="ETL" style="rounded=1;whiteSpace=wrap;html=1;" parent="Xsrgx0YZsccM0jyptyek-1" vertex="1">
          <mxGeometry x="1105" y="226" width="120" height="30" as="geometry"/>
        </mxCell>
        <mxCell id="Xsrgx0YZsccM0jyptyek-60" value="算法运算" style="rounded=1;whiteSpace=wrap;html=1;" parent="Xsrgx0YZsccM0jyptyek-1" vertex="1">
          <mxGeometry x="1105" y="266" width="120" height="30" as="geometry"/>
        </mxCell>
        <mxCell id="Xsrgx0YZsccM0jyptyek-61" value="销量预测生成" style="rounded=1;whiteSpace=wrap;html=1;" parent="Xsrgx0YZsccM0jyptyek-1" vertex="1">
          <mxGeometry x="1105" y="306" width="120" height="30" as="geometry"/>
        </mxCell>
        <mxCell id="Xsrgx0YZsccM0jyptyek-95" value="补货模块" style="rounded=1;whiteSpace=wrap;html=1;" parent="Xsrgx0YZsccM0jyptyek-1" vertex="1">
          <mxGeometry x="918" y="228" width="120" height="30" as="geometry"/>
        </mxCell>
        <mxCell id="Xsrgx0YZsccM0jyptyek-96" value="调拨模块" style="rounded=1;whiteSpace=wrap;html=1;" parent="Xsrgx0YZsccM0jyptyek-1" vertex="1">
          <mxGeometry x="918" y="270" width="120" height="26" as="geometry"/>
        </mxCell>
        <mxCell id="Xsrgx0YZsccM0jyptyek-97" value="分发模块" style="rounded=1;whiteSpace=wrap;html=1;" parent="Xsrgx0YZsccM0jyptyek-1" vertex="1">
          <mxGeometry x="918" y="308" width="120" height="30" as="geometry"/>
        </mxCell>
        <mxCell id="Xsrgx0YZsccM0jyptyek-98" value="大单模块" style="rounded=1;whiteSpace=wrap;html=1;" parent="Xsrgx0YZsccM0jyptyek-1" vertex="1">
          <mxGeometry x="918" y="348" width="120" height="30" as="geometry"/>
        </mxCell>
        <mxCell id="Xsrgx0YZsccM0jyptyek-99" value="均衡处理" style="rounded=1;whiteSpace=wrap;html=1;" parent="Xsrgx0YZsccM0jyptyek-1" vertex="1">
          <mxGeometry x="918" y="388" width="120" height="30" as="geometry"/>
        </mxCell>
        <mxCell id="Xsrgx0YZsccM0jyptyek-100" value="滞销处理" style="rounded=1;whiteSpace=wrap;html=1;" parent="Xsrgx0YZsccM0jyptyek-1" vertex="1">
          <mxGeometry x="918" y="428" width="120" height="30" as="geometry"/>
        </mxCell>
        <mxCell id="Xsrgx0YZsccM0jyptyek-101" value="预测模型可选" style="rounded=1;whiteSpace=wrap;html=1;" parent="Xsrgx0YZsccM0jyptyek-1" vertex="1">
          <mxGeometry x="570" y="388" width="120" height="30" as="geometry"/>
        </mxCell>
        <mxCell id="Xsrgx0YZsccM0jyptyek-104" value="" style="rounded=0;whiteSpace=wrap;html=1;" parent="Xsrgx0YZsccM0jyptyek-1" vertex="1">
          <mxGeometry x="214" y="214" width="160" height="336" as="geometry"/>
        </mxCell>
        <mxCell id="Xsrgx0YZsccM0jyptyek-105" value="订单信息" style="rounded=1;whiteSpace=wrap;html=1;" parent="Xsrgx0YZsccM0jyptyek-1" vertex="1">
          <mxGeometry x="233" y="224" width="120" height="30" as="geometry"/>
        </mxCell>
        <mxCell id="Xsrgx0YZsccM0jyptyek-106" value="商品信息" style="rounded=1;whiteSpace=wrap;html=1;" parent="Xsrgx0YZsccM0jyptyek-1" vertex="1">
          <mxGeometry x="233" y="264" width="120" height="30" as="geometry"/>
        </mxCell>
        <mxCell id="Xsrgx0YZsccM0jyptyek-107" value="门店库存信息" style="rounded=1;whiteSpace=wrap;html=1;" parent="Xsrgx0YZsccM0jyptyek-1" vertex="1">
          <mxGeometry x="233" y="304" width="120" height="30" as="geometry"/>
        </mxCell>
        <mxCell id="Xsrgx0YZsccM0jyptyek-109" value="数据接入" style="rounded=0;whiteSpace=wrap;html=1;fillColor=#d5e8d4;strokeColor=#82b366;" parent="Xsrgx0YZsccM0jyptyek-1" vertex="1">
          <mxGeometry x="214" y="171" width="160" height="30" as="geometry"/>
        </mxCell>
        <mxCell id="Xsrgx0YZsccM0jyptyek-111" value="准实时库存" style="rounded=1;whiteSpace=wrap;html=1;" parent="Xsrgx0YZsccM0jyptyek-1" vertex="1">
          <mxGeometry x="234" y="345" width="120" height="30" as="geometry"/>
        </mxCell>
        <mxCell id="Xsrgx0YZsccM0jyptyek-114" value="销量预测数据清洗规则" style="rounded=1;whiteSpace=wrap;html=1;" parent="Xsrgx0YZsccM0jyptyek-1" vertex="1">
          <mxGeometry x="570" y="348" width="120" height="30" as="geometry"/>
        </mxCell>
        <mxCell id="Xsrgx0YZsccM0jyptyek-115" value="订单信息接入规则" style="rounded=1;whiteSpace=wrap;html=1;" parent="Xsrgx0YZsccM0jyptyek-1" vertex="1">
          <mxGeometry x="570" y="224" width="120" height="30" as="geometry"/>
        </mxCell>
        <mxCell id="Xsrgx0YZsccM0jyptyek-116" value="商品信息接入规则" style="rounded=1;whiteSpace=wrap;html=1;" parent="Xsrgx0YZsccM0jyptyek-1" vertex="1">
          <mxGeometry x="570" y="266" width="120" height="30" as="geometry"/>
        </mxCell>
        <mxCell id="Xsrgx0YZsccM0jyptyek-117" value="门店信息接入规则" style="rounded=1;whiteSpace=wrap;html=1;" parent="Xsrgx0YZsccM0jyptyek-1" vertex="1">
          <mxGeometry x="570" y="308" width="120" height="30" as="geometry"/>
        </mxCell>
        <mxCell id="Xsrgx0YZsccM0jyptyek-118" value="实时库存" style="rounded=1;whiteSpace=wrap;html=1;" parent="Xsrgx0YZsccM0jyptyek-1" vertex="1">
          <mxGeometry x="758" y="429" width="120" height="30" as="geometry"/>
        </mxCell>
        <mxCell id="Xsrgx0YZsccM0jyptyek-119" value="建议字段配置" style="rounded=1;whiteSpace=wrap;html=1;" parent="Xsrgx0YZsccM0jyptyek-1" vertex="1">
          <mxGeometry x="416" y="507" width="120" height="30" as="geometry"/>
        </mxCell>
        <mxCell id="Xsrgx0YZsccM0jyptyek-121" value="。。。" style="rounded=1;whiteSpace=wrap;html=1;" parent="Xsrgx0YZsccM0jyptyek-1" vertex="1">
          <mxGeometry x="1105" y="352" width="120" height="30" as="geometry"/>
        </mxCell>
        <mxCell id="Xsrgx0YZsccM0jyptyek-122" value="。。。" style="rounded=1;whiteSpace=wrap;html=1;" parent="Xsrgx0YZsccM0jyptyek-1" vertex="1">
          <mxGeometry x="234" y="386" width="120" height="30" as="geometry"/>
        </mxCell>
        <mxCell id="Xsrgx0YZsccM0jyptyek-123" value="业务展示" style="rounded=1;whiteSpace=wrap;html=1;labelBackgroundColor=none;fillColor=#d80073;strokeColor=#A50040;fontColor=#ffffff;" parent="Xsrgx0YZsccM0jyptyek-1" vertex="1">
          <mxGeometry x="758" y="507" width="83" height="30" as="geometry"/>
        </mxCell>
        <mxCell id="Xsrgx0YZsccM0jyptyek-124" value="业务接口" style="rounded=1;whiteSpace=wrap;html=1;labelBackgroundColor=none;fillColor=#d80073;strokeColor=#A50040;fontColor=#ffffff;" parent="Xsrgx0YZsccM0jyptyek-1" vertex="1">
          <mxGeometry x="859" y="507" width="83" height="30" as="geometry"/>
        </mxCell>
        <mxCell id="Xsrgx0YZsccM0jyptyek-125" value="业务处理" style="rounded=1;whiteSpace=wrap;html=1;labelBackgroundColor=none;fillColor=#d80073;strokeColor=#A50040;fontColor=#ffffff;" parent="Xsrgx0YZsccM0jyptyek-1" vertex="1">
          <mxGeometry x="960" y="507" width="83" height="30" as="geometry"/>
        </mxCell>
      </root>
    </mxGraphModel>
  </diagram>
</mxfile>
